<?xml version="1.0" encoding="UTF-8" standalone="no"?>
<!DOCTYPE svg PUBLIC "-//W3C//DTD SVG 1.1//EN"
 "http://www.w3.org/Graphics/SVG/1.1/DTD/svg11.dtd">
<!-- Generated by graphviz version 7.1.0 (20230121.1956)
 -->
<!-- Title: classes_InputProcessing Pages: 1 -->
<svg width="1724pt" height="465pt"
 viewBox="0.00 0.00 1724.00 465.00" xmlns="http://www.w3.org/2000/svg" xmlns:xlink="http://www.w3.org/1999/xlink">
<g id="graph0" class="graph" transform="scale(1 1) rotate(0) translate(4 461)">
<title>classes_InputProcessing</title>
<polygon fill="white" stroke="none" points="-4,4 -4,-461 1720,-461 1720,4 -4,4"/>
<!-- InputProcessing.ProcessorTemplate.DeprelAnalyzerInterface -->
<g id="node1" class="node">
<title>InputProcessing.ProcessorTemplate.DeprelAnalyzerInterface</title>
<polygon fill="none" stroke="black" points="61.5,-147.5 61.5,-229.5 376.5,-229.5 376.5,-147.5 61.5,-147.5"/>
<text text-anchor="start" x="151.5" y="-214.3" font-family="Times New Roman,serif" font-size="14.00">DeprelAnalyzerInterface</text>
<polyline fill="none" stroke="black" points="61.5,-206.5 376.5,-206.5"/>
<polyline fill="none" stroke="black" points="61.5,-183.5 376.5,-183.5"/>
<text text-anchor="start" x="69.5" y="-169.3" font-family="Times New Roman,serif" font-size="14.00">__subclasshook__(subclass)</text>
<text text-anchor="start" x="69.5" y="-155.3" font-family="Times New Roman,serif" font-style="italic" font-size="14.00">deprel</text>
<text text-anchor="start" x="106.5" y="-155.3" font-family="Times New Roman,serif" font-size="14.00">(document: LemmatizedDocument): Document</text>
</g>
<!-- InputProcessing.Document.Document -->
<g id="node2" class="node">
<title>InputProcessing.Document.Document</title>
<polygon fill="none" stroke="black" points="1432,-21 1432,-90 1658,-90 1658,-21 1432,-21"/>
<text text-anchor="start" x="1516" y="-74.8" font-family="Times New Roman,serif" font-size="14.00">Document</text>
<polyline fill="none" stroke="black" points="1432,-67 1658,-67"/>
<polyline fill="none" stroke="black" points="1432,-44 1658,-44"/>
<text text-anchor="start" x="1440" y="-28.8" font-family="Times New Roman,serif" font-size="14.00">__init__(doc: LemmatizedDocument)</text>
</g>
<!-- InputProcessing.Document.LemmatizedDocument -->
<g id="node4" class="node">
<title>InputProcessing.Document.LemmatizedDocument</title>
<polygon fill="none" stroke="black" points="1445,-154 1445,-223 1645,-223 1645,-154 1445,-154"/>
<text text-anchor="start" x="1482" y="-207.8" font-family="Times New Roman,serif" font-size="14.00">LemmatizedDocument</text>
<polyline fill="none" stroke="black" points="1445,-200 1645,-200"/>
<polyline fill="none" stroke="black" points="1445,-177 1645,-177"/>
<text text-anchor="start" x="1453" y="-161.8" font-family="Times New Roman,serif" font-size="14.00">__init__(doc: TaggedDocument)</text>
</g>
<!-- InputProcessing.Document.Document&#45;&gt;InputProcessing.Document.LemmatizedDocument -->
<g id="edge1" class="edge">
<title>InputProcessing.Document.Document&#45;&gt;InputProcessing.Document.LemmatizedDocument</title>
<path fill="none" stroke="black" d="M1545,-89.9C1545,-106.06 1545,-125.7 1545,-143.11"/>
<polygon fill="none" stroke="black" points="1541.5,-142.65 1545,-152.65 1548.5,-142.65 1541.5,-142.65"/>
</g>
<!-- InputProcessing.Processors.Hops.Hops -->
<g id="node3" class="node">
<title>InputProcessing.Processors.Hops.Hops</title>
<polygon fill="none" stroke="black" points="0,-21 0,-90 438,-90 438,-21 0,-21"/>
<text text-anchor="start" x="203.5" y="-74.8" font-family="Times New Roman,serif" font-size="14.00">Hops</text>
<polyline fill="none" stroke="black" points="0,-67 438,-67"/>
<polyline fill="none" stroke="black" points="0,-44 438,-44"/>
<text text-anchor="start" x="8" y="-29.8" font-family="Times New Roman,serif" font-style="italic" font-size="14.00">deprel</text>
<text text-anchor="start" x="45" y="-29.8" font-family="Times New Roman,serif" font-size="14.00">(document: Document.LemmatizedDocument): Document.Document</text>
</g>
<!-- InputProcessing.Processors.Hops.Hops&#45;&gt;InputProcessing.ProcessorTemplate.DeprelAnalyzerInterface -->
<g id="edge4" class="edge">
<title>InputProcessing.Processors.Hops.Hops&#45;&gt;InputProcessing.ProcessorTemplate.DeprelAnalyzerInterface</title>
<path fill="none" stroke="black" d="M219,-89.9C219,-104.05 219,-120.86 219,-136.5"/>
<polygon fill="none" stroke="black" points="215.5,-136.12 219,-146.12 222.5,-136.12 215.5,-136.12"/>
</g>
<!-- InputProcessing.Document.TaggedDocument -->
<g id="node8" class="node">
<title>InputProcessing.Document.TaggedDocument</title>
<polygon fill="none" stroke="black" points="1436.5,-266.5 1436.5,-335.5 1653.5,-335.5 1653.5,-266.5 1436.5,-266.5"/>
<text text-anchor="start" x="1495" y="-320.3" font-family="Times New Roman,serif" font-size="14.00">TaggedDocument</text>
<polyline fill="none" stroke="black" points="1436.5,-312.5 1653.5,-312.5"/>
<polyline fill="none" stroke="black" points="1436.5,-289.5 1653.5,-289.5"/>
<text text-anchor="start" x="1444.5" y="-274.3" font-family="Times New Roman,serif" font-size="14.00">__init__(doc: TokenizedDocument)</text>
</g>
<!-- InputProcessing.Document.LemmatizedDocument&#45;&gt;InputProcessing.Document.TaggedDocument -->
<g id="edge2" class="edge">
<title>InputProcessing.Document.LemmatizedDocument&#45;&gt;InputProcessing.Document.TaggedDocument</title>
<path fill="none" stroke="black" d="M1545,-222.95C1545,-233.12 1545,-244.47 1545,-255.25"/>
<polygon fill="none" stroke="black" points="1541.5,-255.15 1545,-265.15 1548.5,-255.15 1541.5,-255.15"/>
</g>
<!-- InputProcessing.ProcessorTemplate.LemmatizerInterface -->
<g id="node5" class="node">
<title>InputProcessing.ProcessorTemplate.LemmatizerInterface</title>
<polygon fill="none" stroke="black" points="395,-147.5 395,-229.5 773,-229.5 773,-147.5 395,-147.5"/>
<text text-anchor="start" x="527" y="-214.3" font-family="Times New Roman,serif" font-size="14.00">LemmatizerInterface</text>
<polyline fill="none" stroke="black" points="395,-206.5 773,-206.5"/>
<polyline fill="none" stroke="black" points="395,-183.5 773,-183.5"/>
<text text-anchor="start" x="403" y="-169.3" font-family="Times New Roman,serif" font-size="14.00">__subclasshook__(subclass)</text>
<text text-anchor="start" x="403" y="-155.3" font-family="Times New Roman,serif" font-style="italic" font-size="14.00">lemmatize</text>
<text text-anchor="start" x="461" y="-155.3" font-family="Times New Roman,serif" font-size="14.00">(document: TaggedDocument): LemmatizedDocument</text>
</g>
<!-- InputProcessing.ProcessorTemplate.PosTaggerInterface -->
<g id="node6" class="node">
<title>InputProcessing.ProcessorTemplate.PosTaggerInterface</title>
<polygon fill="none" stroke="black" points="791,-147.5 791,-229.5 1121,-229.5 1121,-147.5 791,-147.5"/>
<text text-anchor="start" x="901" y="-214.3" font-family="Times New Roman,serif" font-size="14.00">PosTaggerInterface</text>
<polyline fill="none" stroke="black" points="791,-206.5 1121,-206.5"/>
<polyline fill="none" stroke="black" points="791,-183.5 1121,-183.5"/>
<text text-anchor="start" x="799" y="-169.3" font-family="Times New Roman,serif" font-size="14.00">__subclasshook__(subclass)</text>
<text text-anchor="start" x="799" y="-155.3" font-family="Times New Roman,serif" font-style="italic" font-size="14.00">tag</text>
<text text-anchor="start" x="818" y="-155.3" font-family="Times New Roman,serif" font-size="14.00">(document: TokenizedDocument): TaggedDocument</text>
</g>
<!-- InputProcessing.Processors.Spacy.Spacy -->
<g id="node7" class="node">
<title>InputProcessing.Processors.Spacy.Spacy</title>
<polygon fill="none" stroke="black" points="581.5,-0.5 581.5,-110.5 1082.5,-110.5 1082.5,-0.5 581.5,-0.5"/>
<text text-anchor="start" x="814" y="-95.3" font-family="Times New Roman,serif" font-size="14.00">Spacy</text>
<polyline fill="none" stroke="black" points="581.5,-87.5 1082.5,-87.5"/>
<polyline fill="none" stroke="black" points="581.5,-64.5 1082.5,-64.5"/>
<text text-anchor="start" x="589.5" y="-50.3" font-family="Times New Roman,serif" font-style="italic" font-size="14.00">deprel</text>
<text text-anchor="start" x="626.5" y="-50.3" font-family="Times New Roman,serif" font-size="14.00">(document: Document.LemmatizedDocument): Document.Document</text>
<text text-anchor="start" x="589.5" y="-36.3" font-family="Times New Roman,serif" font-style="italic" font-size="14.00">lemmatize</text>
<text text-anchor="start" x="647.5" y="-36.3" font-family="Times New Roman,serif" font-size="14.00">(document: Document.TaggedDocument): Document.LemmatizedDocument</text>
<text text-anchor="start" x="589.5" y="-22.3" font-family="Times New Roman,serif" font-style="italic" font-size="14.00">tag</text>
<text text-anchor="start" x="608.5" y="-22.3" font-family="Times New Roman,serif" font-size="14.00">(document: Document.TokenizedDocument): Document.TaggedDocument</text>
<text text-anchor="start" x="589.5" y="-8.3" font-family="Times New Roman,serif" font-style="italic" font-size="14.00">tokenize</text>
<text text-anchor="start" x="635.5" y="-8.3" font-family="Times New Roman,serif" font-size="14.00">(txt: str, name: str): Document.TokenizedDocument</text>
</g>
<!-- InputProcessing.Processors.Spacy.Spacy&#45;&gt;InputProcessing.ProcessorTemplate.DeprelAnalyzerInterface -->
<g id="edge5" class="edge">
<title>InputProcessing.Processors.Spacy.Spacy&#45;&gt;InputProcessing.ProcessorTemplate.DeprelAnalyzerInterface</title>
<path fill="none" stroke="black" d="M581.61,-105.58C520.97,-117.92 456.18,-131.47 387.38,-146.72"/>
<polygon fill="none" stroke="black" points="386.78,-143.26 377.78,-148.85 388.3,-150.1 386.78,-143.26"/>
</g>
<!-- InputProcessing.Processors.Spacy.Spacy&#45;&gt;InputProcessing.ProcessorTemplate.LemmatizerInterface -->
<g id="edge6" class="edge">
<title>InputProcessing.Processors.Spacy.Spacy&#45;&gt;InputProcessing.ProcessorTemplate.LemmatizerInterface</title>
<path fill="none" stroke="black" d="M730.06,-110.35C709.92,-120.99 688.98,-132.05 669.46,-142.36"/>
<polygon fill="none" stroke="black" points="667.93,-139.21 660.73,-146.97 671.2,-145.39 667.93,-139.21"/>
</g>
<!-- InputProcessing.Processors.Spacy.Spacy&#45;&gt;InputProcessing.ProcessorTemplate.PosTaggerInterface -->
<g id="edge7" class="edge">
<title>InputProcessing.Processors.Spacy.Spacy&#45;&gt;InputProcessing.ProcessorTemplate.PosTaggerInterface</title>
<path fill="none" stroke="black" d="M882.79,-110.16C892,-119.89 901.55,-129.98 910.59,-139.53"/>
<polygon fill="none" stroke="black" points="907.93,-141.81 917.34,-146.66 913.01,-136.99 907.93,-141.81"/>
</g>
<!-- InputProcessing.ProcessorTemplate.TokenizerInterface -->
<g id="node10" class="node">
<title>InputProcessing.ProcessorTemplate.TokenizerInterface</title>
<polygon fill="none" stroke="black" points="1139,-147.5 1139,-229.5 1427,-229.5 1427,-147.5 1139,-147.5"/>
<text text-anchor="start" x="1230.5" y="-214.3" font-family="Times New Roman,serif" font-size="14.00">TokenizerInterface</text>
<polyline fill="none" stroke="black" points="1139,-206.5 1427,-206.5"/>
<polyline fill="none" stroke="black" points="1139,-183.5 1427,-183.5"/>
<text text-anchor="start" x="1147" y="-169.3" font-family="Times New Roman,serif" font-size="14.00">__subclasshook__(subclass)</text>
<text text-anchor="start" x="1147" y="-155.3" font-family="Times New Roman,serif" font-style="italic" font-size="14.00">tokenize</text>
<text text-anchor="start" x="1193" y="-155.3" font-family="Times New Roman,serif" font-size="14.00">(txt: str, name: str): TokenizedDocument</text>
</g>
<!-- InputProcessing.Processors.Spacy.Spacy&#45;&gt;InputProcessing.ProcessorTemplate.TokenizerInterface -->
<g id="edge8" class="edge">
<title>InputProcessing.Processors.Spacy.Spacy&#45;&gt;InputProcessing.ProcessorTemplate.TokenizerInterface</title>
<path fill="none" stroke="black" d="M1017.72,-110.44C1056.61,-121.74 1097.13,-133.51 1134.46,-144.35"/>
<polygon fill="none" stroke="black" points="1133.38,-147.69 1143.96,-147.11 1135.34,-140.96 1133.38,-147.69"/>
</g>
<!-- InputProcessing.Document.TokenizedDocument -->
<g id="node9" class="node">
<title>InputProcessing.Document.TokenizedDocument</title>
<polygon fill="none" stroke="black" points="1374,-372.5 1374,-456.5 1716,-456.5 1716,-372.5 1374,-372.5"/>
<text text-anchor="start" x="1486.5" y="-441.3" font-family="Times New Roman,serif" font-size="14.00">TokenizedDocument</text>
<polyline fill="none" stroke="black" points="1374,-433.5 1716,-433.5"/>
<text text-anchor="start" x="1517.5" y="-418.3" font-family="Times New Roman,serif" font-size="14.00">name : str</text>
<polyline fill="none" stroke="black" points="1374,-410.5 1716,-410.5"/>
<text text-anchor="start" x="1382" y="-395.3" font-family="Times New Roman,serif" font-size="14.00">__init__(name: str)</text>
<text text-anchor="start" x="1382" y="-380.3" font-family="Times New Roman,serif" font-size="14.00">_check_arguments(type: Callable, doc, expectedArgs: set)</text>
</g>
<!-- InputProcessing.Document.TaggedDocument&#45;&gt;InputProcessing.Document.TokenizedDocument -->
<g id="edge3" class="edge">
<title>InputProcessing.Document.TaggedDocument&#45;&gt;InputProcessing.Document.TokenizedDocument</title>
<path fill="none" stroke="black" d="M1545,-335.45C1545,-343.57 1545,-352.44 1545,-361.2"/>
<polygon fill="none" stroke="black" points="1541.5,-361.06 1545,-371.06 1548.5,-361.06 1541.5,-361.06"/>
</g>
</g>
</svg>
