<?xml version="1.0" encoding="UTF-8" standalone="no"?>
<!DOCTYPE svg PUBLIC "-//W3C//DTD SVG 1.1//EN"
 "http://www.w3.org/Graphics/SVG/1.1/DTD/svg11.dtd">
<!-- Generated by graphviz version 7.1.0 (20230121.1956)
 -->
<!-- Title: classes_FileProcessing Pages: 1 -->
<svg width="4128pt" height="1300pt"
 viewBox="0.00 0.00 4128.00 1300.00" xmlns="http://www.w3.org/2000/svg" xmlns:xlink="http://www.w3.org/1999/xlink">
<g id="graph0" class="graph" transform="scale(1 1) rotate(0) translate(4 1296)">
<title>classes_FileProcessing</title>
<polygon fill="white" stroke="none" points="-4,4 -4,-1296 4124,-1296 4124,4 -4,4"/>
<!-- FileProcessing.Parsers.CoNLLU.CoNLLU -->
<g id="node1" class="node">
<title>FileProcessing.Parsers.CoNLLU.CoNLLU</title>
<polygon fill="none" stroke="black" points="0,-68 0,-167 213,-167 213,-68 0,-68"/>
<text text-anchor="start" x="79.5" y="-151.8" font-family="Times New Roman,serif" font-size="14.00">CoNLLU</text>
<polyline fill="none" stroke="black" points="0,-144 213,-144"/>
<text text-anchor="start" x="52" y="-128.8" font-family="Times New Roman,serif" font-size="14.00">Columns : IntEnum</text>
<text text-anchor="start" x="52" y="-113.8" font-family="Times New Roman,serif" font-size="14.00">extensions : list</text>
<polyline fill="none" stroke="black" points="0,-106 213,-106"/>
<text text-anchor="start" x="8" y="-90.8" font-family="Times New Roman,serif" font-size="14.00">parse(txt: str, name: str): Document</text>
<text text-anchor="start" x="8" y="-75.8" font-family="Times New Roman,serif" font-size="14.00">produce(data: list): str</text>
</g>
<!-- FileProcessing.ParserInterfaces.ParserInterface -->
<g id="node9" class="node">
<title>FileProcessing.ParserInterfaces.ParserInterface</title>
<polygon fill="none" stroke="black" points="242,-557.5 242,-639.5 423,-639.5 423,-557.5 242,-557.5"/>
<text text-anchor="start" x="290" y="-624.3" font-family="Times New Roman,serif" font-size="14.00">ParserInterface</text>
<polyline fill="none" stroke="black" points="242,-616.5 423,-616.5"/>
<polyline fill="none" stroke="black" points="242,-593.5 423,-593.5"/>
<text text-anchor="start" x="250" y="-579.3" font-family="Times New Roman,serif" font-size="14.00">__subclasshook__(subclass)</text>
<text text-anchor="start" x="250" y="-565.3" font-family="Times New Roman,serif" font-style="italic" font-size="14.00">parse</text>
<text text-anchor="start" x="282" y="-565.3" font-family="Times New Roman,serif" font-size="14.00">(txt: str, name: str): Any</text>
</g>
<!-- FileProcessing.Parsers.CoNLLU.CoNLLU&#45;&gt;FileProcessing.ParserInterfaces.ParserInterface -->
<g id="edge6" class="edge">
<title>FileProcessing.Parsers.CoNLLU.CoNLLU&#45;&gt;FileProcessing.ParserInterfaces.ParserInterface</title>
<path fill="none" stroke="black" d="M137.68,-166.92C158.23,-199.82 185.01,-244.69 205.5,-286 249.93,-375.58 291.74,-484.68 314.56,-547.11"/>
<polygon fill="none" stroke="black" points="311.24,-548.21 317.94,-556.42 317.81,-545.82 311.24,-548.21"/>
</g>
<!-- FileProcessing.ParserInterfaces.ProducerInterface -->
<g id="node11" class="node">
<title>FileProcessing.ParserInterfaces.ProducerInterface</title>
<polygon fill="none" stroke="black" points="16.5,-557.5 16.5,-639.5 196.5,-639.5 196.5,-557.5 16.5,-557.5"/>
<text text-anchor="start" x="56" y="-624.3" font-family="Times New Roman,serif" font-size="14.00">ProducerInterface</text>
<polyline fill="none" stroke="black" points="16.5,-616.5 196.5,-616.5"/>
<polyline fill="none" stroke="black" points="16.5,-593.5 196.5,-593.5"/>
<text text-anchor="start" x="24.5" y="-579.3" font-family="Times New Roman,serif" font-size="14.00">__subclasshook__(subclass)</text>
<text text-anchor="start" x="24.5" y="-565.3" font-family="Times New Roman,serif" font-style="italic" font-size="14.00">produce</text>
<text text-anchor="start" x="71.5" y="-565.3" font-family="Times New Roman,serif" font-size="14.00">(data: list): str</text>
</g>
<!-- FileProcessing.Parsers.CoNLLU.CoNLLU&#45;&gt;FileProcessing.ParserInterfaces.ProducerInterface -->
<g id="edge7" class="edge">
<title>FileProcessing.Parsers.CoNLLU.CoNLLU&#45;&gt;FileProcessing.ParserInterfaces.ProducerInterface</title>
<path fill="none" stroke="black" d="M106.5,-166.62C106.5,-257.4 106.5,-453.14 106.5,-546.26"/>
<polygon fill="none" stroke="black" points="103,-546.12 106.5,-556.12 110,-546.12 103,-546.12"/>
</g>
<!-- FileProcessing.ProcessorInterfaces.DeprelAnalyzerInterface -->
<g id="node2" class="node">
<title>FileProcessing.ProcessorInterfaces.DeprelAnalyzerInterface</title>
<polygon fill="none" stroke="black" points="901,-557.5 901,-639.5 1216,-639.5 1216,-557.5 901,-557.5"/>
<text text-anchor="start" x="991" y="-624.3" font-family="Times New Roman,serif" font-size="14.00">DeprelAnalyzerInterface</text>
<polyline fill="none" stroke="black" points="901,-616.5 1216,-616.5"/>
<polyline fill="none" stroke="black" points="901,-593.5 1216,-593.5"/>
<text text-anchor="start" x="909" y="-579.3" font-family="Times New Roman,serif" font-size="14.00">__subclasshook__(subclass)</text>
<text text-anchor="start" x="909" y="-565.3" font-family="Times New Roman,serif" font-style="italic" font-size="14.00">deprel</text>
<text text-anchor="start" x="946" y="-565.3" font-family="Times New Roman,serif" font-size="14.00">(document: LemmatizedDocument): Document</text>
</g>
<!-- FileProcessing.Document.Document -->
<g id="node3" class="node">
<title>FileProcessing.Document.Document</title>
<polygon fill="none" stroke="black" points="2728.5,-75.5 2728.5,-159.5 2954.5,-159.5 2954.5,-75.5 2728.5,-75.5"/>
<text text-anchor="start" x="2812.5" y="-144.3" font-family="Times New Roman,serif" font-size="14.00">Document</text>
<polyline fill="none" stroke="black" points="2728.5,-136.5 2954.5,-136.5"/>
<polyline fill="none" stroke="black" points="2728.5,-113.5 2954.5,-113.5"/>
<text text-anchor="start" x="2736.5" y="-98.3" font-family="Times New Roman,serif" font-size="14.00">__init__(doc: LemmatizedDocument)</text>
<text text-anchor="start" x="2736.5" y="-83.3" font-family="Times New Roman,serif" font-size="14.00">chunk(size: int): list[dict]</text>
</g>
<!-- FileProcessing.Document.LemmatizedDocument -->
<g id="node6" class="node">
<title>FileProcessing.Document.LemmatizedDocument</title>
<polygon fill="none" stroke="black" points="2376.5,-564 2376.5,-633 2576.5,-633 2576.5,-564 2376.5,-564"/>
<text text-anchor="start" x="2413.5" y="-617.8" font-family="Times New Roman,serif" font-size="14.00">LemmatizedDocument</text>
<polyline fill="none" stroke="black" points="2376.5,-610 2576.5,-610"/>
<polyline fill="none" stroke="black" points="2376.5,-587 2576.5,-587"/>
<text text-anchor="start" x="2384.5" y="-571.8" font-family="Times New Roman,serif" font-size="14.00">__init__(doc: TaggedDocument)</text>
</g>
<!-- FileProcessing.Document.Document&#45;&gt;FileProcessing.Document.LemmatizedDocument -->
<g id="edge1" class="edge">
<title>FileProcessing.Document.Document&#45;&gt;FileProcessing.Document.LemmatizedDocument</title>
<path fill="none" stroke="black" d="M2749.91,-159.46C2695.42,-187.98 2628.71,-230.79 2585.5,-286 2521.88,-367.3 2493.82,-488.47 2482.78,-553.11"/>
<polygon fill="none" stroke="black" points="2479.38,-552.19 2481.21,-562.63 2486.29,-553.33 2479.38,-552.19"/>
</g>
<!-- FileProcessing.UploadTask.UploadTask -->
<g id="node21" class="node">
<title>FileProcessing.UploadTask.UploadTask</title>
<polygon fill="none" stroke="black" points="2595,-466.5 2595,-730.5 3384,-730.5 3384,-466.5 2595,-466.5"/>
<text text-anchor="start" x="2954.5" y="-715.3" font-family="Times New Roman,serif" font-size="14.00">UploadTask</text>
<polyline fill="none" stroke="black" points="2595,-707.5 3384,-707.5"/>
<text text-anchor="start" x="2946.5" y="-692.3" font-family="Times New Roman,serif" font-size="14.00">document</text>
<text text-anchor="start" x="2946.5" y="-677.3" font-family="Times New Roman,serif" font-size="14.00">forms_lock</text>
<text text-anchor="start" x="2946.5" y="-662.3" font-family="Times New Roman,serif" font-size="14.00">lemmas_lock</text>
<text text-anchor="start" x="2946.5" y="-647.3" font-family="Times New Roman,serif" font-size="14.00">pool : Pool</text>
<text text-anchor="start" x="2946.5" y="-632.3" font-family="Times New Roman,serif" font-size="14.00">sentences_lock</text>
<text text-anchor="start" x="2946.5" y="-617.3" font-family="Times New Roman,serif" font-size="14.00">tokens_lock</text>
<text text-anchor="start" x="2946.5" y="-602.3" font-family="Times New Roman,serif" font-size="14.00">user_id : int</text>
<polyline fill="none" stroke="black" points="2595,-594.5 3384,-594.5"/>
<text text-anchor="start" x="2603" y="-579.3" font-family="Times New Roman,serif" font-size="14.00">__init__(user_id: int, doc: Document, pool: aiomysql.Pool, forms_lock, lemmas_lock, sentences_lock, tokens_lock)</text>
<text text-anchor="start" x="2603" y="-564.3" font-family="Times New Roman,serif" font-size="14.00">insert_document(cursor: aiomysql.SSCursor): tuple</text>
<text text-anchor="start" x="2603" y="-549.3" font-family="Times New Roman,serif" font-size="14.00">insert_forms(cursor: aiomysql.SSCursor, forms: list[str])</text>
<text text-anchor="start" x="2603" y="-534.3" font-family="Times New Roman,serif" font-size="14.00">insert_in_collection(cursor: aiomysql.SSCursor, document_id: int)</text>
<text text-anchor="start" x="2603" y="-519.3" font-family="Times New Roman,serif" font-size="14.00">insert_lemmas(cursor: aiomysql.SSCursor, lemma_form_ids, lemma_pos)</text>
<text text-anchor="start" x="2603" y="-504.3" font-family="Times New Roman,serif" font-size="14.00">insert_sentences(cursor: aiomysql.SSCursor, text_id, sentence_doc_ind)</text>
<text text-anchor="start" x="2603" y="-489.3" font-family="Times New Roman,serif" font-size="14.00">insert_tokens(cursor: aiomysql.SSCursor, token_sent_ind, token_doc_ind, token_form, lemma, sentence, deprel, head, offset, spaceafter)</text>
<text text-anchor="start" x="2603" y="-474.3" font-family="Times New Roman,serif" font-size="14.00">process_file()</text>
</g>
<!-- FileProcessing.Document.Document&#45;&gt;FileProcessing.UploadTask.UploadTask -->
<g id="edge19" class="edge">
<title>FileProcessing.Document.Document&#45;&gt;FileProcessing.UploadTask.UploadTask</title>
<path fill="none" stroke="black" d="M2854.12,-159.34C2874.1,-224.02 2913.98,-353.07 2945.3,-454.45"/>
<polygon fill="none" stroke="black" points="2945.27,-454.34 2950.86,-458.89 2948.81,-465.8 2943.22,-461.25 2945.27,-454.34"/>
<text text-anchor="middle" x="2913.5" y="-256.8" font-family="Times New Roman,serif" font-size="14.00" fill="green">document</text>
</g>
<!-- FileProcessing.DocumentBuilder.DocumentBuilder -->
<g id="node4" class="node">
<title>FileProcessing.DocumentBuilder.DocumentBuilder</title>
<polygon fill="none" stroke="black" points="3310,-0.5 3310,-234.5 3753,-234.5 3753,-0.5 3310,-0.5"/>
<text text-anchor="start" x="3482.5" y="-219.3" font-family="Times New Roman,serif" font-size="14.00">DocumentBuilder</text>
<polyline fill="none" stroke="black" points="3310,-211.5 3753,-211.5"/>
<text text-anchor="start" x="3452.5" y="-196.3" font-family="Times New Roman,serif" font-size="14.00">input : list</text>
<text text-anchor="start" x="3452.5" y="-181.3" font-family="Times New Roman,serif" font-size="14.00">loop</text>
<text text-anchor="start" x="3452.5" y="-166.3" font-family="Times New Roman,serif" font-size="14.00">parsers : dict</text>
<text text-anchor="start" x="3452.5" y="-151.3" font-family="Times New Roman,serif" font-size="14.00">pool : ProcessPoolExecutor</text>
<text text-anchor="start" x="3452.5" y="-136.3" font-family="Times New Roman,serif" font-size="14.00">processors : dict</text>
<text text-anchor="start" x="3452.5" y="-121.3" font-family="Times New Roman,serif" font-size="14.00">threads : list</text>
<text text-anchor="start" x="3452.5" y="-106.3" font-family="Times New Roman,serif" font-size="14.00">upload_queue : Queue</text>
<polyline fill="none" stroke="black" points="3310,-98.5 3753,-98.5"/>
<text text-anchor="start" x="3318" y="-83.3" font-family="Times New Roman,serif" font-size="14.00">__del__()</text>
<text text-anchor="start" x="3318" y="-68.3" font-family="Times New Roman,serif" font-size="14.00">__init__(input: list[str], upload_queue: Queue, parsers: list, processors: dict)</text>
<text text-anchor="start" x="3318" y="-53.3" font-family="Times New Roman,serif" font-size="14.00">close()</text>
<text text-anchor="start" x="3318" y="-38.3" font-family="Times New Roman,serif" font-size="14.00">pipeline(text: dict)</text>
<text text-anchor="start" x="3318" y="-23.3" font-family="Times New Roman,serif" font-size="14.00">run()</text>
<text text-anchor="start" x="3318" y="-8.3" font-family="Times New Roman,serif" font-size="14.00">toQueue(result)</text>
</g>
<!-- threading.Thread -->
<g id="node16" class="node">
<title>threading.Thread</title>
<polygon fill="none" stroke="black" points="3402.5,-286.5 3402.5,-910.5 3660.5,-910.5 3660.5,-286.5 3402.5,-286.5"/>
<text text-anchor="start" x="3511.5" y="-895.3" font-family="Times New Roman,serif" font-size="14.00">Thread</text>
<polyline fill="none" stroke="black" points="3402.5,-887.5 3660.5,-887.5"/>
<text text-anchor="start" x="3458.5" y="-872.3" font-family="Times New Roman,serif" font-size="14.00">_args : tuple</text>
<text text-anchor="start" x="3458.5" y="-857.3" font-family="Times New Roman,serif" font-size="14.00">_daemonic : bool</text>
<text text-anchor="start" x="3458.5" y="-842.3" font-family="Times New Roman,serif" font-size="14.00">_ident : NoneType</text>
<text text-anchor="start" x="3458.5" y="-827.3" font-family="Times New Roman,serif" font-size="14.00">_initialized : bool</text>
<text text-anchor="start" x="3458.5" y="-812.3" font-family="Times New Roman,serif" font-size="14.00">_initialized : bool</text>
<text text-anchor="start" x="3458.5" y="-797.3" font-family="Times New Roman,serif" font-size="14.00">_invoke_excepthook</text>
<text text-anchor="start" x="3458.5" y="-782.3" font-family="Times New Roman,serif" font-size="14.00">_is_stopped : bool</text>
<text text-anchor="start" x="3458.5" y="-767.3" font-family="Times New Roman,serif" font-size="14.00">_kwargs : NoneType, dict</text>
<text text-anchor="start" x="3458.5" y="-752.3" font-family="Times New Roman,serif" font-size="14.00">_name : str, NoneType</text>
<text text-anchor="start" x="3458.5" y="-737.3" font-family="Times New Roman,serif" font-size="14.00">_native_id : NoneType</text>
<text text-anchor="start" x="3458.5" y="-722.3" font-family="Times New Roman,serif" font-size="14.00">_started : Event</text>
<text text-anchor="start" x="3458.5" y="-707.3" font-family="Times New Roman,serif" font-size="14.00">_stderr : TextIOWrapper</text>
<text text-anchor="start" x="3458.5" y="-692.3" font-family="Times New Roman,serif" font-size="14.00">_target : NoneType</text>
<text text-anchor="start" x="3458.5" y="-677.3" font-family="Times New Roman,serif" font-size="14.00">_tstate_lock : NoneType</text>
<text text-anchor="start" x="3458.5" y="-662.3" font-family="Times New Roman,serif" font-size="14.00">daemon</text>
<text text-anchor="start" x="3458.5" y="-647.3" font-family="Times New Roman,serif" font-size="14.00">daemon : bool</text>
<text text-anchor="start" x="3458.5" y="-632.3" font-family="Times New Roman,serif" font-size="14.00">ident</text>
<text text-anchor="start" x="3458.5" y="-617.3" font-family="Times New Roman,serif" font-size="14.00">name</text>
<text text-anchor="start" x="3458.5" y="-602.3" font-family="Times New Roman,serif" font-size="14.00">name</text>
<text text-anchor="start" x="3458.5" y="-587.3" font-family="Times New Roman,serif" font-size="14.00">native_id</text>
<polyline fill="none" stroke="black" points="3402.5,-579.5 3660.5,-579.5"/>
<text text-anchor="start" x="3410.5" y="-564.3" font-family="Times New Roman,serif" font-size="14.00">__init__(group, target, name, args, kwargs)</text>
<text text-anchor="start" x="3410.5" y="-549.3" font-family="Times New Roman,serif" font-size="14.00">__repr__()</text>
<text text-anchor="start" x="3410.5" y="-534.3" font-family="Times New Roman,serif" font-size="14.00">_bootstrap()</text>
<text text-anchor="start" x="3410.5" y="-519.3" font-family="Times New Roman,serif" font-size="14.00">_bootstrap_inner()</text>
<text text-anchor="start" x="3410.5" y="-504.3" font-family="Times New Roman,serif" font-size="14.00">_delete()</text>
<text text-anchor="start" x="3410.5" y="-489.3" font-family="Times New Roman,serif" font-size="14.00">_reset_internal_locks(is_alive)</text>
<text text-anchor="start" x="3410.5" y="-474.3" font-family="Times New Roman,serif" font-size="14.00">_set_ident()</text>
<text text-anchor="start" x="3410.5" y="-459.3" font-family="Times New Roman,serif" font-size="14.00">_set_native_id()</text>
<text text-anchor="start" x="3410.5" y="-444.3" font-family="Times New Roman,serif" font-size="14.00">_set_tstate_lock()</text>
<text text-anchor="start" x="3410.5" y="-429.3" font-family="Times New Roman,serif" font-size="14.00">_stop()</text>
<text text-anchor="start" x="3410.5" y="-414.3" font-family="Times New Roman,serif" font-size="14.00">_wait_for_tstate_lock(block, timeout)</text>
<text text-anchor="start" x="3410.5" y="-399.3" font-family="Times New Roman,serif" font-size="14.00">getName()</text>
<text text-anchor="start" x="3410.5" y="-384.3" font-family="Times New Roman,serif" font-size="14.00">isDaemon()</text>
<text text-anchor="start" x="3410.5" y="-369.3" font-family="Times New Roman,serif" font-size="14.00">is_alive()</text>
<text text-anchor="start" x="3410.5" y="-354.3" font-family="Times New Roman,serif" font-size="14.00">join(timeout)</text>
<text text-anchor="start" x="3410.5" y="-339.3" font-family="Times New Roman,serif" font-size="14.00">run()</text>
<text text-anchor="start" x="3410.5" y="-324.3" font-family="Times New Roman,serif" font-size="14.00">setDaemon(daemonic)</text>
<text text-anchor="start" x="3410.5" y="-309.3" font-family="Times New Roman,serif" font-size="14.00">setName(name)</text>
<text text-anchor="start" x="3410.5" y="-294.3" font-family="Times New Roman,serif" font-size="14.00">start()</text>
</g>
<!-- FileProcessing.DocumentBuilder.DocumentBuilder&#45;&gt;threading.Thread -->
<g id="edge5" class="edge">
<title>FileProcessing.DocumentBuilder.DocumentBuilder&#45;&gt;threading.Thread</title>
<path fill="none" stroke="black" d="M3531.5,-234.45C3531.5,-247.45 3531.5,-261.12 3531.5,-275.22"/>
<polygon fill="none" stroke="black" points="3528,-275.11 3531.5,-285.11 3535,-275.11 3528,-275.11"/>
</g>
<!-- FileProcessing.Processors.Hops.Hops -->
<g id="node5" class="node">
<title>FileProcessing.Processors.Hops.Hops</title>
<polygon fill="none" stroke="black" points="488.5,-83 488.5,-152 926.5,-152 926.5,-83 488.5,-83"/>
<text text-anchor="start" x="692" y="-136.8" font-family="Times New Roman,serif" font-size="14.00">Hops</text>
<polyline fill="none" stroke="black" points="488.5,-129 926.5,-129"/>
<polyline fill="none" stroke="black" points="488.5,-106 926.5,-106"/>
<text text-anchor="start" x="496.5" y="-91.8" font-family="Times New Roman,serif" font-style="italic" font-size="14.00">deprel</text>
<text text-anchor="start" x="533.5" y="-91.8" font-family="Times New Roman,serif" font-size="14.00">(document: Document.LemmatizedDocument): Document.Document</text>
</g>
<!-- FileProcessing.Processors.Hops.Hops&#45;&gt;FileProcessing.ProcessorInterfaces.DeprelAnalyzerInterface -->
<g id="edge9" class="edge">
<title>FileProcessing.Processors.Hops.Hops&#45;&gt;FileProcessing.ProcessorInterfaces.DeprelAnalyzerInterface</title>
<path fill="none" stroke="black" d="M731.9,-151.8C792.75,-234.84 951.41,-451.35 1022.79,-548.77"/>
<polygon fill="none" stroke="black" points="1019.79,-550.6 1028.52,-556.59 1025.44,-546.46 1019.79,-550.6"/>
</g>
<!-- FileProcessing.Document.TaggedDocument -->
<g id="node15" class="node">
<title>FileProcessing.Document.TaggedDocument</title>
<polygon fill="none" stroke="black" points="2368,-948.5 2368,-1017.5 2585,-1017.5 2585,-948.5 2368,-948.5"/>
<text text-anchor="start" x="2426.5" y="-1002.3" font-family="Times New Roman,serif" font-size="14.00">TaggedDocument</text>
<polyline fill="none" stroke="black" points="2368,-994.5 2585,-994.5"/>
<polyline fill="none" stroke="black" points="2368,-971.5 2585,-971.5"/>
<text text-anchor="start" x="2376" y="-956.3" font-family="Times New Roman,serif" font-size="14.00">__init__(doc: TokenizedDocument)</text>
</g>
<!-- FileProcessing.Document.LemmatizedDocument&#45;&gt;FileProcessing.Document.TaggedDocument -->
<g id="edge2" class="edge">
<title>FileProcessing.Document.LemmatizedDocument&#45;&gt;FileProcessing.Document.TaggedDocument</title>
<path fill="none" stroke="black" d="M2476.5,-632.78C2476.5,-701.58 2476.5,-859.56 2476.5,-937.23"/>
<polygon fill="none" stroke="black" points="2473,-937.02 2476.5,-947.02 2480,-937.02 2473,-937.02"/>
</g>
<!-- FileProcessing.ProcessorInterfaces.LemmatizerInterface -->
<g id="node7" class="node">
<title>FileProcessing.ProcessorInterfaces.LemmatizerInterface</title>
<polygon fill="none" stroke="black" points="1980.5,-557.5 1980.5,-639.5 2358.5,-639.5 2358.5,-557.5 1980.5,-557.5"/>
<text text-anchor="start" x="2112.5" y="-624.3" font-family="Times New Roman,serif" font-size="14.00">LemmatizerInterface</text>
<polyline fill="none" stroke="black" points="1980.5,-616.5 2358.5,-616.5"/>
<polyline fill="none" stroke="black" points="1980.5,-593.5 2358.5,-593.5"/>
<text text-anchor="start" x="1988.5" y="-579.3" font-family="Times New Roman,serif" font-size="14.00">__subclasshook__(subclass)</text>
<text text-anchor="start" x="1988.5" y="-565.3" font-family="Times New Roman,serif" font-style="italic" font-size="14.00">lemmatize</text>
<text text-anchor="start" x="2046.5" y="-565.3" font-family="Times New Roman,serif" font-size="14.00">(document: TaggedDocument): LemmatizedDocument</text>
</g>
<!-- FileProcessing.Processors.NLTK.NLTK -->
<g id="node8" class="node">
<title>FileProcessing.Processors.NLTK.NLTK</title>
<polygon fill="none" stroke="black" points="945,-23 945,-212 1408,-212 1408,-23 945,-23"/>
<text text-anchor="start" x="1158" y="-196.8" font-family="Times New Roman,serif" font-size="14.00">NLTK</text>
<polyline fill="none" stroke="black" points="945,-189 1408,-189"/>
<text text-anchor="start" x="1074" y="-173.8" font-family="Times New Roman,serif" font-size="14.00">parser : CoreNLPDependencyParser</text>
<text text-anchor="start" x="1074" y="-158.8" font-family="Times New Roman,serif" font-size="14.00">server : Popen</text>
<text text-anchor="start" x="1074" y="-143.8" font-family="Times New Roman,serif" font-size="14.00">splitter</text>
<text text-anchor="start" x="1074" y="-128.8" font-family="Times New Roman,serif" font-size="14.00">tagger : CoreNLPDependencyParser</text>
<polyline fill="none" stroke="black" points="945,-121 1408,-121"/>
<text text-anchor="start" x="953" y="-105.8" font-family="Times New Roman,serif" font-size="14.00">__del__()</text>
<text text-anchor="start" x="953" y="-90.8" font-family="Times New Roman,serif" font-size="14.00">__init__()</text>
<text text-anchor="start" x="953" y="-75.8" font-family="Times New Roman,serif" font-size="14.00">close()</text>
<text text-anchor="start" x="953" y="-60.8" font-family="Times New Roman,serif" font-size="14.00">deprel(document: Document.LemmatizedDocument): Document</text>
<text text-anchor="start" x="953" y="-45.8" font-family="Times New Roman,serif" font-size="14.00">tag(document: Document.TokenizedDocument): Document.TaggedDocument</text>
<text text-anchor="start" x="953" y="-30.8" font-family="Times New Roman,serif" font-size="14.00">tokenize(document: Document.RawDocument): Document.TokenizedDocument</text>
</g>
<!-- FileProcessing.Processors.NLTK.NLTK&#45;&gt;FileProcessing.ProcessorInterfaces.DeprelAnalyzerInterface -->
<g id="edge10" class="edge">
<title>FileProcessing.Processors.NLTK.NLTK&#45;&gt;FileProcessing.ProcessorInterfaces.DeprelAnalyzerInterface</title>
<path fill="none" stroke="black" d="M1153.47,-211.99C1128.82,-312.03 1090.64,-467.02 1071.04,-546.58"/>
<polygon fill="none" stroke="black" points="1067.65,-545.73 1068.65,-556.28 1074.44,-547.41 1067.65,-545.73"/>
</g>
<!-- FileProcessing.ProcessorInterfaces.PosTaggerInterface -->
<g id="node10" class="node">
<title>FileProcessing.ProcessorInterfaces.PosTaggerInterface</title>
<polygon fill="none" stroke="black" points="1592.5,-557.5 1592.5,-639.5 1922.5,-639.5 1922.5,-557.5 1592.5,-557.5"/>
<text text-anchor="start" x="1702.5" y="-624.3" font-family="Times New Roman,serif" font-size="14.00">PosTaggerInterface</text>
<polyline fill="none" stroke="black" points="1592.5,-616.5 1922.5,-616.5"/>
<polyline fill="none" stroke="black" points="1592.5,-593.5 1922.5,-593.5"/>
<text text-anchor="start" x="1600.5" y="-579.3" font-family="Times New Roman,serif" font-size="14.00">__subclasshook__(subclass)</text>
<text text-anchor="start" x="1600.5" y="-565.3" font-family="Times New Roman,serif" font-style="italic" font-size="14.00">tag</text>
<text text-anchor="start" x="1619.5" y="-565.3" font-family="Times New Roman,serif" font-size="14.00">(document: TokenizedDocument): TaggedDocument</text>
</g>
<!-- FileProcessing.Processors.NLTK.NLTK&#45;&gt;FileProcessing.ProcessorInterfaces.PosTaggerInterface -->
<g id="edge11" class="edge">
<title>FileProcessing.Processors.NLTK.NLTK&#45;&gt;FileProcessing.ProcessorInterfaces.PosTaggerInterface</title>
<path fill="none" stroke="black" d="M1361.61,-211.86C1379.99,-220.07 1398.5,-227.93 1416.5,-235 1488.74,-263.36 1523.1,-237.27 1583.5,-286 1669.07,-355.04 1719.63,-478.1 1742.59,-547.07"/>
<polygon fill="none" stroke="black" points="1739.15,-547.8 1745.57,-556.22 1745.8,-545.63 1739.15,-547.8"/>
</g>
<!-- FileProcessing.ProcessorInterfaces.TokenizerInterface -->
<g id="node18" class="node">
<title>FileProcessing.ProcessorInterfaces.TokenizerInterface</title>
<polygon fill="none" stroke="black" points="1234.5,-557.5 1234.5,-639.5 1574.5,-639.5 1574.5,-557.5 1234.5,-557.5"/>
<text text-anchor="start" x="1352" y="-624.3" font-family="Times New Roman,serif" font-size="14.00">TokenizerInterface</text>
<polyline fill="none" stroke="black" points="1234.5,-616.5 1574.5,-616.5"/>
<polyline fill="none" stroke="black" points="1234.5,-593.5 1574.5,-593.5"/>
<text text-anchor="start" x="1242.5" y="-579.3" font-family="Times New Roman,serif" font-size="14.00">__subclasshook__(subclass)</text>
<text text-anchor="start" x="1242.5" y="-565.3" font-family="Times New Roman,serif" font-style="italic" font-size="14.00">tokenize</text>
<text text-anchor="start" x="1288.5" y="-565.3" font-family="Times New Roman,serif" font-size="14.00">(document: RawDocument): TokenizedDocument</text>
</g>
<!-- FileProcessing.Processors.NLTK.NLTK&#45;&gt;FileProcessing.ProcessorInterfaces.TokenizerInterface -->
<g id="edge12" class="edge">
<title>FileProcessing.Processors.NLTK.NLTK&#45;&gt;FileProcessing.ProcessorInterfaces.TokenizerInterface</title>
<path fill="none" stroke="black" d="M1221,-211.99C1268.81,-312.44 1343,-468.29 1380.72,-547.55"/>
<polygon fill="none" stroke="black" points="1377.47,-548.86 1384.93,-556.38 1383.79,-545.85 1377.47,-548.86"/>
</g>
<!-- FileProcessing.Document.RawDocument -->
<g id="node12" class="node">
<title>FileProcessing.Document.RawDocument</title>
<polygon fill="none" stroke="black" points="2380.5,-1177.5 2380.5,-1291.5 2572.5,-1291.5 2572.5,-1177.5 2380.5,-1177.5"/>
<text text-anchor="start" x="2434.5" y="-1276.3" font-family="Times New Roman,serif" font-size="14.00">RawDocument</text>
<polyline fill="none" stroke="black" points="2380.5,-1268.5 2572.5,-1268.5"/>
<text text-anchor="start" x="2443" y="-1253.3" font-family="Times New Roman,serif" font-size="14.00">content : str</text>
<text text-anchor="start" x="2443" y="-1238.3" font-family="Times New Roman,serif" font-size="14.00">name : str</text>
<polyline fill="none" stroke="black" points="2380.5,-1230.5 2572.5,-1230.5"/>
<text text-anchor="start" x="2388.5" y="-1215.3" font-family="Times New Roman,serif" font-size="14.00">__init__(name: str, content: str)</text>
<text text-anchor="start" x="2388.5" y="-1200.3" font-family="Times New Roman,serif" font-size="14.00">__iter__()</text>
<text text-anchor="start" x="2388.5" y="-1185.3" font-family="Times New Roman,serif" font-size="14.00">__repr__()</text>
</g>
<!-- FileProcessing.Processors.Spacy.Spacy -->
<g id="node13" class="node">
<title>FileProcessing.Processors.Spacy.Spacy</title>
<polygon fill="none" stroke="black" points="1426,-45.5 1426,-189.5 1923,-189.5 1923,-45.5 1426,-45.5"/>
<text text-anchor="start" x="1656.5" y="-174.3" font-family="Times New Roman,serif" font-size="14.00">Spacy</text>
<polyline fill="none" stroke="black" points="1426,-166.5 1923,-166.5"/>
<text text-anchor="start" x="1645.5" y="-151.3" font-family="Times New Roman,serif" font-size="14.00">nlp</text>
<text text-anchor="start" x="1645.5" y="-136.3" font-family="Times New Roman,serif" font-size="14.00">spacyDoc</text>
<polyline fill="none" stroke="black" points="1426,-128.5 1923,-128.5"/>
<text text-anchor="start" x="1434" y="-113.3" font-family="Times New Roman,serif" font-size="14.00">__init__()</text>
<text text-anchor="start" x="1434" y="-98.3" font-family="Times New Roman,serif" font-size="14.00">deprel(document: Document.LemmatizedDocument): Document</text>
<text text-anchor="start" x="1434" y="-83.3" font-family="Times New Roman,serif" font-size="14.00">lemmatize(document: Document.TaggedDocument): Document.LemmatizedDocument</text>
<text text-anchor="start" x="1434" y="-68.3" font-family="Times New Roman,serif" font-size="14.00">tag(document: Document.TokenizedDocument): Document.TaggedDocument</text>
<text text-anchor="start" x="1434" y="-53.3" font-family="Times New Roman,serif" font-size="14.00">tokenize(document: Document.RawDocument): Document.TokenizedDocument</text>
</g>
<!-- FileProcessing.Processors.Spacy.Spacy&#45;&gt;FileProcessing.ProcessorInterfaces.DeprelAnalyzerInterface -->
<g id="edge13" class="edge">
<title>FileProcessing.Processors.Spacy.Spacy&#45;&gt;FileProcessing.ProcessorInterfaces.DeprelAnalyzerInterface</title>
<path fill="none" stroke="black" d="M1528.51,-189.41C1492.37,-205.57 1453.42,-221.84 1416.5,-235 1333.74,-264.51 1294.38,-231.45 1225.5,-286 1140,-353.71 1092.72,-477.56 1071.81,-546.95"/>
<polygon fill="none" stroke="black" points="1068.56,-545.57 1069.1,-556.15 1075.28,-547.54 1068.56,-545.57"/>
</g>
<!-- FileProcessing.Processors.Spacy.Spacy&#45;&gt;FileProcessing.ProcessorInterfaces.LemmatizerInterface -->
<g id="edge14" class="edge">
<title>FileProcessing.Processors.Spacy.Spacy&#45;&gt;FileProcessing.ProcessorInterfaces.LemmatizerInterface</title>
<path fill="none" stroke="black" d="M1801.65,-189.35C1845.18,-216.63 1892.65,-249.96 1931.5,-286 2018.82,-367.02 2097.98,-482.85 2139.33,-548.03"/>
<polygon fill="none" stroke="black" points="2136.3,-549.78 2144.59,-556.37 2142.22,-546.05 2136.3,-549.78"/>
</g>
<!-- FileProcessing.Processors.Spacy.Spacy&#45;&gt;FileProcessing.ProcessorInterfaces.PosTaggerInterface -->
<g id="edge15" class="edge">
<title>FileProcessing.Processors.Spacy.Spacy&#45;&gt;FileProcessing.ProcessorInterfaces.PosTaggerInterface</title>
<path fill="none" stroke="black" d="M1686.79,-189.44C1703.7,-287.04 1733.74,-460.39 1748.63,-546.31"/>
<polygon fill="none" stroke="black" points="1745.17,-546.84 1750.33,-556.09 1752.07,-545.64 1745.17,-546.84"/>
</g>
<!-- FileProcessing.Processors.Spacy.Spacy&#45;&gt;FileProcessing.ProcessorInterfaces.TokenizerInterface -->
<g id="edge16" class="edge">
<title>FileProcessing.Processors.Spacy.Spacy&#45;&gt;FileProcessing.ProcessorInterfaces.TokenizerInterface</title>
<path fill="none" stroke="black" d="M1634.52,-189.44C1579.22,-287.54 1480.78,-462.16 1432.62,-547.62"/>
<polygon fill="none" stroke="black" points="1429.6,-545.84 1427.74,-556.27 1435.7,-549.27 1429.6,-545.84"/>
</g>
<!-- FileProcessing.Parsers.TXT.TXT -->
<g id="node14" class="node">
<title>FileProcessing.Parsers.TXT.TXT</title>
<polygon fill="none" stroke="black" points="231,-83 231,-152 470,-152 470,-83 231,-83"/>
<text text-anchor="start" x="336.5" y="-136.8" font-family="Times New Roman,serif" font-size="14.00">TXT</text>
<polyline fill="none" stroke="black" points="231,-129 470,-129"/>
<text text-anchor="start" x="308" y="-113.8" font-family="Times New Roman,serif" font-size="14.00">extensions : list</text>
<polyline fill="none" stroke="black" points="231,-106 470,-106"/>
<text text-anchor="start" x="239" y="-90.8" font-family="Times New Roman,serif" font-size="14.00">parse(txt: str, name: str): RawDocument</text>
</g>
<!-- FileProcessing.Parsers.TXT.TXT&#45;&gt;FileProcessing.ParserInterfaces.ParserInterface -->
<g id="edge8" class="edge">
<title>FileProcessing.Parsers.TXT.TXT&#45;&gt;FileProcessing.ParserInterfaces.ParserInterface</title>
<path fill="none" stroke="black" d="M349.25,-151.8C346.15,-234.17 338.12,-447.87 334.42,-546.39"/>
<polygon fill="none" stroke="black" points="330.93,-546.18 334.05,-556.3 337.92,-546.44 330.93,-546.18"/>
</g>
<!-- FileProcessing.Document.TokenizedDocument -->
<g id="node17" class="node">
<title>FileProcessing.Document.TokenizedDocument</title>
<polygon fill="none" stroke="black" points="2305.5,-1055.5 2305.5,-1139.5 2647.5,-1139.5 2647.5,-1055.5 2305.5,-1055.5"/>
<text text-anchor="start" x="2418" y="-1124.3" font-family="Times New Roman,serif" font-size="14.00">TokenizedDocument</text>
<polyline fill="none" stroke="black" points="2305.5,-1116.5 2647.5,-1116.5"/>
<polyline fill="none" stroke="black" points="2305.5,-1093.5 2647.5,-1093.5"/>
<text text-anchor="start" x="2313.5" y="-1078.3" font-family="Times New Roman,serif" font-size="14.00">__init__(doc: RawDocument)</text>
<text text-anchor="start" x="2313.5" y="-1063.3" font-family="Times New Roman,serif" font-size="14.00">_check_arguments(type: Callable, doc, expectedArgs: set)</text>
</g>
<!-- FileProcessing.Document.TaggedDocument&#45;&gt;FileProcessing.Document.TokenizedDocument -->
<g id="edge3" class="edge">
<title>FileProcessing.Document.TaggedDocument&#45;&gt;FileProcessing.Document.TokenizedDocument</title>
<path fill="none" stroke="black" d="M2476.5,-1017.45C2476.5,-1025.92 2476.5,-1035.22 2476.5,-1044.38"/>
<polygon fill="none" stroke="black" points="2473,-1044.31 2476.5,-1054.31 2480,-1044.31 2473,-1044.31"/>
</g>
<!-- FileProcessing.Document.TokenizedDocument&#45;&gt;FileProcessing.Document.RawDocument -->
<g id="edge4" class="edge">
<title>FileProcessing.Document.TokenizedDocument&#45;&gt;FileProcessing.Document.RawDocument</title>
<path fill="none" stroke="black" d="M2476.5,-1139.37C2476.5,-1147.98 2476.5,-1157.27 2476.5,-1166.55"/>
<polygon fill="none" stroke="black" points="2473,-1166.31 2476.5,-1176.31 2480,-1166.31 2473,-1166.31"/>
</g>
<!-- FileProcessing.Processors.TreeTagger.TreeTagger -->
<g id="node19" class="node">
<title>FileProcessing.Processors.TreeTagger.TreeTagger</title>
<polygon fill="none" stroke="black" points="1941,-45.5 1941,-189.5 2438,-189.5 2438,-45.5 1941,-45.5"/>
<text text-anchor="start" x="2157" y="-174.3" font-family="Times New Roman,serif" font-size="14.00">TreeTagger</text>
<polyline fill="none" stroke="black" points="1941,-166.5 2438,-166.5"/>
<text text-anchor="start" x="2135" y="-151.3" font-family="Times New Roman,serif" font-size="14.00">mk_tags</text>
<text text-anchor="start" x="2135" y="-136.3" font-family="Times New Roman,serif" font-size="14.00">tagger : TreeTagger</text>
<polyline fill="none" stroke="black" points="1941,-128.5 2438,-128.5"/>
<text text-anchor="start" x="1949" y="-113.3" font-family="Times New Roman,serif" font-size="14.00">__init__()</text>
<text text-anchor="start" x="1949" y="-98.3" font-family="Times New Roman,serif" font-size="14.00">_convert_tagset(tags: list)</text>
<text text-anchor="start" x="1949" y="-83.3" font-family="Times New Roman,serif" font-size="14.00">close()</text>
<text text-anchor="start" x="1949" y="-68.3" font-family="Times New Roman,serif" font-size="14.00">lemmatize(document: Document.TaggedDocument): Document.LemmatizedDocument</text>
<text text-anchor="start" x="1949" y="-53.3" font-family="Times New Roman,serif" font-size="14.00">tag(document: Document.TokenizedDocument): Document.TaggedDocument</text>
</g>
<!-- FileProcessing.Processors.TreeTagger.TreeTagger&#45;&gt;FileProcessing.ProcessorInterfaces.LemmatizerInterface -->
<g id="edge17" class="edge">
<title>FileProcessing.Processors.TreeTagger.TreeTagger&#45;&gt;FileProcessing.ProcessorInterfaces.LemmatizerInterface</title>
<path fill="none" stroke="black" d="M2186.54,-189.44C2182.46,-287.04 2175.22,-460.39 2171.64,-546.31"/>
<polygon fill="none" stroke="black" points="2168.15,-545.93 2171.23,-556.07 2175.14,-546.23 2168.15,-545.93"/>
</g>
<!-- FileProcessing.Processors.TreeTagger.TreeTagger&#45;&gt;FileProcessing.ProcessorInterfaces.PosTaggerInterface -->
<g id="edge18" class="edge">
<title>FileProcessing.Processors.TreeTagger.TreeTagger&#45;&gt;FileProcessing.ProcessorInterfaces.PosTaggerInterface</title>
<path fill="none" stroke="black" d="M2083.56,-189.47C2046,-217.24 2004.83,-250.85 1971.5,-286 1892.87,-368.93 1822.17,-483.22 1785.01,-547.8"/>
<polygon fill="none" stroke="black" points="1782.01,-545.99 1780.09,-556.41 1788.09,-549.46 1782.01,-545.99"/>
</g>
<!-- FileProcessing.UploadMachine.UploadMachine -->
<g id="node20" class="node">
<title>FileProcessing.UploadMachine.UploadMachine</title>
<polygon fill="none" stroke="black" points="3771,-0.5 3771,-234.5 4120,-234.5 4120,-0.5 3771,-0.5"/>
<text text-anchor="start" x="3901" y="-219.3" font-family="Times New Roman,serif" font-size="14.00">UploadMachine</text>
<polyline fill="none" stroke="black" points="3771,-211.5 4120,-211.5"/>
<text text-anchor="start" x="3879.5" y="-196.3" font-family="Times New Roman,serif" font-size="14.00">connection_pool : Pool</text>
<text text-anchor="start" x="3879.5" y="-181.3" font-family="Times New Roman,serif" font-size="14.00">forms_lock : Lock</text>
<text text-anchor="start" x="3879.5" y="-166.3" font-family="Times New Roman,serif" font-size="14.00">lemmas_lock : Lock</text>
<text text-anchor="start" x="3879.5" y="-151.3" font-family="Times New Roman,serif" font-size="14.00">loop</text>
<text text-anchor="start" x="3879.5" y="-136.3" font-family="Times New Roman,serif" font-size="14.00">queue : Queue</text>
<text text-anchor="start" x="3879.5" y="-121.3" font-family="Times New Roman,serif" font-size="14.00">sentences_lock : Lock</text>
<text text-anchor="start" x="3879.5" y="-106.3" font-family="Times New Roman,serif" font-size="14.00">tasks</text>
<text text-anchor="start" x="3879.5" y="-91.3" font-family="Times New Roman,serif" font-size="14.00">to_treat : int</text>
<text text-anchor="start" x="3879.5" y="-76.3" font-family="Times New Roman,serif" font-size="14.00">tokens_lock : Lock</text>
<text text-anchor="start" x="3879.5" y="-61.3" font-family="Times New Roman,serif" font-size="14.00">user_id : int</text>
<polyline fill="none" stroke="black" points="3771,-53.5 4120,-53.5"/>
<text text-anchor="start" x="3779" y="-38.3" font-family="Times New Roman,serif" font-size="14.00">__init__(to_treat: int, user_id: int, connection_params: dict)</text>
<text text-anchor="start" x="3779" y="-23.3" font-family="Times New Roman,serif" font-size="14.00">run()</text>
<text text-anchor="start" x="3779" y="-8.3" font-family="Times New Roman,serif" font-size="14.00">worker()</text>
</g>
</g>
</svg>
