<?xml version="1.0" encoding="UTF-8" standalone="no"?>
<!DOCTYPE svg PUBLIC "-//W3C//DTD SVG 1.1//EN"
 "http://www.w3.org/Graphics/SVG/1.1/DTD/svg11.dtd">
<!-- Generated by graphviz version 7.1.0 (20230121.1956)
 -->
<!-- Title: classes_InputProcessing Pages: 1 -->
<svg width="3739pt" height="1315pt"
 viewBox="0.00 0.00 3739.00 1315.00" xmlns="http://www.w3.org/2000/svg" xmlns:xlink="http://www.w3.org/1999/xlink">
<g id="graph0" class="graph" transform="scale(1 1) rotate(0) translate(4 1311)">
<title>classes_InputProcessing</title>
<polygon fill="white" stroke="none" points="-4,4 -4,-1311 3735,-1311 3735,4 -4,4"/>
<!-- InputProcessing.ProcessorInterfaces.DeprelAnalyzerInterface -->
<g id="node1" class="node">
<title>InputProcessing.ProcessorInterfaces.DeprelAnalyzerInterface</title>
<polygon fill="none" stroke="black" points="368.5,-572.5 368.5,-654.5 683.5,-654.5 683.5,-572.5 368.5,-572.5"/>
<text text-anchor="start" x="458.5" y="-639.3" font-family="Times New Roman,serif" font-size="14.00">DeprelAnalyzerInterface</text>
<polyline fill="none" stroke="black" points="368.5,-631.5 683.5,-631.5"/>
<polyline fill="none" stroke="black" points="368.5,-608.5 683.5,-608.5"/>
<text text-anchor="start" x="376.5" y="-594.3" font-family="Times New Roman,serif" font-size="14.00">__subclasshook__(subclass)</text>
<text text-anchor="start" x="376.5" y="-580.3" font-family="Times New Roman,serif" font-style="italic" font-size="14.00">deprel</text>
<text text-anchor="start" x="413.5" y="-580.3" font-family="Times New Roman,serif" font-size="14.00">(document: LemmatizedDocument): Document</text>
</g>
<!-- InputProcessing.Document.Document -->
<g id="node2" class="node">
<title>InputProcessing.Document.Document</title>
<polygon fill="none" stroke="black" points="2227,-90.5 2227,-159.5 2453,-159.5 2453,-90.5 2227,-90.5"/>
<text text-anchor="start" x="2311" y="-144.3" font-family="Times New Roman,serif" font-size="14.00">Document</text>
<polyline fill="none" stroke="black" points="2227,-136.5 2453,-136.5"/>
<polyline fill="none" stroke="black" points="2227,-113.5 2453,-113.5"/>
<text text-anchor="start" x="2235" y="-98.3" font-family="Times New Roman,serif" font-size="14.00">__init__(doc: LemmatizedDocument)</text>
</g>
<!-- InputProcessing.Document.LemmatizedDocument -->
<g id="node5" class="node">
<title>InputProcessing.Document.LemmatizedDocument</title>
<polygon fill="none" stroke="black" points="1875,-579 1875,-648 2075,-648 2075,-579 1875,-579"/>
<text text-anchor="start" x="1912" y="-632.8" font-family="Times New Roman,serif" font-size="14.00">LemmatizedDocument</text>
<polyline fill="none" stroke="black" points="1875,-625 2075,-625"/>
<polyline fill="none" stroke="black" points="1875,-602 2075,-602"/>
<text text-anchor="start" x="1883" y="-586.8" font-family="Times New Roman,serif" font-size="14.00">__init__(doc: TaggedDocument)</text>
</g>
<!-- InputProcessing.Document.Document&#45;&gt;InputProcessing.Document.LemmatizedDocument -->
<g id="edge1" class="edge">
<title>InputProcessing.Document.Document&#45;&gt;InputProcessing.Document.LemmatizedDocument</title>
<path fill="none" stroke="black" d="M2267.63,-159.39C2210.46,-189.15 2132.47,-237.76 2084,-301 2021.2,-382.94 1992.81,-503.85 1981.5,-568.28"/>
<polygon fill="none" stroke="black" points="1978.11,-567.32 1979.89,-577.76 1985.01,-568.48 1978.11,-567.32"/>
</g>
<!-- InputProcessing.UploadTask.UploadTask -->
<g id="node19" class="node">
<title>InputProcessing.UploadTask.UploadTask</title>
<polygon fill="none" stroke="black" points="2093.5,-481.5 2093.5,-745.5 2882.5,-745.5 2882.5,-481.5 2093.5,-481.5"/>
<text text-anchor="start" x="2453" y="-730.3" font-family="Times New Roman,serif" font-size="14.00">UploadTask</text>
<polyline fill="none" stroke="black" points="2093.5,-722.5 2882.5,-722.5"/>
<text text-anchor="start" x="2445" y="-707.3" font-family="Times New Roman,serif" font-size="14.00">document</text>
<text text-anchor="start" x="2445" y="-692.3" font-family="Times New Roman,serif" font-size="14.00">forms_lock</text>
<text text-anchor="start" x="2445" y="-677.3" font-family="Times New Roman,serif" font-size="14.00">lemmas_lock</text>
<text text-anchor="start" x="2445" y="-662.3" font-family="Times New Roman,serif" font-size="14.00">pool : Pool</text>
<text text-anchor="start" x="2445" y="-647.3" font-family="Times New Roman,serif" font-size="14.00">sentences_lock</text>
<text text-anchor="start" x="2445" y="-632.3" font-family="Times New Roman,serif" font-size="14.00">tokens_lock</text>
<text text-anchor="start" x="2445" y="-617.3" font-family="Times New Roman,serif" font-size="14.00">user_id : int</text>
<polyline fill="none" stroke="black" points="2093.5,-609.5 2882.5,-609.5"/>
<text text-anchor="start" x="2101.5" y="-594.3" font-family="Times New Roman,serif" font-size="14.00">__init__(user_id: int, doc: Document, pool: aiomysql.Pool, forms_lock, lemmas_lock, sentences_lock, tokens_lock)</text>
<text text-anchor="start" x="2101.5" y="-579.3" font-family="Times New Roman,serif" font-size="14.00">insert_document(cursor: aiomysql.SSCursor): tuple</text>
<text text-anchor="start" x="2101.5" y="-564.3" font-family="Times New Roman,serif" font-size="14.00">insert_forms(cursor: aiomysql.SSCursor, forms: list[str])</text>
<text text-anchor="start" x="2101.5" y="-549.3" font-family="Times New Roman,serif" font-size="14.00">insert_in_collection(cursor: aiomysql.SSCursor, document_id: int)</text>
<text text-anchor="start" x="2101.5" y="-534.3" font-family="Times New Roman,serif" font-size="14.00">insert_lemmas(cursor: aiomysql.SSCursor, lemma_form_ids, lemma_pos)</text>
<text text-anchor="start" x="2101.5" y="-519.3" font-family="Times New Roman,serif" font-size="14.00">insert_sentences(cursor: aiomysql.SSCursor, text_id, sentence_doc_ind)</text>
<text text-anchor="start" x="2101.5" y="-504.3" font-family="Times New Roman,serif" font-size="14.00">insert_tokens(cursor: aiomysql.SSCursor, token_sent_ind, token_doc_ind, token_form, lemma, sentence, deprel, head, offset, spaceafter)</text>
<text text-anchor="start" x="2101.5" y="-489.3" font-family="Times New Roman,serif" font-size="14.00">process_file()</text>
</g>
<!-- InputProcessing.Document.Document&#45;&gt;InputProcessing.UploadTask.UploadTask -->
<g id="edge17" class="edge">
<title>InputProcessing.Document.Document&#45;&gt;InputProcessing.UploadTask.UploadTask</title>
<path fill="none" stroke="black" d="M2350.17,-159.44C2369.31,-222.33 2411.67,-361.58 2444.41,-469.22"/>
<polygon fill="none" stroke="black" points="2444.4,-469.17 2449.97,-473.75 2447.89,-480.65 2442.32,-476.08 2444.4,-469.17"/>
<text text-anchor="middle" x="2412" y="-271.8" font-family="Times New Roman,serif" font-size="14.00" fill="green">document</text>
</g>
<!-- InputProcessing.DocumentBuilder.DocumentBuilder -->
<g id="node3" class="node">
<title>InputProcessing.DocumentBuilder.DocumentBuilder</title>
<polygon fill="none" stroke="black" points="2808.5,-8 2808.5,-242 3251.5,-242 3251.5,-8 2808.5,-8"/>
<text text-anchor="start" x="2981" y="-226.8" font-family="Times New Roman,serif" font-size="14.00">DocumentBuilder</text>
<polyline fill="none" stroke="black" points="2808.5,-219 3251.5,-219"/>
<text text-anchor="start" x="2951" y="-203.8" font-family="Times New Roman,serif" font-size="14.00">input : list</text>
<text text-anchor="start" x="2951" y="-188.8" font-family="Times New Roman,serif" font-size="14.00">loop</text>
<text text-anchor="start" x="2951" y="-173.8" font-family="Times New Roman,serif" font-size="14.00">parsers : dict</text>
<text text-anchor="start" x="2951" y="-158.8" font-family="Times New Roman,serif" font-size="14.00">pool : ProcessPoolExecutor</text>
<text text-anchor="start" x="2951" y="-143.8" font-family="Times New Roman,serif" font-size="14.00">processors : dict</text>
<text text-anchor="start" x="2951" y="-128.8" font-family="Times New Roman,serif" font-size="14.00">threads : list</text>
<text text-anchor="start" x="2951" y="-113.8" font-family="Times New Roman,serif" font-size="14.00">upload_queue : Queue</text>
<polyline fill="none" stroke="black" points="2808.5,-106 3251.5,-106"/>
<text text-anchor="start" x="2816.5" y="-90.8" font-family="Times New Roman,serif" font-size="14.00">__del__()</text>
<text text-anchor="start" x="2816.5" y="-75.8" font-family="Times New Roman,serif" font-size="14.00">__init__(input: list[str], upload_queue: Queue, parsers: list, processors: dict)</text>
<text text-anchor="start" x="2816.5" y="-60.8" font-family="Times New Roman,serif" font-size="14.00">close()</text>
<text text-anchor="start" x="2816.5" y="-45.8" font-family="Times New Roman,serif" font-size="14.00">pipeline(text: dict)</text>
<text text-anchor="start" x="2816.5" y="-30.8" font-family="Times New Roman,serif" font-size="14.00">run()</text>
<text text-anchor="start" x="2816.5" y="-15.8" font-family="Times New Roman,serif" font-size="14.00">toQueue(result)</text>
</g>
<!-- threading.Thread -->
<g id="node14" class="node">
<title>threading.Thread</title>
<polygon fill="none" stroke="black" points="2901,-301.5 2901,-925.5 3159,-925.5 3159,-301.5 2901,-301.5"/>
<text text-anchor="start" x="3010" y="-910.3" font-family="Times New Roman,serif" font-size="14.00">Thread</text>
<polyline fill="none" stroke="black" points="2901,-902.5 3159,-902.5"/>
<text text-anchor="start" x="2957" y="-887.3" font-family="Times New Roman,serif" font-size="14.00">_args : tuple</text>
<text text-anchor="start" x="2957" y="-872.3" font-family="Times New Roman,serif" font-size="14.00">_daemonic : bool</text>
<text text-anchor="start" x="2957" y="-857.3" font-family="Times New Roman,serif" font-size="14.00">_ident : NoneType</text>
<text text-anchor="start" x="2957" y="-842.3" font-family="Times New Roman,serif" font-size="14.00">_initialized : bool</text>
<text text-anchor="start" x="2957" y="-827.3" font-family="Times New Roman,serif" font-size="14.00">_initialized : bool</text>
<text text-anchor="start" x="2957" y="-812.3" font-family="Times New Roman,serif" font-size="14.00">_invoke_excepthook</text>
<text text-anchor="start" x="2957" y="-797.3" font-family="Times New Roman,serif" font-size="14.00">_is_stopped : bool</text>
<text text-anchor="start" x="2957" y="-782.3" font-family="Times New Roman,serif" font-size="14.00">_kwargs : dict, NoneType</text>
<text text-anchor="start" x="2957" y="-767.3" font-family="Times New Roman,serif" font-size="14.00">_name : str, NoneType</text>
<text text-anchor="start" x="2957" y="-752.3" font-family="Times New Roman,serif" font-size="14.00">_native_id : NoneType</text>
<text text-anchor="start" x="2957" y="-737.3" font-family="Times New Roman,serif" font-size="14.00">_started : Event</text>
<text text-anchor="start" x="2957" y="-722.3" font-family="Times New Roman,serif" font-size="14.00">_stderr : TextIOWrapper</text>
<text text-anchor="start" x="2957" y="-707.3" font-family="Times New Roman,serif" font-size="14.00">_target : NoneType</text>
<text text-anchor="start" x="2957" y="-692.3" font-family="Times New Roman,serif" font-size="14.00">_tstate_lock : NoneType</text>
<text text-anchor="start" x="2957" y="-677.3" font-family="Times New Roman,serif" font-size="14.00">daemon</text>
<text text-anchor="start" x="2957" y="-662.3" font-family="Times New Roman,serif" font-size="14.00">daemon : bool</text>
<text text-anchor="start" x="2957" y="-647.3" font-family="Times New Roman,serif" font-size="14.00">ident</text>
<text text-anchor="start" x="2957" y="-632.3" font-family="Times New Roman,serif" font-size="14.00">name</text>
<text text-anchor="start" x="2957" y="-617.3" font-family="Times New Roman,serif" font-size="14.00">name</text>
<text text-anchor="start" x="2957" y="-602.3" font-family="Times New Roman,serif" font-size="14.00">native_id</text>
<polyline fill="none" stroke="black" points="2901,-594.5 3159,-594.5"/>
<text text-anchor="start" x="2909" y="-579.3" font-family="Times New Roman,serif" font-size="14.00">__init__(group, target, name, args, kwargs)</text>
<text text-anchor="start" x="2909" y="-564.3" font-family="Times New Roman,serif" font-size="14.00">__repr__()</text>
<text text-anchor="start" x="2909" y="-549.3" font-family="Times New Roman,serif" font-size="14.00">_bootstrap()</text>
<text text-anchor="start" x="2909" y="-534.3" font-family="Times New Roman,serif" font-size="14.00">_bootstrap_inner()</text>
<text text-anchor="start" x="2909" y="-519.3" font-family="Times New Roman,serif" font-size="14.00">_delete()</text>
<text text-anchor="start" x="2909" y="-504.3" font-family="Times New Roman,serif" font-size="14.00">_reset_internal_locks(is_alive)</text>
<text text-anchor="start" x="2909" y="-489.3" font-family="Times New Roman,serif" font-size="14.00">_set_ident()</text>
<text text-anchor="start" x="2909" y="-474.3" font-family="Times New Roman,serif" font-size="14.00">_set_native_id()</text>
<text text-anchor="start" x="2909" y="-459.3" font-family="Times New Roman,serif" font-size="14.00">_set_tstate_lock()</text>
<text text-anchor="start" x="2909" y="-444.3" font-family="Times New Roman,serif" font-size="14.00">_stop()</text>
<text text-anchor="start" x="2909" y="-429.3" font-family="Times New Roman,serif" font-size="14.00">_wait_for_tstate_lock(block, timeout)</text>
<text text-anchor="start" x="2909" y="-414.3" font-family="Times New Roman,serif" font-size="14.00">getName()</text>
<text text-anchor="start" x="2909" y="-399.3" font-family="Times New Roman,serif" font-size="14.00">isDaemon()</text>
<text text-anchor="start" x="2909" y="-384.3" font-family="Times New Roman,serif" font-size="14.00">is_alive()</text>
<text text-anchor="start" x="2909" y="-369.3" font-family="Times New Roman,serif" font-size="14.00">join(timeout)</text>
<text text-anchor="start" x="2909" y="-354.3" font-family="Times New Roman,serif" font-size="14.00">run()</text>
<text text-anchor="start" x="2909" y="-339.3" font-family="Times New Roman,serif" font-size="14.00">setDaemon(daemonic)</text>
<text text-anchor="start" x="2909" y="-324.3" font-family="Times New Roman,serif" font-size="14.00">setName(name)</text>
<text text-anchor="start" x="2909" y="-309.3" font-family="Times New Roman,serif" font-size="14.00">start()</text>
</g>
<!-- InputProcessing.DocumentBuilder.DocumentBuilder&#45;&gt;threading.Thread -->
<g id="edge5" class="edge">
<title>InputProcessing.DocumentBuilder.DocumentBuilder&#45;&gt;threading.Thread</title>
<path fill="none" stroke="black" d="M3030,-241.91C3030,-257.36 3030,-273.76 3030,-290.73"/>
<polygon fill="none" stroke="black" points="3026.5,-290.45 3030,-300.45 3033.5,-290.45 3026.5,-290.45"/>
</g>
<!-- InputProcessing.Processors.Hops.Hops -->
<g id="node4" class="node">
<title>InputProcessing.Processors.Hops.Hops</title>
<polygon fill="none" stroke="black" points="0,-90.5 0,-159.5 438,-159.5 438,-90.5 0,-90.5"/>
<text text-anchor="start" x="203.5" y="-144.3" font-family="Times New Roman,serif" font-size="14.00">Hops</text>
<polyline fill="none" stroke="black" points="0,-136.5 438,-136.5"/>
<polyline fill="none" stroke="black" points="0,-113.5 438,-113.5"/>
<text text-anchor="start" x="8" y="-99.3" font-family="Times New Roman,serif" font-style="italic" font-size="14.00">deprel</text>
<text text-anchor="start" x="45" y="-99.3" font-family="Times New Roman,serif" font-size="14.00">(document: Document.LemmatizedDocument): Document.Document</text>
</g>
<!-- InputProcessing.Processors.Hops.Hops&#45;&gt;InputProcessing.ProcessorInterfaces.DeprelAnalyzerInterface -->
<g id="edge7" class="edge">
<title>InputProcessing.Processors.Hops.Hops&#45;&gt;InputProcessing.ProcessorInterfaces.DeprelAnalyzerInterface</title>
<path fill="none" stroke="black" d="M240.1,-159.44C293.2,-243.58 432.55,-464.4 494.97,-563.33"/>
<polygon fill="none" stroke="black" points="491.84,-564.93 500.14,-571.52 497.76,-561.2 491.84,-564.93"/>
</g>
<!-- InputProcessing.Document.TaggedDocument -->
<g id="node13" class="node">
<title>InputProcessing.Document.TaggedDocument</title>
<polygon fill="none" stroke="black" points="1866.5,-963.5 1866.5,-1032.5 2083.5,-1032.5 2083.5,-963.5 1866.5,-963.5"/>
<text text-anchor="start" x="1925" y="-1017.3" font-family="Times New Roman,serif" font-size="14.00">TaggedDocument</text>
<polyline fill="none" stroke="black" points="1866.5,-1009.5 2083.5,-1009.5"/>
<polyline fill="none" stroke="black" points="1866.5,-986.5 2083.5,-986.5"/>
<text text-anchor="start" x="1874.5" y="-971.3" font-family="Times New Roman,serif" font-size="14.00">__init__(doc: TokenizedDocument)</text>
</g>
<!-- InputProcessing.Document.LemmatizedDocument&#45;&gt;InputProcessing.Document.TaggedDocument -->
<g id="edge2" class="edge">
<title>InputProcessing.Document.LemmatizedDocument&#45;&gt;InputProcessing.Document.TaggedDocument</title>
<path fill="none" stroke="black" d="M1975,-647.78C1975,-716.58 1975,-874.56 1975,-952.23"/>
<polygon fill="none" stroke="black" points="1971.5,-952.02 1975,-962.02 1978.5,-952.02 1971.5,-952.02"/>
</g>
<!-- InputProcessing.ProcessorInterfaces.LemmatizerInterface -->
<g id="node6" class="node">
<title>InputProcessing.ProcessorInterfaces.LemmatizerInterface</title>
<polygon fill="none" stroke="black" points="1479,-572.5 1479,-654.5 1857,-654.5 1857,-572.5 1479,-572.5"/>
<text text-anchor="start" x="1611" y="-639.3" font-family="Times New Roman,serif" font-size="14.00">LemmatizerInterface</text>
<polyline fill="none" stroke="black" points="1479,-631.5 1857,-631.5"/>
<polyline fill="none" stroke="black" points="1479,-608.5 1857,-608.5"/>
<text text-anchor="start" x="1487" y="-594.3" font-family="Times New Roman,serif" font-size="14.00">__subclasshook__(subclass)</text>
<text text-anchor="start" x="1487" y="-580.3" font-family="Times New Roman,serif" font-style="italic" font-size="14.00">lemmatize</text>
<text text-anchor="start" x="1545" y="-580.3" font-family="Times New Roman,serif" font-size="14.00">(document: TaggedDocument): LemmatizedDocument</text>
</g>
<!-- InputProcessing.Processors.NLTK.NLTK -->
<g id="node7" class="node">
<title>InputProcessing.Processors.NLTK.NLTK</title>
<polygon fill="none" stroke="black" points="456.5,-30.5 456.5,-219.5 919.5,-219.5 919.5,-30.5 456.5,-30.5"/>
<text text-anchor="start" x="669.5" y="-204.3" font-family="Times New Roman,serif" font-size="14.00">NLTK</text>
<polyline fill="none" stroke="black" points="456.5,-196.5 919.5,-196.5"/>
<text text-anchor="start" x="585.5" y="-181.3" font-family="Times New Roman,serif" font-size="14.00">parser : CoreNLPDependencyParser</text>
<text text-anchor="start" x="585.5" y="-166.3" font-family="Times New Roman,serif" font-size="14.00">server : Popen</text>
<text text-anchor="start" x="585.5" y="-151.3" font-family="Times New Roman,serif" font-size="14.00">splitter</text>
<text text-anchor="start" x="585.5" y="-136.3" font-family="Times New Roman,serif" font-size="14.00">tagger : CoreNLPDependencyParser</text>
<polyline fill="none" stroke="black" points="456.5,-128.5 919.5,-128.5"/>
<text text-anchor="start" x="464.5" y="-113.3" font-family="Times New Roman,serif" font-size="14.00">__del__()</text>
<text text-anchor="start" x="464.5" y="-98.3" font-family="Times New Roman,serif" font-size="14.00">__init__()</text>
<text text-anchor="start" x="464.5" y="-83.3" font-family="Times New Roman,serif" font-size="14.00">close()</text>
<text text-anchor="start" x="464.5" y="-68.3" font-family="Times New Roman,serif" font-size="14.00">deprel(document: Document.LemmatizedDocument): Document</text>
<text text-anchor="start" x="464.5" y="-53.3" font-family="Times New Roman,serif" font-size="14.00">tag(document: Document.TokenizedDocument): Document.TaggedDocument</text>
<text text-anchor="start" x="464.5" y="-38.3" font-family="Times New Roman,serif" font-size="14.00">tokenize(document: Document.RawDocument): Document.TokenizedDocument</text>
</g>
<!-- InputProcessing.Processors.NLTK.NLTK&#45;&gt;InputProcessing.ProcessorInterfaces.DeprelAnalyzerInterface -->
<g id="edge8" class="edge">
<title>InputProcessing.Processors.NLTK.NLTK&#45;&gt;InputProcessing.ProcessorInterfaces.DeprelAnalyzerInterface</title>
<path fill="none" stroke="black" d="M656.96,-219.23C623,-321.21 569.82,-480.9 542.87,-561.83"/>
<polygon fill="none" stroke="black" points="539.56,-560.69 539.73,-571.28 546.21,-562.9 539.56,-560.69"/>
</g>
<!-- InputProcessing.ProcessorInterfaces.PosTaggerInterface -->
<g id="node9" class="node">
<title>InputProcessing.ProcessorInterfaces.PosTaggerInterface</title>
<polygon fill="none" stroke="black" points="1060,-572.5 1060,-654.5 1390,-654.5 1390,-572.5 1060,-572.5"/>
<text text-anchor="start" x="1170" y="-639.3" font-family="Times New Roman,serif" font-size="14.00">PosTaggerInterface</text>
<polyline fill="none" stroke="black" points="1060,-631.5 1390,-631.5"/>
<polyline fill="none" stroke="black" points="1060,-608.5 1390,-608.5"/>
<text text-anchor="start" x="1068" y="-594.3" font-family="Times New Roman,serif" font-size="14.00">__subclasshook__(subclass)</text>
<text text-anchor="start" x="1068" y="-580.3" font-family="Times New Roman,serif" font-style="italic" font-size="14.00">tag</text>
<text text-anchor="start" x="1087" y="-580.3" font-family="Times New Roman,serif" font-size="14.00">(document: TokenizedDocument): TaggedDocument</text>
</g>
<!-- InputProcessing.Processors.NLTK.NLTK&#45;&gt;InputProcessing.ProcessorInterfaces.PosTaggerInterface -->
<g id="edge9" class="edge">
<title>InputProcessing.Processors.NLTK.NLTK&#45;&gt;InputProcessing.ProcessorInterfaces.PosTaggerInterface</title>
<path fill="none" stroke="black" d="M864.76,-219.44C885.95,-230.01 907.37,-240.42 928,-250 981.67,-274.94 1006.79,-261.66 1051,-301 1132.53,-373.56 1184.26,-493.79 1208.58,-561.71"/>
<polygon fill="none" stroke="black" points="1205.27,-562.84 1211.89,-571.12 1211.88,-560.52 1205.27,-562.84"/>
</g>
<!-- InputProcessing.ProcessorInterfaces.TokenizerInterface -->
<g id="node16" class="node">
<title>InputProcessing.ProcessorInterfaces.TokenizerInterface</title>
<polygon fill="none" stroke="black" points="702,-572.5 702,-654.5 1042,-654.5 1042,-572.5 702,-572.5"/>
<text text-anchor="start" x="819.5" y="-639.3" font-family="Times New Roman,serif" font-size="14.00">TokenizerInterface</text>
<polyline fill="none" stroke="black" points="702,-631.5 1042,-631.5"/>
<polyline fill="none" stroke="black" points="702,-608.5 1042,-608.5"/>
<text text-anchor="start" x="710" y="-594.3" font-family="Times New Roman,serif" font-size="14.00">__subclasshook__(subclass)</text>
<text text-anchor="start" x="710" y="-580.3" font-family="Times New Roman,serif" font-style="italic" font-size="14.00">tokenize</text>
<text text-anchor="start" x="756" y="-580.3" font-family="Times New Roman,serif" font-size="14.00">(document: RawDocument): TokenizedDocument</text>
</g>
<!-- InputProcessing.Processors.NLTK.NLTK&#45;&gt;InputProcessing.ProcessorInterfaces.TokenizerInterface -->
<g id="edge10" class="edge">
<title>InputProcessing.Processors.NLTK.NLTK&#45;&gt;InputProcessing.ProcessorInterfaces.TokenizerInterface</title>
<path fill="none" stroke="black" d="M723.26,-219.23C761.91,-321.41 822.47,-481.55 853.02,-562.33"/>
<polygon fill="none" stroke="black" points="849.61,-563.18 856.42,-571.3 856.15,-560.71 849.61,-563.18"/>
</g>
<!-- InputProcessing.ParserInterface.ParserInterface -->
<g id="node8" class="node">
<title>InputProcessing.ParserInterface.ParserInterface</title>
<polygon fill="none" stroke="black" points="3298.5,-572.5 3298.5,-654.5 3479.5,-654.5 3479.5,-572.5 3298.5,-572.5"/>
<text text-anchor="start" x="3346.5" y="-639.3" font-family="Times New Roman,serif" font-size="14.00">ParserInterface</text>
<polyline fill="none" stroke="black" points="3298.5,-631.5 3479.5,-631.5"/>
<polyline fill="none" stroke="black" points="3298.5,-608.5 3479.5,-608.5"/>
<text text-anchor="start" x="3306.5" y="-594.3" font-family="Times New Roman,serif" font-size="14.00">__subclasshook__(subclass)</text>
<text text-anchor="start" x="3306.5" y="-580.3" font-family="Times New Roman,serif" font-style="italic" font-size="14.00">parse</text>
<text text-anchor="start" x="3338.5" y="-580.3" font-family="Times New Roman,serif" font-size="14.00">(txt: str, name: str): Any</text>
</g>
<!-- InputProcessing.Document.RawDocument -->
<g id="node10" class="node">
<title>InputProcessing.Document.RawDocument</title>
<polygon fill="none" stroke="black" points="1879,-1192.5 1879,-1306.5 2071,-1306.5 2071,-1192.5 1879,-1192.5"/>
<text text-anchor="start" x="1933" y="-1291.3" font-family="Times New Roman,serif" font-size="14.00">RawDocument</text>
<polyline fill="none" stroke="black" points="1879,-1283.5 2071,-1283.5"/>
<text text-anchor="start" x="1941.5" y="-1268.3" font-family="Times New Roman,serif" font-size="14.00">content : str</text>
<text text-anchor="start" x="1941.5" y="-1253.3" font-family="Times New Roman,serif" font-size="14.00">name : str</text>
<polyline fill="none" stroke="black" points="1879,-1245.5 2071,-1245.5"/>
<text text-anchor="start" x="1887" y="-1230.3" font-family="Times New Roman,serif" font-size="14.00">__init__(name: str, content: str)</text>
<text text-anchor="start" x="1887" y="-1215.3" font-family="Times New Roman,serif" font-size="14.00">__iter__()</text>
<text text-anchor="start" x="1887" y="-1200.3" font-family="Times New Roman,serif" font-size="14.00">__repr__()</text>
</g>
<!-- InputProcessing.Processors.Spacy.Spacy -->
<g id="node11" class="node">
<title>InputProcessing.Processors.Spacy.Spacy</title>
<polygon fill="none" stroke="black" points="937.5,-53 937.5,-197 1434.5,-197 1434.5,-53 937.5,-53"/>
<text text-anchor="start" x="1168" y="-181.8" font-family="Times New Roman,serif" font-size="14.00">Spacy</text>
<polyline fill="none" stroke="black" points="937.5,-174 1434.5,-174"/>
<text text-anchor="start" x="1157" y="-158.8" font-family="Times New Roman,serif" font-size="14.00">nlp</text>
<text text-anchor="start" x="1157" y="-143.8" font-family="Times New Roman,serif" font-size="14.00">spacyDoc</text>
<polyline fill="none" stroke="black" points="937.5,-136 1434.5,-136"/>
<text text-anchor="start" x="945.5" y="-120.8" font-family="Times New Roman,serif" font-size="14.00">__init__()</text>
<text text-anchor="start" x="945.5" y="-105.8" font-family="Times New Roman,serif" font-size="14.00">deprel(document: Document.LemmatizedDocument): Document</text>
<text text-anchor="start" x="945.5" y="-90.8" font-family="Times New Roman,serif" font-size="14.00">lemmatize(document: Document.TaggedDocument): Document.LemmatizedDocument</text>
<text text-anchor="start" x="945.5" y="-75.8" font-family="Times New Roman,serif" font-size="14.00">tag(document: Document.TokenizedDocument): Document.TaggedDocument</text>
<text text-anchor="start" x="945.5" y="-60.8" font-family="Times New Roman,serif" font-size="14.00">tokenize(document: Document.RawDocument): Document.TokenizedDocument</text>
</g>
<!-- InputProcessing.Processors.Spacy.Spacy&#45;&gt;InputProcessing.ProcessorInterfaces.DeprelAnalyzerInterface -->
<g id="edge11" class="edge">
<title>InputProcessing.Processors.Spacy.Spacy&#45;&gt;InputProcessing.ProcessorInterfaces.DeprelAnalyzerInterface</title>
<path fill="none" stroke="black" d="M1053.6,-196.95C1014.01,-216.16 969.95,-235.59 928,-250 826.92,-284.72 778.33,-236.64 693,-301 605.69,-366.85 559.01,-491.98 538.7,-561.94"/>
<polygon fill="none" stroke="black" points="535.43,-560.64 536.08,-571.22 542.17,-562.55 535.43,-560.64"/>
</g>
<!-- InputProcessing.Processors.Spacy.Spacy&#45;&gt;InputProcessing.ProcessorInterfaces.LemmatizerInterface -->
<g id="edge12" class="edge">
<title>InputProcessing.Processors.Spacy.Spacy&#45;&gt;InputProcessing.ProcessorInterfaces.LemmatizerInterface</title>
<path fill="none" stroke="black" d="M1279.11,-196.8C1317.51,-227.43 1361.66,-264.57 1399,-301 1487.96,-387.8 1580.22,-500.46 1630.23,-563.76"/>
<polygon fill="none" stroke="black" points="1627.42,-565.85 1636.35,-571.54 1632.92,-561.52 1627.42,-565.85"/>
</g>
<!-- InputProcessing.Processors.Spacy.Spacy&#45;&gt;InputProcessing.ProcessorInterfaces.PosTaggerInterface -->
<g id="edge13" class="edge">
<title>InputProcessing.Processors.Spacy.Spacy&#45;&gt;InputProcessing.ProcessorInterfaces.PosTaggerInterface</title>
<path fill="none" stroke="black" d="M1191.67,-196.74C1199.62,-295.88 1213.88,-473.8 1220.89,-561.2"/>
<polygon fill="none" stroke="black" points="1217.4,-561.46 1221.69,-571.15 1224.38,-560.9 1217.4,-561.46"/>
</g>
<!-- InputProcessing.Processors.Spacy.Spacy&#45;&gt;InputProcessing.ProcessorInterfaces.TokenizerInterface -->
<g id="edge14" class="edge">
<title>InputProcessing.Processors.Spacy.Spacy&#45;&gt;InputProcessing.ProcessorInterfaces.TokenizerInterface</title>
<path fill="none" stroke="black" d="M1127.92,-196.75C1103.2,-227.99 1074.67,-265.59 1051,-301 991.4,-390.15 931.12,-500.05 897.95,-562.62"/>
<polygon fill="none" stroke="black" points="894.95,-560.81 893.38,-571.28 901.14,-564.08 894.95,-560.81"/>
</g>
<!-- InputProcessing.Parsers.TXT.TXT -->
<g id="node12" class="node">
<title>InputProcessing.Parsers.TXT.TXT</title>
<polygon fill="none" stroke="black" points="3269.5,-90.5 3269.5,-159.5 3508.5,-159.5 3508.5,-90.5 3269.5,-90.5"/>
<text text-anchor="start" x="3375" y="-144.3" font-family="Times New Roman,serif" font-size="14.00">TXT</text>
<polyline fill="none" stroke="black" points="3269.5,-136.5 3508.5,-136.5"/>
<text text-anchor="start" x="3346.5" y="-121.3" font-family="Times New Roman,serif" font-size="14.00">extensions : list</text>
<polyline fill="none" stroke="black" points="3269.5,-113.5 3508.5,-113.5"/>
<text text-anchor="start" x="3277.5" y="-98.3" font-family="Times New Roman,serif" font-size="14.00">parse(txt: str, name: str): RawDocument</text>
</g>
<!-- InputProcessing.Parsers.TXT.TXT&#45;&gt;InputProcessing.ParserInterface.ParserInterface -->
<g id="edge6" class="edge">
<title>InputProcessing.Parsers.TXT.TXT&#45;&gt;InputProcessing.ParserInterface.ParserInterface</title>
<path fill="none" stroke="black" d="M3389,-159.44C3389,-243.07 3389,-461.73 3389,-561.52"/>
<polygon fill="none" stroke="black" points="3385.5,-561.29 3389,-571.29 3392.5,-561.29 3385.5,-561.29"/>
</g>
<!-- InputProcessing.Document.TokenizedDocument -->
<g id="node15" class="node">
<title>InputProcessing.Document.TokenizedDocument</title>
<polygon fill="none" stroke="black" points="1804,-1070.5 1804,-1154.5 2146,-1154.5 2146,-1070.5 1804,-1070.5"/>
<text text-anchor="start" x="1916.5" y="-1139.3" font-family="Times New Roman,serif" font-size="14.00">TokenizedDocument</text>
<polyline fill="none" stroke="black" points="1804,-1131.5 2146,-1131.5"/>
<polyline fill="none" stroke="black" points="1804,-1108.5 2146,-1108.5"/>
<text text-anchor="start" x="1812" y="-1093.3" font-family="Times New Roman,serif" font-size="14.00">__init__(doc: RawDocument)</text>
<text text-anchor="start" x="1812" y="-1078.3" font-family="Times New Roman,serif" font-size="14.00">_check_arguments(type: Callable, doc, expectedArgs: set)</text>
</g>
<!-- InputProcessing.Document.TaggedDocument&#45;&gt;InputProcessing.Document.TokenizedDocument -->
<g id="edge3" class="edge">
<title>InputProcessing.Document.TaggedDocument&#45;&gt;InputProcessing.Document.TokenizedDocument</title>
<path fill="none" stroke="black" d="M1975,-1032.45C1975,-1040.92 1975,-1050.22 1975,-1059.38"/>
<polygon fill="none" stroke="black" points="1971.5,-1059.31 1975,-1069.31 1978.5,-1059.31 1971.5,-1059.31"/>
</g>
<!-- InputProcessing.Document.TokenizedDocument&#45;&gt;InputProcessing.Document.RawDocument -->
<g id="edge4" class="edge">
<title>InputProcessing.Document.TokenizedDocument&#45;&gt;InputProcessing.Document.RawDocument</title>
<path fill="none" stroke="black" d="M1975,-1154.37C1975,-1162.98 1975,-1172.27 1975,-1181.55"/>
<polygon fill="none" stroke="black" points="1971.5,-1181.31 1975,-1191.31 1978.5,-1181.31 1971.5,-1181.31"/>
</g>
<!-- InputProcessing.Processors.TreeTagger.TreeTagger -->
<g id="node17" class="node">
<title>InputProcessing.Processors.TreeTagger.TreeTagger</title>
<polygon fill="none" stroke="black" points="1452.5,-53 1452.5,-197 1949.5,-197 1949.5,-53 1452.5,-53"/>
<text text-anchor="start" x="1668.5" y="-181.8" font-family="Times New Roman,serif" font-size="14.00">TreeTagger</text>
<polyline fill="none" stroke="black" points="1452.5,-174 1949.5,-174"/>
<text text-anchor="start" x="1646.5" y="-158.8" font-family="Times New Roman,serif" font-size="14.00">mk_tags</text>
<text text-anchor="start" x="1646.5" y="-143.8" font-family="Times New Roman,serif" font-size="14.00">tagger : TreeTagger</text>
<polyline fill="none" stroke="black" points="1452.5,-136 1949.5,-136"/>
<text text-anchor="start" x="1460.5" y="-120.8" font-family="Times New Roman,serif" font-size="14.00">__init__()</text>
<text text-anchor="start" x="1460.5" y="-105.8" font-family="Times New Roman,serif" font-size="14.00">_convert_tagset(tags: list)</text>
<text text-anchor="start" x="1460.5" y="-90.8" font-family="Times New Roman,serif" font-size="14.00">close()</text>
<text text-anchor="start" x="1460.5" y="-75.8" font-family="Times New Roman,serif" font-size="14.00">lemmatize(document: Document.TaggedDocument): Document.LemmatizedDocument</text>
<text text-anchor="start" x="1460.5" y="-60.8" font-family="Times New Roman,serif" font-size="14.00">tag(document: Document.TokenizedDocument): Document.TaggedDocument</text>
</g>
<!-- InputProcessing.Processors.TreeTagger.TreeTagger&#45;&gt;InputProcessing.ProcessorInterfaces.LemmatizerInterface -->
<g id="edge15" class="edge">
<title>InputProcessing.Processors.TreeTagger.TreeTagger&#45;&gt;InputProcessing.ProcessorInterfaces.LemmatizerInterface</title>
<path fill="none" stroke="black" d="M1696.2,-196.74C1689.48,-295.88 1677.41,-473.8 1671.48,-561.2"/>
<polygon fill="none" stroke="black" points="1667.99,-560.94 1670.8,-571.15 1674.97,-561.41 1667.99,-560.94"/>
</g>
<!-- InputProcessing.Processors.TreeTagger.TreeTagger&#45;&gt;InputProcessing.ProcessorInterfaces.PosTaggerInterface -->
<g id="edge16" class="edge">
<title>InputProcessing.Processors.TreeTagger.TreeTagger&#45;&gt;InputProcessing.ProcessorInterfaces.PosTaggerInterface</title>
<path fill="none" stroke="black" d="M1595.79,-196.93C1554.63,-226.86 1508.23,-263.46 1470,-301 1384.43,-385.03 1301.81,-499.04 1257.79,-563.25"/>
<polygon fill="none" stroke="black" points="1254.91,-561.25 1252.17,-571.48 1260.7,-565.19 1254.91,-561.25"/>
</g>
<!-- InputProcessing.UploadMachine.UploadMachine -->
<g id="node18" class="node">
<title>InputProcessing.UploadMachine.UploadMachine</title>
<polygon fill="none" stroke="black" points="3527,-0.5 3527,-249.5 3731,-249.5 3731,-0.5 3527,-0.5"/>
<text text-anchor="start" x="3584.5" y="-234.3" font-family="Times New Roman,serif" font-size="14.00">UploadMachine</text>
<polyline fill="none" stroke="black" points="3527,-226.5 3731,-226.5"/>
<text text-anchor="start" x="3558" y="-211.3" font-family="Times New Roman,serif" font-size="14.00">connection_params : dict</text>
<text text-anchor="start" x="3558" y="-196.3" font-family="Times New Roman,serif" font-size="14.00">connection_pool : Pool</text>
<text text-anchor="start" x="3558" y="-181.3" font-family="Times New Roman,serif" font-size="14.00">forms_lock : Lock</text>
<text text-anchor="start" x="3558" y="-166.3" font-family="Times New Roman,serif" font-size="14.00">lemmas_lock : Lock</text>
<text text-anchor="start" x="3558" y="-151.3" font-family="Times New Roman,serif" font-size="14.00">loop</text>
<text text-anchor="start" x="3558" y="-136.3" font-family="Times New Roman,serif" font-size="14.00">queue : Queue</text>
<text text-anchor="start" x="3558" y="-121.3" font-family="Times New Roman,serif" font-size="14.00">sentences_lock : Lock</text>
<text text-anchor="start" x="3558" y="-106.3" font-family="Times New Roman,serif" font-size="14.00">tasks</text>
<text text-anchor="start" x="3558" y="-91.3" font-family="Times New Roman,serif" font-size="14.00">to_treat : int</text>
<text text-anchor="start" x="3558" y="-76.3" font-family="Times New Roman,serif" font-size="14.00">tokens_lock : Lock</text>
<text text-anchor="start" x="3558" y="-61.3" font-family="Times New Roman,serif" font-size="14.00">user_id : int</text>
<polyline fill="none" stroke="black" points="3527,-53.5 3731,-53.5"/>
<text text-anchor="start" x="3535" y="-38.3" font-family="Times New Roman,serif" font-size="14.00">__init__(to_treat: int, user_id: int)</text>
<text text-anchor="start" x="3535" y="-23.3" font-family="Times New Roman,serif" font-size="14.00">run()</text>
<text text-anchor="start" x="3535" y="-8.3" font-family="Times New Roman,serif" font-size="14.00">worker()</text>
</g>
</g>
</svg>
