<?xml version="1.0" encoding="UTF-8" standalone="no"?>
<!DOCTYPE svg PUBLIC "-//W3C//DTD SVG 1.1//EN"
 "http://www.w3.org/Graphics/SVG/1.1/DTD/svg11.dtd">
<!-- Generated by graphviz version 7.1.0 (20230121.1956)
 -->
<!-- Title: classes_InputProcessing Pages: 1 -->
<svg width="1976pt" height="586pt"
 viewBox="0.00 0.00 1975.50 586.00" xmlns="http://www.w3.org/2000/svg" xmlns:xlink="http://www.w3.org/1999/xlink">
<g id="graph0" class="graph" transform="scale(1 1) rotate(0) translate(4 582)">
<title>classes_InputProcessing</title>
<polygon fill="white" stroke="none" points="-4,4 -4,-582 1971.5,-582 1971.5,4 -4,4"/>
<!-- InputProcessing.ProcessorInterfaces.DeprelAnalyzerInterface -->
<g id="node1" class="node">
<title>InputProcessing.ProcessorInterfaces.DeprelAnalyzerInterface</title>
<polygon fill="none" stroke="black" points="61.5,-147.5 61.5,-229.5 376.5,-229.5 376.5,-147.5 61.5,-147.5"/>
<text text-anchor="start" x="151.5" y="-214.3" font-family="Times New Roman,serif" font-size="14.00">DeprelAnalyzerInterface</text>
<polyline fill="none" stroke="black" points="61.5,-206.5 376.5,-206.5"/>
<polyline fill="none" stroke="black" points="61.5,-183.5 376.5,-183.5"/>
<text text-anchor="start" x="69.5" y="-169.3" font-family="Times New Roman,serif" font-size="14.00">__subclasshook__(subclass)</text>
<text text-anchor="start" x="69.5" y="-155.3" font-family="Times New Roman,serif" font-style="italic" font-size="14.00">deprel</text>
<text text-anchor="start" x="106.5" y="-155.3" font-family="Times New Roman,serif" font-size="14.00">(document: LemmatizedDocument): Document</text>
</g>
<!-- InputProcessing.Document.Document -->
<g id="node2" class="node">
<title>InputProcessing.Document.Document</title>
<polygon fill="none" stroke="black" points="1484,-21 1484,-90 1710,-90 1710,-21 1484,-21"/>
<text text-anchor="start" x="1568" y="-74.8" font-family="Times New Roman,serif" font-size="14.00">Document</text>
<polyline fill="none" stroke="black" points="1484,-67 1710,-67"/>
<polyline fill="none" stroke="black" points="1484,-44 1710,-44"/>
<text text-anchor="start" x="1492" y="-28.8" font-family="Times New Roman,serif" font-size="14.00">__init__(doc: LemmatizedDocument)</text>
</g>
<!-- InputProcessing.Document.LemmatizedDocument -->
<g id="node4" class="node">
<title>InputProcessing.Document.LemmatizedDocument</title>
<polygon fill="none" stroke="black" points="1497,-154 1497,-223 1697,-223 1697,-154 1497,-154"/>
<text text-anchor="start" x="1534" y="-207.8" font-family="Times New Roman,serif" font-size="14.00">LemmatizedDocument</text>
<polyline fill="none" stroke="black" points="1497,-200 1697,-200"/>
<polyline fill="none" stroke="black" points="1497,-177 1697,-177"/>
<text text-anchor="start" x="1505" y="-161.8" font-family="Times New Roman,serif" font-size="14.00">__init__(doc: TaggedDocument)</text>
</g>
<!-- InputProcessing.Document.Document&#45;&gt;InputProcessing.Document.LemmatizedDocument -->
<g id="edge1" class="edge">
<title>InputProcessing.Document.Document&#45;&gt;InputProcessing.Document.LemmatizedDocument</title>
<path fill="none" stroke="black" d="M1597,-89.9C1597,-106.06 1597,-125.7 1597,-143.11"/>
<polygon fill="none" stroke="black" points="1593.5,-142.65 1597,-152.65 1600.5,-142.65 1593.5,-142.65"/>
</g>
<!-- InputProcessing.Processors.Hops.Hops -->
<g id="node3" class="node">
<title>InputProcessing.Processors.Hops.Hops</title>
<polygon fill="none" stroke="black" points="0,-21 0,-90 438,-90 438,-21 0,-21"/>
<text text-anchor="start" x="203.5" y="-74.8" font-family="Times New Roman,serif" font-size="14.00">Hops</text>
<polyline fill="none" stroke="black" points="0,-67 438,-67"/>
<polyline fill="none" stroke="black" points="0,-44 438,-44"/>
<text text-anchor="start" x="8" y="-29.8" font-family="Times New Roman,serif" font-style="italic" font-size="14.00">deprel</text>
<text text-anchor="start" x="45" y="-29.8" font-family="Times New Roman,serif" font-size="14.00">(document: Document.LemmatizedDocument): Document.Document</text>
</g>
<!-- InputProcessing.Processors.Hops.Hops&#45;&gt;InputProcessing.ProcessorInterfaces.DeprelAnalyzerInterface -->
<g id="edge6" class="edge">
<title>InputProcessing.Processors.Hops.Hops&#45;&gt;InputProcessing.ProcessorInterfaces.DeprelAnalyzerInterface</title>
<path fill="none" stroke="black" d="M219,-89.9C219,-104.05 219,-120.86 219,-136.5"/>
<polygon fill="none" stroke="black" points="215.5,-136.12 219,-146.12 222.5,-136.12 215.5,-136.12"/>
</g>
<!-- InputProcessing.Document.TaggedDocument -->
<g id="node11" class="node">
<title>InputProcessing.Document.TaggedDocument</title>
<polygon fill="none" stroke="black" points="1488.5,-266.5 1488.5,-335.5 1705.5,-335.5 1705.5,-266.5 1488.5,-266.5"/>
<text text-anchor="start" x="1547" y="-320.3" font-family="Times New Roman,serif" font-size="14.00">TaggedDocument</text>
<polyline fill="none" stroke="black" points="1488.5,-312.5 1705.5,-312.5"/>
<polyline fill="none" stroke="black" points="1488.5,-289.5 1705.5,-289.5"/>
<text text-anchor="start" x="1496.5" y="-274.3" font-family="Times New Roman,serif" font-size="14.00">__init__(doc: TokenizedDocument)</text>
</g>
<!-- InputProcessing.Document.LemmatizedDocument&#45;&gt;InputProcessing.Document.TaggedDocument -->
<g id="edge2" class="edge">
<title>InputProcessing.Document.LemmatizedDocument&#45;&gt;InputProcessing.Document.TaggedDocument</title>
<path fill="none" stroke="black" d="M1597,-222.95C1597,-233.12 1597,-244.47 1597,-255.25"/>
<polygon fill="none" stroke="black" points="1593.5,-255.15 1597,-265.15 1600.5,-255.15 1593.5,-255.15"/>
</g>
<!-- InputProcessing.ProcessorInterfaces.LemmatizerInterface -->
<g id="node5" class="node">
<title>InputProcessing.ProcessorInterfaces.LemmatizerInterface</title>
<polygon fill="none" stroke="black" points="395,-147.5 395,-229.5 773,-229.5 773,-147.5 395,-147.5"/>
<text text-anchor="start" x="527" y="-214.3" font-family="Times New Roman,serif" font-size="14.00">LemmatizerInterface</text>
<polyline fill="none" stroke="black" points="395,-206.5 773,-206.5"/>
<polyline fill="none" stroke="black" points="395,-183.5 773,-183.5"/>
<text text-anchor="start" x="403" y="-169.3" font-family="Times New Roman,serif" font-size="14.00">__subclasshook__(subclass)</text>
<text text-anchor="start" x="403" y="-155.3" font-family="Times New Roman,serif" font-style="italic" font-size="14.00">lemmatize</text>
<text text-anchor="start" x="461" y="-155.3" font-family="Times New Roman,serif" font-size="14.00">(document: TaggedDocument): LemmatizedDocument</text>
</g>
<!-- InputProcessing.ParserInterface.ParserInterface -->
<g id="node6" class="node">
<title>InputProcessing.ParserInterface.ParserInterface</title>
<polygon fill="none" stroke="black" points="1757.5,-147.5 1757.5,-229.5 1938.5,-229.5 1938.5,-147.5 1757.5,-147.5"/>
<text text-anchor="start" x="1805.5" y="-214.3" font-family="Times New Roman,serif" font-size="14.00">ParserInterface</text>
<polyline fill="none" stroke="black" points="1757.5,-206.5 1938.5,-206.5"/>
<polyline fill="none" stroke="black" points="1757.5,-183.5 1938.5,-183.5"/>
<text text-anchor="start" x="1765.5" y="-169.3" font-family="Times New Roman,serif" font-size="14.00">__subclasshook__(subclass)</text>
<text text-anchor="start" x="1765.5" y="-155.3" font-family="Times New Roman,serif" font-style="italic" font-size="14.00">parse</text>
<text text-anchor="start" x="1797.5" y="-155.3" font-family="Times New Roman,serif" font-size="14.00">(txt: str, name: str): Any</text>
</g>
<!-- InputProcessing.ProcessorInterfaces.PosTaggerInterface -->
<g id="node7" class="node">
<title>InputProcessing.ProcessorInterfaces.PosTaggerInterface</title>
<polygon fill="none" stroke="black" points="791,-147.5 791,-229.5 1121,-229.5 1121,-147.5 791,-147.5"/>
<text text-anchor="start" x="901" y="-214.3" font-family="Times New Roman,serif" font-size="14.00">PosTaggerInterface</text>
<polyline fill="none" stroke="black" points="791,-206.5 1121,-206.5"/>
<polyline fill="none" stroke="black" points="791,-183.5 1121,-183.5"/>
<text text-anchor="start" x="799" y="-169.3" font-family="Times New Roman,serif" font-size="14.00">__subclasshook__(subclass)</text>
<text text-anchor="start" x="799" y="-155.3" font-family="Times New Roman,serif" font-style="italic" font-size="14.00">tag</text>
<text text-anchor="start" x="818" y="-155.3" font-family="Times New Roman,serif" font-size="14.00">(document: TokenizedDocument): TaggedDocument</text>
</g>
<!-- InputProcessing.Document.RawDocument -->
<g id="node8" class="node">
<title>InputProcessing.Document.RawDocument</title>
<polygon fill="none" stroke="black" points="1501,-493.5 1501,-577.5 1693,-577.5 1693,-493.5 1501,-493.5"/>
<text text-anchor="start" x="1555" y="-562.3" font-family="Times New Roman,serif" font-size="14.00">RawDocument</text>
<polyline fill="none" stroke="black" points="1501,-554.5 1693,-554.5"/>
<text text-anchor="start" x="1563.5" y="-539.3" font-family="Times New Roman,serif" font-size="14.00">content : str</text>
<text text-anchor="start" x="1563.5" y="-524.3" font-family="Times New Roman,serif" font-size="14.00">name : str</text>
<polyline fill="none" stroke="black" points="1501,-516.5 1693,-516.5"/>
<text text-anchor="start" x="1509" y="-501.3" font-family="Times New Roman,serif" font-size="14.00">__init__(name: str, content: str)</text>
</g>
<!-- InputProcessing.Processors.Spacy.Spacy -->
<g id="node9" class="node">
<title>InputProcessing.Processors.Spacy.Spacy</title>
<polygon fill="none" stroke="black" points="581.5,-0.5 581.5,-110.5 1082.5,-110.5 1082.5,-0.5 581.5,-0.5"/>
<text text-anchor="start" x="814" y="-95.3" font-family="Times New Roman,serif" font-size="14.00">Spacy</text>
<polyline fill="none" stroke="black" points="581.5,-87.5 1082.5,-87.5"/>
<polyline fill="none" stroke="black" points="581.5,-64.5 1082.5,-64.5"/>
<text text-anchor="start" x="589.5" y="-50.3" font-family="Times New Roman,serif" font-style="italic" font-size="14.00">deprel</text>
<text text-anchor="start" x="626.5" y="-50.3" font-family="Times New Roman,serif" font-size="14.00">(document: Document.LemmatizedDocument): Document.Document</text>
<text text-anchor="start" x="589.5" y="-36.3" font-family="Times New Roman,serif" font-style="italic" font-size="14.00">lemmatize</text>
<text text-anchor="start" x="647.5" y="-36.3" font-family="Times New Roman,serif" font-size="14.00">(document: Document.TaggedDocument): Document.LemmatizedDocument</text>
<text text-anchor="start" x="589.5" y="-22.3" font-family="Times New Roman,serif" font-style="italic" font-size="14.00">tag</text>
<text text-anchor="start" x="608.5" y="-22.3" font-family="Times New Roman,serif" font-size="14.00">(document: Document.TokenizedDocument): Document.TaggedDocument</text>
<text text-anchor="start" x="589.5" y="-8.3" font-family="Times New Roman,serif" font-style="italic" font-size="14.00">tokenize</text>
<text text-anchor="start" x="635.5" y="-8.3" font-family="Times New Roman,serif" font-size="14.00">(document: Document.RawDocument): Document.TokenizedDocument</text>
</g>
<!-- InputProcessing.Processors.Spacy.Spacy&#45;&gt;InputProcessing.ProcessorInterfaces.DeprelAnalyzerInterface -->
<g id="edge7" class="edge">
<title>InputProcessing.Processors.Spacy.Spacy&#45;&gt;InputProcessing.ProcessorInterfaces.DeprelAnalyzerInterface</title>
<path fill="none" stroke="black" d="M581.61,-105.58C520.97,-117.92 456.18,-131.47 387.38,-146.72"/>
<polygon fill="none" stroke="black" points="386.78,-143.26 377.78,-148.85 388.3,-150.1 386.78,-143.26"/>
</g>
<!-- InputProcessing.Processors.Spacy.Spacy&#45;&gt;InputProcessing.ProcessorInterfaces.LemmatizerInterface -->
<g id="edge8" class="edge">
<title>InputProcessing.Processors.Spacy.Spacy&#45;&gt;InputProcessing.ProcessorInterfaces.LemmatizerInterface</title>
<path fill="none" stroke="black" d="M730.06,-110.35C709.92,-120.99 688.98,-132.05 669.46,-142.36"/>
<polygon fill="none" stroke="black" points="667.93,-139.21 660.73,-146.97 671.2,-145.39 667.93,-139.21"/>
</g>
<!-- InputProcessing.Processors.Spacy.Spacy&#45;&gt;InputProcessing.ProcessorInterfaces.PosTaggerInterface -->
<g id="edge9" class="edge">
<title>InputProcessing.Processors.Spacy.Spacy&#45;&gt;InputProcessing.ProcessorInterfaces.PosTaggerInterface</title>
<path fill="none" stroke="black" d="M882.79,-110.16C892,-119.89 901.55,-129.98 910.59,-139.53"/>
<polygon fill="none" stroke="black" points="907.93,-141.81 917.34,-146.66 913.01,-136.99 907.93,-141.81"/>
</g>
<!-- InputProcessing.ProcessorInterfaces.TokenizerInterface -->
<g id="node13" class="node">
<title>InputProcessing.ProcessorInterfaces.TokenizerInterface</title>
<polygon fill="none" stroke="black" points="1139,-147.5 1139,-229.5 1479,-229.5 1479,-147.5 1139,-147.5"/>
<text text-anchor="start" x="1256.5" y="-214.3" font-family="Times New Roman,serif" font-size="14.00">TokenizerInterface</text>
<polyline fill="none" stroke="black" points="1139,-206.5 1479,-206.5"/>
<polyline fill="none" stroke="black" points="1139,-183.5 1479,-183.5"/>
<text text-anchor="start" x="1147" y="-169.3" font-family="Times New Roman,serif" font-size="14.00">__subclasshook__(subclass)</text>
<text text-anchor="start" x="1147" y="-155.3" font-family="Times New Roman,serif" font-style="italic" font-size="14.00">tokenize</text>
<text text-anchor="start" x="1193" y="-155.3" font-family="Times New Roman,serif" font-size="14.00">(document: RawDocument): TokenizedDocument</text>
</g>
<!-- InputProcessing.Processors.Spacy.Spacy&#45;&gt;InputProcessing.ProcessorInterfaces.TokenizerInterface -->
<g id="edge10" class="edge">
<title>InputProcessing.Processors.Spacy.Spacy&#45;&gt;InputProcessing.ProcessorInterfaces.TokenizerInterface</title>
<path fill="none" stroke="black" d="M1028.42,-110.44C1069.74,-121.79 1112.79,-133.61 1152.41,-144.49"/>
<polygon fill="none" stroke="black" points="1151.46,-147.86 1162.03,-147.14 1153.31,-141.11 1151.46,-147.86"/>
</g>
<!-- InputProcessing.Parsers.TXT.TXT -->
<g id="node10" class="node">
<title>InputProcessing.Parsers.TXT.TXT</title>
<polygon fill="none" stroke="black" points="1728.5,-21 1728.5,-90 1967.5,-90 1967.5,-21 1728.5,-21"/>
<text text-anchor="start" x="1834" y="-74.8" font-family="Times New Roman,serif" font-size="14.00">TXT</text>
<polyline fill="none" stroke="black" points="1728.5,-67 1967.5,-67"/>
<polyline fill="none" stroke="black" points="1728.5,-44 1967.5,-44"/>
<text text-anchor="start" x="1736.5" y="-28.8" font-family="Times New Roman,serif" font-size="14.00">parse(txt: str, name: str): RawDocument</text>
</g>
<!-- InputProcessing.Parsers.TXT.TXT&#45;&gt;InputProcessing.ParserInterface.ParserInterface -->
<g id="edge5" class="edge">
<title>InputProcessing.Parsers.TXT.TXT&#45;&gt;InputProcessing.ParserInterface.ParserInterface</title>
<path fill="none" stroke="black" d="M1848,-89.9C1848,-104.05 1848,-120.86 1848,-136.5"/>
<polygon fill="none" stroke="black" points="1844.5,-136.12 1848,-146.12 1851.5,-136.12 1844.5,-136.12"/>
</g>
<!-- InputProcessing.Document.TokenizedDocument -->
<g id="node12" class="node">
<title>InputProcessing.Document.TokenizedDocument</title>
<polygon fill="none" stroke="black" points="1426,-372.5 1426,-456.5 1768,-456.5 1768,-372.5 1426,-372.5"/>
<text text-anchor="start" x="1538.5" y="-441.3" font-family="Times New Roman,serif" font-size="14.00">TokenizedDocument</text>
<polyline fill="none" stroke="black" points="1426,-433.5 1768,-433.5"/>
<polyline fill="none" stroke="black" points="1426,-410.5 1768,-410.5"/>
<text text-anchor="start" x="1434" y="-395.3" font-family="Times New Roman,serif" font-size="14.00">__init__(doc: RawDocument)</text>
<text text-anchor="start" x="1434" y="-380.3" font-family="Times New Roman,serif" font-size="14.00">_check_arguments(type: Callable, doc, expectedArgs: set)</text>
</g>
<!-- InputProcessing.Document.TaggedDocument&#45;&gt;InputProcessing.Document.TokenizedDocument -->
<g id="edge3" class="edge">
<title>InputProcessing.Document.TaggedDocument&#45;&gt;InputProcessing.Document.TokenizedDocument</title>
<path fill="none" stroke="black" d="M1597,-335.45C1597,-343.57 1597,-352.44 1597,-361.2"/>
<polygon fill="none" stroke="black" points="1593.5,-361.06 1597,-371.06 1600.5,-361.06 1593.5,-361.06"/>
</g>
<!-- InputProcessing.Document.TokenizedDocument&#45;&gt;InputProcessing.Document.RawDocument -->
<g id="edge4" class="edge">
<title>InputProcessing.Document.TokenizedDocument&#45;&gt;InputProcessing.Document.RawDocument</title>
<path fill="none" stroke="black" d="M1597,-456.45C1597,-464.87 1597,-473.83 1597,-482.57"/>
<polygon fill="none" stroke="black" points="1593.5,-482.36 1597,-492.36 1600.5,-482.36 1593.5,-482.36"/>
</g>
</g>
</svg>
