<?xml version="1.0" encoding="UTF-8" standalone="no"?>
<!DOCTYPE svg PUBLIC "-//W3C//DTD SVG 1.1//EN"
 "http://www.w3.org/Graphics/SVG/1.1/DTD/svg11.dtd">
<!-- Generated by graphviz version 7.1.0 (20230121.1956)
 -->
<!-- Title: classes_InputProcessing Pages: 1 -->
<svg width="3404pt" height="1270pt"
 viewBox="0.00 0.00 3404.00 1270.00" xmlns="http://www.w3.org/2000/svg" xmlns:xlink="http://www.w3.org/1999/xlink">
<g id="graph0" class="graph" transform="scale(1 1) rotate(0) translate(4 1266)">
<title>classes_InputProcessing</title>
<polygon fill="white" stroke="none" points="-4,4 -4,-1266 3400,-1266 3400,4 -4,4"/>
<!-- InputProcessing.ProcessorInterfaces.DeprelAnalyzerInterface -->
<g id="node1" class="node">
<title>InputProcessing.ProcessorInterfaces.DeprelAnalyzerInterface</title>
<polygon fill="none" stroke="black" points="476.5,-550 476.5,-632 791.5,-632 791.5,-550 476.5,-550"/>
<text text-anchor="start" x="566.5" y="-616.8" font-family="Times New Roman,serif" font-size="14.00">DeprelAnalyzerInterface</text>
<polyline fill="none" stroke="black" points="476.5,-609 791.5,-609"/>
<polyline fill="none" stroke="black" points="476.5,-586 791.5,-586"/>
<text text-anchor="start" x="484.5" y="-571.8" font-family="Times New Roman,serif" font-size="14.00">__subclasshook__(subclass)</text>
<text text-anchor="start" x="484.5" y="-557.8" font-family="Times New Roman,serif" font-style="italic" font-size="14.00">deprel</text>
<text text-anchor="start" x="521.5" y="-557.8" font-family="Times New Roman,serif" font-size="14.00">(document: LemmatizedDocument): Document</text>
</g>
<!-- InputProcessing.Document.Document -->
<g id="node2" class="node">
<title>InputProcessing.Document.Document</title>
<polygon fill="none" stroke="black" points="2159,-75.5 2159,-144.5 2385,-144.5 2385,-75.5 2159,-75.5"/>
<text text-anchor="start" x="2243" y="-129.3" font-family="Times New Roman,serif" font-size="14.00">Document</text>
<polyline fill="none" stroke="black" points="2159,-121.5 2385,-121.5"/>
<polyline fill="none" stroke="black" points="2159,-98.5 2385,-98.5"/>
<text text-anchor="start" x="2167" y="-83.3" font-family="Times New Roman,serif" font-size="14.00">__init__(doc: LemmatizedDocument)</text>
</g>
<!-- InputProcessing.Document.LemmatizedDocument -->
<g id="node5" class="node">
<title>InputProcessing.Document.LemmatizedDocument</title>
<polygon fill="none" stroke="black" points="1912,-556.5 1912,-625.5 2112,-625.5 2112,-556.5 1912,-556.5"/>
<text text-anchor="start" x="1949" y="-610.3" font-family="Times New Roman,serif" font-size="14.00">LemmatizedDocument</text>
<polyline fill="none" stroke="black" points="1912,-602.5 2112,-602.5"/>
<polyline fill="none" stroke="black" points="1912,-579.5 2112,-579.5"/>
<text text-anchor="start" x="1920" y="-564.3" font-family="Times New Roman,serif" font-size="14.00">__init__(doc: TaggedDocument)</text>
</g>
<!-- InputProcessing.Document.Document&#45;&gt;InputProcessing.Document.LemmatizedDocument -->
<g id="edge1" class="edge">
<title>InputProcessing.Document.Document&#45;&gt;InputProcessing.Document.LemmatizedDocument</title>
<path fill="none" stroke="black" d="M2232,-144.45C2198.29,-174.51 2150.89,-221.45 2121,-271 2066.67,-361.06 2034.9,-481.88 2020.8,-545.89"/>
<polygon fill="none" stroke="black" points="2017.45,-544.79 2018.76,-555.31 2024.29,-546.27 2017.45,-544.79"/>
</g>
<!-- InputProcessing.UploadTask.UploadTask -->
<g id="node19" class="node">
<title>InputProcessing.UploadTask.UploadTask</title>
<polygon fill="none" stroke="black" points="2130,-474 2130,-708 2610,-708 2610,-474 2130,-474"/>
<text text-anchor="start" x="2335" y="-692.8" font-family="Times New Roman,serif" font-size="14.00">UploadTask</text>
<polyline fill="none" stroke="black" points="2130,-685 2610,-685"/>
<text text-anchor="start" x="2327" y="-669.8" font-family="Times New Roman,serif" font-size="14.00">document</text>
<text text-anchor="start" x="2327" y="-654.8" font-family="Times New Roman,serif" font-size="14.00">forms_lock</text>
<text text-anchor="start" x="2327" y="-639.8" font-family="Times New Roman,serif" font-size="14.00">lemmas_lock</text>
<text text-anchor="start" x="2327" y="-624.8" font-family="Times New Roman,serif" font-size="14.00">sentences_lock</text>
<text text-anchor="start" x="2327" y="-609.8" font-family="Times New Roman,serif" font-size="14.00">tokens_lock</text>
<polyline fill="none" stroke="black" points="2130,-602 2610,-602"/>
<text text-anchor="start" x="2138" y="-586.8" font-family="Times New Roman,serif" font-size="14.00">__init__(doc: Document, forms_lock, lemmas_lock, sentences_lock, tokens_lock)</text>
<text text-anchor="start" x="2138" y="-571.8" font-family="Times New Roman,serif" font-size="14.00">insert_document()</text>
<text text-anchor="start" x="2138" y="-556.8" font-family="Times New Roman,serif" font-size="14.00">insert_forms()</text>
<text text-anchor="start" x="2138" y="-541.8" font-family="Times New Roman,serif" font-size="14.00">insert_in_collection()</text>
<text text-anchor="start" x="2138" y="-526.8" font-family="Times New Roman,serif" font-size="14.00">insert_lemmas()</text>
<text text-anchor="start" x="2138" y="-511.8" font-family="Times New Roman,serif" font-size="14.00">insert_sentences()</text>
<text text-anchor="start" x="2138" y="-496.8" font-family="Times New Roman,serif" font-size="14.00">insert_tokens()</text>
<text text-anchor="start" x="2138" y="-481.8" font-family="Times New Roman,serif" font-size="14.00">process_file()</text>
</g>
<!-- InputProcessing.Document.Document&#45;&gt;InputProcessing.UploadTask.UploadTask -->
<g id="edge18" class="edge">
<title>InputProcessing.Document.Document&#45;&gt;InputProcessing.UploadTask.UploadTask</title>
<path fill="none" stroke="black" d="M2278.81,-144.3C2292.03,-208.89 2321.77,-354.26 2343.71,-461.5"/>
<polygon fill="none" stroke="black" points="2343.69,-461.41 2348.81,-466.49 2346.1,-473.17 2340.98,-468.09 2343.69,-461.41"/>
<text text-anchor="middle" x="2329" y="-241.8" font-family="Times New Roman,serif" font-size="14.00" fill="green">document</text>
</g>
<!-- InputProcessing.DocumentBuilder.DocumentBuilder -->
<g id="node3" class="node">
<title>InputProcessing.DocumentBuilder.DocumentBuilder</title>
<polygon fill="none" stroke="black" points="2535.5,-0.5 2535.5,-219.5 2978.5,-219.5 2978.5,-0.5 2535.5,-0.5"/>
<text text-anchor="start" x="2708" y="-204.3" font-family="Times New Roman,serif" font-size="14.00">DocumentBuilder</text>
<polyline fill="none" stroke="black" points="2535.5,-196.5 2978.5,-196.5"/>
<text text-anchor="start" x="2694" y="-181.3" font-family="Times New Roman,serif" font-size="14.00">input : list</text>
<text text-anchor="start" x="2694" y="-166.3" font-family="Times New Roman,serif" font-size="14.00">loop</text>
<text text-anchor="start" x="2694" y="-151.3" font-family="Times New Roman,serif" font-size="14.00">parsers : dict</text>
<text text-anchor="start" x="2694" y="-136.3" font-family="Times New Roman,serif" font-size="14.00">pool : ThreadPool</text>
<text text-anchor="start" x="2694" y="-121.3" font-family="Times New Roman,serif" font-size="14.00">processors : dict</text>
<text text-anchor="start" x="2694" y="-106.3" font-family="Times New Roman,serif" font-size="14.00">threads : list</text>
<text text-anchor="start" x="2694" y="-91.3" font-family="Times New Roman,serif" font-size="14.00">upload_queue : Queue</text>
<polyline fill="none" stroke="black" points="2535.5,-83.5 2978.5,-83.5"/>
<text text-anchor="start" x="2543.5" y="-68.3" font-family="Times New Roman,serif" font-size="14.00">__del__()</text>
<text text-anchor="start" x="2543.5" y="-53.3" font-family="Times New Roman,serif" font-size="14.00">__init__(input: list[str], upload_queue: Queue, parsers: list, processors: dict)</text>
<text text-anchor="start" x="2543.5" y="-38.3" font-family="Times New Roman,serif" font-size="14.00">close()</text>
<text text-anchor="start" x="2543.5" y="-23.3" font-family="Times New Roman,serif" font-size="14.00">pipeline(text: dict)</text>
<text text-anchor="start" x="2543.5" y="-8.3" font-family="Times New Roman,serif" font-size="14.00">run()</text>
</g>
<!-- threading.Thread -->
<g id="node14" class="node">
<title>threading.Thread</title>
<polygon fill="none" stroke="black" points="2628,-271.5 2628,-910.5 2886,-910.5 2886,-271.5 2628,-271.5"/>
<text text-anchor="start" x="2737" y="-895.3" font-family="Times New Roman,serif" font-size="14.00">Thread</text>
<polyline fill="none" stroke="black" points="2628,-887.5 2886,-887.5"/>
<text text-anchor="start" x="2684" y="-872.3" font-family="Times New Roman,serif" font-size="14.00">_args : tuple</text>
<text text-anchor="start" x="2684" y="-857.3" font-family="Times New Roman,serif" font-size="14.00">_daemonic : bool</text>
<text text-anchor="start" x="2684" y="-842.3" font-family="Times New Roman,serif" font-size="14.00">_ident : NoneType</text>
<text text-anchor="start" x="2684" y="-827.3" font-family="Times New Roman,serif" font-size="14.00">_initialized : bool</text>
<text text-anchor="start" x="2684" y="-812.3" font-family="Times New Roman,serif" font-size="14.00">_initialized : bool</text>
<text text-anchor="start" x="2684" y="-797.3" font-family="Times New Roman,serif" font-size="14.00">_invoke_excepthook</text>
<text text-anchor="start" x="2684" y="-782.3" font-family="Times New Roman,serif" font-size="14.00">_is_stopped : bool</text>
<text text-anchor="start" x="2684" y="-767.3" font-family="Times New Roman,serif" font-size="14.00">_kwargs : dict, NoneType</text>
<text text-anchor="start" x="2684" y="-752.3" font-family="Times New Roman,serif" font-size="14.00">_name : str, NoneType</text>
<text text-anchor="start" x="2684" y="-737.3" font-family="Times New Roman,serif" font-size="14.00">_native_id : NoneType</text>
<text text-anchor="start" x="2684" y="-722.3" font-family="Times New Roman,serif" font-size="14.00">_started : Event</text>
<text text-anchor="start" x="2684" y="-707.3" font-family="Times New Roman,serif" font-size="14.00">_state : str</text>
<text text-anchor="start" x="2684" y="-692.3" font-family="Times New Roman,serif" font-size="14.00">_stderr : TextIOWrapper</text>
<text text-anchor="start" x="2684" y="-677.3" font-family="Times New Roman,serif" font-size="14.00">_target : NoneType</text>
<text text-anchor="start" x="2684" y="-662.3" font-family="Times New Roman,serif" font-size="14.00">_tstate_lock : NoneType</text>
<text text-anchor="start" x="2684" y="-647.3" font-family="Times New Roman,serif" font-size="14.00">daemon</text>
<text text-anchor="start" x="2684" y="-632.3" font-family="Times New Roman,serif" font-size="14.00">daemon : bool</text>
<text text-anchor="start" x="2684" y="-617.3" font-family="Times New Roman,serif" font-size="14.00">ident</text>
<text text-anchor="start" x="2684" y="-602.3" font-family="Times New Roman,serif" font-size="14.00">name</text>
<text text-anchor="start" x="2684" y="-587.3" font-family="Times New Roman,serif" font-size="14.00">name</text>
<text text-anchor="start" x="2684" y="-572.3" font-family="Times New Roman,serif" font-size="14.00">native_id</text>
<polyline fill="none" stroke="black" points="2628,-564.5 2886,-564.5"/>
<text text-anchor="start" x="2636" y="-549.3" font-family="Times New Roman,serif" font-size="14.00">__init__(group, target, name, args, kwargs)</text>
<text text-anchor="start" x="2636" y="-534.3" font-family="Times New Roman,serif" font-size="14.00">__repr__()</text>
<text text-anchor="start" x="2636" y="-519.3" font-family="Times New Roman,serif" font-size="14.00">_bootstrap()</text>
<text text-anchor="start" x="2636" y="-504.3" font-family="Times New Roman,serif" font-size="14.00">_bootstrap_inner()</text>
<text text-anchor="start" x="2636" y="-489.3" font-family="Times New Roman,serif" font-size="14.00">_delete()</text>
<text text-anchor="start" x="2636" y="-474.3" font-family="Times New Roman,serif" font-size="14.00">_reset_internal_locks(is_alive)</text>
<text text-anchor="start" x="2636" y="-459.3" font-family="Times New Roman,serif" font-size="14.00">_set_ident()</text>
<text text-anchor="start" x="2636" y="-444.3" font-family="Times New Roman,serif" font-size="14.00">_set_native_id()</text>
<text text-anchor="start" x="2636" y="-429.3" font-family="Times New Roman,serif" font-size="14.00">_set_tstate_lock()</text>
<text text-anchor="start" x="2636" y="-414.3" font-family="Times New Roman,serif" font-size="14.00">_stop()</text>
<text text-anchor="start" x="2636" y="-399.3" font-family="Times New Roman,serif" font-size="14.00">_wait_for_tstate_lock(block, timeout)</text>
<text text-anchor="start" x="2636" y="-384.3" font-family="Times New Roman,serif" font-size="14.00">getName()</text>
<text text-anchor="start" x="2636" y="-369.3" font-family="Times New Roman,serif" font-size="14.00">isDaemon()</text>
<text text-anchor="start" x="2636" y="-354.3" font-family="Times New Roman,serif" font-size="14.00">is_alive()</text>
<text text-anchor="start" x="2636" y="-339.3" font-family="Times New Roman,serif" font-size="14.00">join(timeout)</text>
<text text-anchor="start" x="2636" y="-324.3" font-family="Times New Roman,serif" font-size="14.00">run()</text>
<text text-anchor="start" x="2636" y="-309.3" font-family="Times New Roman,serif" font-size="14.00">setDaemon(daemonic)</text>
<text text-anchor="start" x="2636" y="-294.3" font-family="Times New Roman,serif" font-size="14.00">setName(name)</text>
<text text-anchor="start" x="2636" y="-279.3" font-family="Times New Roman,serif" font-size="14.00">start()</text>
</g>
<!-- InputProcessing.DocumentBuilder.DocumentBuilder&#45;&gt;threading.Thread -->
<g id="edge5" class="edge">
<title>InputProcessing.DocumentBuilder.DocumentBuilder&#45;&gt;threading.Thread</title>
<path fill="none" stroke="black" d="M2757,-219.39C2757,-232.35 2757,-246.05 2757,-260.24"/>
<polygon fill="none" stroke="black" points="2753.5,-260.21 2757,-270.21 2760.5,-260.21 2753.5,-260.21"/>
</g>
<!-- InputProcessing.Processors.Hops.Hops -->
<g id="node4" class="node">
<title>InputProcessing.Processors.Hops.Hops</title>
<polygon fill="none" stroke="black" points="0,-75.5 0,-144.5 438,-144.5 438,-75.5 0,-75.5"/>
<text text-anchor="start" x="203.5" y="-129.3" font-family="Times New Roman,serif" font-size="14.00">Hops</text>
<polyline fill="none" stroke="black" points="0,-121.5 438,-121.5"/>
<polyline fill="none" stroke="black" points="0,-98.5 438,-98.5"/>
<text text-anchor="start" x="8" y="-84.3" font-family="Times New Roman,serif" font-style="italic" font-size="14.00">deprel</text>
<text text-anchor="start" x="45" y="-84.3" font-family="Times New Roman,serif" font-size="14.00">(document: Document.LemmatizedDocument): Document.Document</text>
</g>
<!-- InputProcessing.Processors.Hops.Hops&#45;&gt;InputProcessing.ProcessorInterfaces.DeprelAnalyzerInterface -->
<g id="edge7" class="edge">
<title>InputProcessing.Processors.Hops.Hops&#45;&gt;InputProcessing.ProcessorInterfaces.DeprelAnalyzerInterface</title>
<path fill="none" stroke="black" d="M247.85,-144.3C319.94,-227.5 508.14,-444.73 592.29,-541.86"/>
<polygon fill="none" stroke="black" points="589.43,-543.9 598.63,-549.17 594.72,-539.32 589.43,-543.9"/>
</g>
<!-- InputProcessing.Document.TaggedDocument -->
<g id="node13" class="node">
<title>InputProcessing.Document.TaggedDocument</title>
<polygon fill="none" stroke="black" points="1903.5,-948.5 1903.5,-1017.5 2120.5,-1017.5 2120.5,-948.5 1903.5,-948.5"/>
<text text-anchor="start" x="1962" y="-1002.3" font-family="Times New Roman,serif" font-size="14.00">TaggedDocument</text>
<polyline fill="none" stroke="black" points="1903.5,-994.5 2120.5,-994.5"/>
<polyline fill="none" stroke="black" points="1903.5,-971.5 2120.5,-971.5"/>
<text text-anchor="start" x="1911.5" y="-956.3" font-family="Times New Roman,serif" font-size="14.00">__init__(doc: TokenizedDocument)</text>
</g>
<!-- InputProcessing.Document.LemmatizedDocument&#45;&gt;InputProcessing.Document.TaggedDocument -->
<g id="edge2" class="edge">
<title>InputProcessing.Document.LemmatizedDocument&#45;&gt;InputProcessing.Document.TaggedDocument</title>
<path fill="none" stroke="black" d="M2012,-625.25C2012,-695.25 2012,-857.85 2012,-937.04"/>
<polygon fill="none" stroke="black" points="2008.5,-937.04 2012,-947.04 2015.5,-937.04 2008.5,-937.04"/>
</g>
<!-- InputProcessing.ProcessorInterfaces.LemmatizerInterface -->
<g id="node6" class="node">
<title>InputProcessing.ProcessorInterfaces.LemmatizerInterface</title>
<polygon fill="none" stroke="black" points="1516,-550 1516,-632 1894,-632 1894,-550 1516,-550"/>
<text text-anchor="start" x="1648" y="-616.8" font-family="Times New Roman,serif" font-size="14.00">LemmatizerInterface</text>
<polyline fill="none" stroke="black" points="1516,-609 1894,-609"/>
<polyline fill="none" stroke="black" points="1516,-586 1894,-586"/>
<text text-anchor="start" x="1524" y="-571.8" font-family="Times New Roman,serif" font-size="14.00">__subclasshook__(subclass)</text>
<text text-anchor="start" x="1524" y="-557.8" font-family="Times New Roman,serif" font-style="italic" font-size="14.00">lemmatize</text>
<text text-anchor="start" x="1582" y="-557.8" font-family="Times New Roman,serif" font-size="14.00">(document: TaggedDocument): LemmatizedDocument</text>
</g>
<!-- InputProcessing.Processors.NLTK.NLTK -->
<g id="node7" class="node">
<title>InputProcessing.Processors.NLTK.NLTK</title>
<polygon fill="none" stroke="black" points="456.5,-15.5 456.5,-204.5 919.5,-204.5 919.5,-15.5 456.5,-15.5"/>
<text text-anchor="start" x="669.5" y="-189.3" font-family="Times New Roman,serif" font-size="14.00">NLTK</text>
<polyline fill="none" stroke="black" points="456.5,-181.5 919.5,-181.5"/>
<text text-anchor="start" x="585.5" y="-166.3" font-family="Times New Roman,serif" font-size="14.00">parser : CoreNLPDependencyParser</text>
<text text-anchor="start" x="585.5" y="-151.3" font-family="Times New Roman,serif" font-size="14.00">server : Popen</text>
<text text-anchor="start" x="585.5" y="-136.3" font-family="Times New Roman,serif" font-size="14.00">splitter</text>
<text text-anchor="start" x="585.5" y="-121.3" font-family="Times New Roman,serif" font-size="14.00">tagger : CoreNLPDependencyParser</text>
<polyline fill="none" stroke="black" points="456.5,-113.5 919.5,-113.5"/>
<text text-anchor="start" x="464.5" y="-98.3" font-family="Times New Roman,serif" font-size="14.00">__del__()</text>
<text text-anchor="start" x="464.5" y="-83.3" font-family="Times New Roman,serif" font-size="14.00">__init__()</text>
<text text-anchor="start" x="464.5" y="-68.3" font-family="Times New Roman,serif" font-size="14.00">close()</text>
<text text-anchor="start" x="464.5" y="-53.3" font-family="Times New Roman,serif" font-size="14.00">deprel(document: Document.LemmatizedDocument): Document</text>
<text text-anchor="start" x="464.5" y="-38.3" font-family="Times New Roman,serif" font-size="14.00">tag(document: Document.TokenizedDocument): Document.TaggedDocument</text>
<text text-anchor="start" x="464.5" y="-23.3" font-family="Times New Roman,serif" font-size="14.00">tokenize(document: Document.RawDocument): Document.TokenizedDocument</text>
</g>
<!-- InputProcessing.Processors.NLTK.NLTK&#45;&gt;InputProcessing.ProcessorInterfaces.DeprelAnalyzerInterface -->
<g id="edge8" class="edge">
<title>InputProcessing.Processors.NLTK.NLTK&#45;&gt;InputProcessing.ProcessorInterfaces.DeprelAnalyzerInterface</title>
<path fill="none" stroke="black" d="M677.46,-204.49C666.18,-304.53 648.71,-459.52 639.74,-539.08"/>
<polygon fill="none" stroke="black" points="636.29,-538.42 638.65,-548.75 643.25,-539.2 636.29,-538.42"/>
</g>
<!-- InputProcessing.ProcessorInterfaces.PosTaggerInterface -->
<g id="node9" class="node">
<title>InputProcessing.ProcessorInterfaces.PosTaggerInterface</title>
<polygon fill="none" stroke="black" points="810,-550 810,-632 1140,-632 1140,-550 810,-550"/>
<text text-anchor="start" x="920" y="-616.8" font-family="Times New Roman,serif" font-size="14.00">PosTaggerInterface</text>
<polyline fill="none" stroke="black" points="810,-609 1140,-609"/>
<polyline fill="none" stroke="black" points="810,-586 1140,-586"/>
<text text-anchor="start" x="818" y="-571.8" font-family="Times New Roman,serif" font-size="14.00">__subclasshook__(subclass)</text>
<text text-anchor="start" x="818" y="-557.8" font-family="Times New Roman,serif" font-style="italic" font-size="14.00">tag</text>
<text text-anchor="start" x="837" y="-557.8" font-family="Times New Roman,serif" font-size="14.00">(document: TokenizedDocument): TaggedDocument</text>
</g>
<!-- InputProcessing.Processors.NLTK.NLTK&#45;&gt;InputProcessing.ProcessorInterfaces.PosTaggerInterface -->
<g id="edge9" class="edge">
<title>InputProcessing.Processors.NLTK.NLTK&#45;&gt;InputProcessing.ProcessorInterfaces.PosTaggerInterface</title>
<path fill="none" stroke="black" d="M755.77,-204.19C770.79,-225.82 786.3,-248.97 800,-271 857.58,-363.61 917.09,-476.39 949.73,-540.01"/>
<polygon fill="none" stroke="black" points="946.57,-541.52 954.24,-548.82 952.8,-538.33 946.57,-541.52"/>
</g>
<!-- InputProcessing.ProcessorInterfaces.TokenizerInterface -->
<g id="node16" class="node">
<title>InputProcessing.ProcessorInterfaces.TokenizerInterface</title>
<polygon fill="none" stroke="black" points="1158,-550 1158,-632 1498,-632 1498,-550 1158,-550"/>
<text text-anchor="start" x="1275.5" y="-616.8" font-family="Times New Roman,serif" font-size="14.00">TokenizerInterface</text>
<polyline fill="none" stroke="black" points="1158,-609 1498,-609"/>
<polyline fill="none" stroke="black" points="1158,-586 1498,-586"/>
<text text-anchor="start" x="1166" y="-571.8" font-family="Times New Roman,serif" font-size="14.00">__subclasshook__(subclass)</text>
<text text-anchor="start" x="1166" y="-557.8" font-family="Times New Roman,serif" font-style="italic" font-size="14.00">tokenize</text>
<text text-anchor="start" x="1212" y="-557.8" font-family="Times New Roman,serif" font-size="14.00">(document: RawDocument): TokenizedDocument</text>
</g>
<!-- InputProcessing.Processors.NLTK.NLTK&#45;&gt;InputProcessing.ProcessorInterfaces.TokenizerInterface -->
<g id="edge10" class="edge">
<title>InputProcessing.Processors.NLTK.NLTK&#45;&gt;InputProcessing.ProcessorInterfaces.TokenizerInterface</title>
<path fill="none" stroke="black" d="M885.5,-204.4C899.76,-209.99 914.02,-215.27 928,-220 1023.48,-252.34 1068.33,-210.55 1149,-271 1239.93,-339.14 1291.19,-467.87 1313.82,-539.2"/>
<polygon fill="none" stroke="black" points="1310.46,-540.17 1316.76,-548.69 1317.15,-538.1 1310.46,-540.17"/>
</g>
<!-- InputProcessing.ParserInterface.ParserInterface -->
<g id="node8" class="node">
<title>InputProcessing.ParserInterface.ParserInterface</title>
<polygon fill="none" stroke="black" points="3025.5,-550 3025.5,-632 3206.5,-632 3206.5,-550 3025.5,-550"/>
<text text-anchor="start" x="3073.5" y="-616.8" font-family="Times New Roman,serif" font-size="14.00">ParserInterface</text>
<polyline fill="none" stroke="black" points="3025.5,-609 3206.5,-609"/>
<polyline fill="none" stroke="black" points="3025.5,-586 3206.5,-586"/>
<text text-anchor="start" x="3033.5" y="-571.8" font-family="Times New Roman,serif" font-size="14.00">__subclasshook__(subclass)</text>
<text text-anchor="start" x="3033.5" y="-557.8" font-family="Times New Roman,serif" font-style="italic" font-size="14.00">parse</text>
<text text-anchor="start" x="3065.5" y="-557.8" font-family="Times New Roman,serif" font-size="14.00">(txt: str, name: str): Any</text>
</g>
<!-- InputProcessing.Document.RawDocument -->
<g id="node10" class="node">
<title>InputProcessing.Document.RawDocument</title>
<polygon fill="none" stroke="black" points="1916,-1177.5 1916,-1261.5 2108,-1261.5 2108,-1177.5 1916,-1177.5"/>
<text text-anchor="start" x="1970" y="-1246.3" font-family="Times New Roman,serif" font-size="14.00">RawDocument</text>
<polyline fill="none" stroke="black" points="1916,-1238.5 2108,-1238.5"/>
<text text-anchor="start" x="1978.5" y="-1223.3" font-family="Times New Roman,serif" font-size="14.00">content : str</text>
<text text-anchor="start" x="1978.5" y="-1208.3" font-family="Times New Roman,serif" font-size="14.00">name : str</text>
<polyline fill="none" stroke="black" points="1916,-1200.5 2108,-1200.5"/>
<text text-anchor="start" x="1924" y="-1185.3" font-family="Times New Roman,serif" font-size="14.00">__init__(name: str, content: str)</text>
</g>
<!-- InputProcessing.Processors.Spacy.Spacy -->
<g id="node11" class="node">
<title>InputProcessing.Processors.Spacy.Spacy</title>
<polygon fill="none" stroke="black" points="937.5,-48 937.5,-172 1438.5,-172 1438.5,-48 937.5,-48"/>
<text text-anchor="start" x="1170" y="-156.8" font-family="Times New Roman,serif" font-size="14.00">Spacy</text>
<polyline fill="none" stroke="black" points="937.5,-149 1438.5,-149"/>
<polyline fill="none" stroke="black" points="937.5,-126 1438.5,-126"/>
<text text-anchor="start" x="945.5" y="-111.8" font-family="Times New Roman,serif" font-size="14.00">__init__()</text>
<text text-anchor="start" x="945.5" y="-97.8" font-family="Times New Roman,serif" font-style="italic" font-size="14.00">deprel</text>
<text text-anchor="start" x="982.5" y="-97.8" font-family="Times New Roman,serif" font-size="14.00">(document: Document.LemmatizedDocument): Document.Document</text>
<text text-anchor="start" x="945.5" y="-83.8" font-family="Times New Roman,serif" font-style="italic" font-size="14.00">lemmatize</text>
<text text-anchor="start" x="1003.5" y="-83.8" font-family="Times New Roman,serif" font-size="14.00">(document: Document.TaggedDocument): Document.LemmatizedDocument</text>
<text text-anchor="start" x="945.5" y="-69.8" font-family="Times New Roman,serif" font-style="italic" font-size="14.00">tag</text>
<text text-anchor="start" x="964.5" y="-69.8" font-family="Times New Roman,serif" font-size="14.00">(document: Document.TokenizedDocument): Document.TaggedDocument</text>
<text text-anchor="start" x="945.5" y="-55.8" font-family="Times New Roman,serif" font-style="italic" font-size="14.00">tokenize</text>
<text text-anchor="start" x="991.5" y="-55.8" font-family="Times New Roman,serif" font-size="14.00">(document: Document.RawDocument): Document.TokenizedDocument</text>
</g>
<!-- InputProcessing.Processors.Spacy.Spacy&#45;&gt;InputProcessing.ProcessorInterfaces.DeprelAnalyzerInterface -->
<g id="edge11" class="edge">
<title>InputProcessing.Processors.Spacy.Spacy&#45;&gt;InputProcessing.ProcessorInterfaces.DeprelAnalyzerInterface</title>
<path fill="none" stroke="black" d="M1043.76,-171.93C1006.13,-187.7 965.58,-204.58 928,-220 871.73,-243.09 846.11,-230.2 801,-271 718.7,-345.42 670.24,-470.01 648.26,-539.41"/>
<polygon fill="none" stroke="black" points="645.03,-538.02 645.41,-548.61 651.71,-540.1 645.03,-538.02"/>
</g>
<!-- InputProcessing.Processors.Spacy.Spacy&#45;&gt;InputProcessing.ProcessorInterfaces.LemmatizerInterface -->
<g id="edge12" class="edge">
<title>InputProcessing.Processors.Spacy.Spacy&#45;&gt;InputProcessing.ProcessorInterfaces.LemmatizerInterface</title>
<path fill="none" stroke="black" d="M1351.31,-171.82C1404.91,-197.01 1462.17,-230.05 1507,-271 1592.09,-348.71 1654.09,-471.23 1684.3,-539.6"/>
<polygon fill="none" stroke="black" points="1681.07,-540.94 1688.27,-548.71 1687.48,-538.14 1681.07,-540.94"/>
</g>
<!-- InputProcessing.Processors.Spacy.Spacy&#45;&gt;InputProcessing.ProcessorInterfaces.PosTaggerInterface -->
<g id="edge13" class="edge">
<title>InputProcessing.Processors.Spacy.Spacy&#45;&gt;InputProcessing.ProcessorInterfaces.PosTaggerInterface</title>
<path fill="none" stroke="black" d="M1161.02,-171.67C1118.53,-267.22 1036.8,-451.01 997.37,-539.69"/>
<polygon fill="none" stroke="black" points="994.26,-538.08 993.39,-548.64 1000.65,-540.93 994.26,-538.08"/>
</g>
<!-- InputProcessing.Processors.Spacy.Spacy&#45;&gt;InputProcessing.ProcessorInterfaces.TokenizerInterface -->
<g id="edge14" class="edge">
<title>InputProcessing.Processors.Spacy.Spacy&#45;&gt;InputProcessing.ProcessorInterfaces.TokenizerInterface</title>
<path fill="none" stroke="black" d="M1205.73,-171.67C1233.6,-267.03 1287.16,-450.26 1313.14,-539.15"/>
<polygon fill="none" stroke="black" points="1309.73,-539.96 1315.89,-548.57 1316.45,-537.99 1309.73,-539.96"/>
</g>
<!-- InputProcessing.Parsers.TXT.TXT -->
<g id="node12" class="node">
<title>InputProcessing.Parsers.TXT.TXT</title>
<polygon fill="none" stroke="black" points="2996.5,-75.5 2996.5,-144.5 3235.5,-144.5 3235.5,-75.5 2996.5,-75.5"/>
<text text-anchor="start" x="3102" y="-129.3" font-family="Times New Roman,serif" font-size="14.00">TXT</text>
<polyline fill="none" stroke="black" points="2996.5,-121.5 3235.5,-121.5"/>
<text text-anchor="start" x="3073.5" y="-106.3" font-family="Times New Roman,serif" font-size="14.00">extensions : list</text>
<polyline fill="none" stroke="black" points="2996.5,-98.5 3235.5,-98.5"/>
<text text-anchor="start" x="3004.5" y="-83.3" font-family="Times New Roman,serif" font-size="14.00">parse(txt: str, name: str): RawDocument</text>
</g>
<!-- InputProcessing.Parsers.TXT.TXT&#45;&gt;InputProcessing.ParserInterface.ParserInterface -->
<g id="edge6" class="edge">
<title>InputProcessing.Parsers.TXT.TXT&#45;&gt;InputProcessing.ParserInterface.ParserInterface</title>
<path fill="none" stroke="black" d="M3116,-144.3C3116,-226.67 3116,-440.37 3116,-538.89"/>
<polygon fill="none" stroke="black" points="3112.5,-538.8 3116,-548.8 3119.5,-538.8 3112.5,-538.8"/>
</g>
<!-- InputProcessing.Document.TokenizedDocument -->
<g id="node15" class="node">
<title>InputProcessing.Document.TokenizedDocument</title>
<polygon fill="none" stroke="black" points="1841,-1055.5 1841,-1139.5 2183,-1139.5 2183,-1055.5 1841,-1055.5"/>
<text text-anchor="start" x="1953.5" y="-1124.3" font-family="Times New Roman,serif" font-size="14.00">TokenizedDocument</text>
<polyline fill="none" stroke="black" points="1841,-1116.5 2183,-1116.5"/>
<polyline fill="none" stroke="black" points="1841,-1093.5 2183,-1093.5"/>
<text text-anchor="start" x="1849" y="-1078.3" font-family="Times New Roman,serif" font-size="14.00">__init__(doc: RawDocument)</text>
<text text-anchor="start" x="1849" y="-1063.3" font-family="Times New Roman,serif" font-size="14.00">_check_arguments(type: Callable, doc, expectedArgs: set)</text>
</g>
<!-- InputProcessing.Document.TaggedDocument&#45;&gt;InputProcessing.Document.TokenizedDocument -->
<g id="edge3" class="edge">
<title>InputProcessing.Document.TaggedDocument&#45;&gt;InputProcessing.Document.TokenizedDocument</title>
<path fill="none" stroke="black" d="M2012,-1017.45C2012,-1025.92 2012,-1035.22 2012,-1044.38"/>
<polygon fill="none" stroke="black" points="2008.5,-1044.31 2012,-1054.31 2015.5,-1044.31 2008.5,-1044.31"/>
</g>
<!-- InputProcessing.Document.TokenizedDocument&#45;&gt;InputProcessing.Document.RawDocument -->
<g id="edge4" class="edge">
<title>InputProcessing.Document.TokenizedDocument&#45;&gt;InputProcessing.Document.RawDocument</title>
<path fill="none" stroke="black" d="M2012,-1139.46C2012,-1148.15 2012,-1157.43 2012,-1166.47"/>
<polygon fill="none" stroke="black" points="2008.5,-1166.21 2012,-1176.21 2015.5,-1166.21 2008.5,-1166.21"/>
</g>
<!-- InputProcessing.Processors.TreeTagger.TreeTagger -->
<g id="node17" class="node">
<title>InputProcessing.Processors.TreeTagger.TreeTagger</title>
<polygon fill="none" stroke="black" points="1456.5,-45.5 1456.5,-174.5 1953.5,-174.5 1953.5,-45.5 1456.5,-45.5"/>
<text text-anchor="start" x="1672.5" y="-159.3" font-family="Times New Roman,serif" font-size="14.00">TreeTagger</text>
<polyline fill="none" stroke="black" points="1456.5,-151.5 1953.5,-151.5"/>
<text text-anchor="start" x="1650.5" y="-136.3" font-family="Times New Roman,serif" font-size="14.00">mk_tags</text>
<text text-anchor="start" x="1650.5" y="-121.3" font-family="Times New Roman,serif" font-size="14.00">tagger : TreeTagger</text>
<polyline fill="none" stroke="black" points="1456.5,-113.5 1953.5,-113.5"/>
<text text-anchor="start" x="1464.5" y="-98.3" font-family="Times New Roman,serif" font-size="14.00">__init__()</text>
<text text-anchor="start" x="1464.5" y="-83.3" font-family="Times New Roman,serif" font-size="14.00">lemmatize(document: Document.TaggedDocument): Document.LemmatizedDocument</text>
<text text-anchor="start" x="1464.5" y="-68.3" font-family="Times New Roman,serif" font-size="14.00">tag(document: Document.TokenizedDocument): Document.TaggedDocument</text>
<text text-anchor="start" x="1464.5" y="-53.3" font-family="Times New Roman,serif" font-size="14.00">tokenize(document: Document.RawDocument): Document.TokenizedDocument</text>
</g>
<!-- InputProcessing.Processors.TreeTagger.TreeTagger&#45;&gt;InputProcessing.ProcessorInterfaces.LemmatizerInterface -->
<g id="edge15" class="edge">
<title>InputProcessing.Processors.TreeTagger.TreeTagger&#45;&gt;InputProcessing.ProcessorInterfaces.LemmatizerInterface</title>
<path fill="none" stroke="black" d="M1705,-174.11C1705,-270.03 1705,-450.63 1705,-538.87"/>
<polygon fill="none" stroke="black" points="1701.5,-538.66 1705,-548.66 1708.5,-538.66 1701.5,-538.66"/>
</g>
<!-- InputProcessing.Processors.TreeTagger.TreeTagger&#45;&gt;InputProcessing.ProcessorInterfaces.PosTaggerInterface -->
<g id="edge16" class="edge">
<title>InputProcessing.Processors.TreeTagger.TreeTagger&#45;&gt;InputProcessing.ProcessorInterfaces.PosTaggerInterface</title>
<path fill="none" stroke="black" d="M1571.23,-174.41C1531.88,-191.16 1488.3,-207.92 1447,-220 1318.04,-257.73 1258.32,-192.87 1149,-271 1056.92,-336.8 1008.44,-467.04 987.68,-539.09"/>
<polygon fill="none" stroke="black" points="984.32,-538.1 984.99,-548.67 991.06,-539.99 984.32,-538.1"/>
</g>
<!-- InputProcessing.Processors.TreeTagger.TreeTagger&#45;&gt;InputProcessing.ProcessorInterfaces.TokenizerInterface -->
<g id="edge17" class="edge">
<title>InputProcessing.Processors.TreeTagger.TreeTagger&#45;&gt;InputProcessing.ProcessorInterfaces.TokenizerInterface</title>
<path fill="none" stroke="black" d="M1612.11,-174.36C1576.55,-201.46 1537.3,-235.12 1507,-271 1435.39,-355.8 1378.13,-473.49 1349,-539.64"/>
<polygon fill="none" stroke="black" points="1345.79,-538.24 1345,-548.81 1352.21,-541.04 1345.79,-538.24"/>
</g>
<!-- InputProcessing.UploadMachine.UploadMachine -->
<g id="node18" class="node">
<title>InputProcessing.UploadMachine.UploadMachine</title>
<polygon fill="none" stroke="black" points="3254,-8 3254,-212 3396,-212 3396,-8 3254,-8"/>
<text text-anchor="start" x="3280.5" y="-196.8" font-family="Times New Roman,serif" font-size="14.00">UploadMachine</text>
<polyline fill="none" stroke="black" points="3254,-189 3396,-189"/>
<text text-anchor="start" x="3262" y="-173.8" font-family="Times New Roman,serif" font-size="14.00">forms_lock : Lock</text>
<text text-anchor="start" x="3262" y="-158.8" font-family="Times New Roman,serif" font-size="14.00">lemmas_lock : Lock</text>
<text text-anchor="start" x="3262" y="-143.8" font-family="Times New Roman,serif" font-size="14.00">loop</text>
<text text-anchor="start" x="3262" y="-128.8" font-family="Times New Roman,serif" font-size="14.00">queue : Queue</text>
<text text-anchor="start" x="3262" y="-113.8" font-family="Times New Roman,serif" font-size="14.00">sentences_lock : Lock</text>
<text text-anchor="start" x="3262" y="-98.8" font-family="Times New Roman,serif" font-size="14.00">tasks</text>
<text text-anchor="start" x="3262" y="-83.8" font-family="Times New Roman,serif" font-size="14.00">to_treat : int</text>
<text text-anchor="start" x="3262" y="-68.8" font-family="Times New Roman,serif" font-size="14.00">tokens_lock : Lock</text>
<polyline fill="none" stroke="black" points="3254,-61 3396,-61"/>
<text text-anchor="start" x="3265.5" y="-45.8" font-family="Times New Roman,serif" font-size="14.00">__init__(to_treat: int)</text>
<text text-anchor="start" x="3265.5" y="-30.8" font-family="Times New Roman,serif" font-size="14.00">run()</text>
<text text-anchor="start" x="3265.5" y="-15.8" font-family="Times New Roman,serif" font-size="14.00">worker()</text>
</g>
</g>
</svg>
