<?xml version="1.0" encoding="UTF-8" standalone="no"?>
<!DOCTYPE svg PUBLIC "-//W3C//DTD SVG 1.1//EN"
 "http://www.w3.org/Graphics/SVG/1.1/DTD/svg11.dtd">
<!-- Generated by graphviz version 7.1.0 (20230121.1956)
 -->
<!-- Title: packages_FileProcessing Pages: 1 -->
<svg width="2124pt" height="188pt"
 viewBox="0.00 0.00 2123.50 188.00" xmlns="http://www.w3.org/2000/svg" xmlns:xlink="http://www.w3.org/1999/xlink">
<g id="graph0" class="graph" transform="scale(1 1) rotate(0) translate(4 184)">
<title>packages_FileProcessing</title>
<polygon fill="white" stroke="none" points="-4,4 -4,-184 2119.5,-184 2119.5,4 -4,4"/>
<!-- FileProcessing -->
<g id="node1" class="node">
<title>FileProcessing</title>
<polygon fill="none" stroke="black" points="185,-36 87,-36 87,0 185,0 185,-36"/>
<text text-anchor="middle" x="136" y="-14.3" font-family="Times New Roman,serif" font-size="14.00">FileProcessing</text>
</g>
<!-- FileProcessing.Document -->
<g id="node2" class="node">
<title>FileProcessing.Document</title>
<polygon fill="none" stroke="black" points="379,-180 219,-180 219,-144 379,-144 379,-180"/>
<text text-anchor="middle" x="299" y="-158.3" font-family="Times New Roman,serif" font-size="14.00">FileProcessing.Document</text>
</g>
<!-- FileProcessing.DocumentBuilder -->
<g id="node3" class="node">
<title>FileProcessing.DocumentBuilder</title>
<polygon fill="none" stroke="black" points="660,-108 460,-108 460,-72 660,-72 660,-108"/>
<text text-anchor="middle" x="560" y="-86.3" font-family="Times New Roman,serif" font-size="14.00">FileProcessing.DocumentBuilder</text>
</g>
<!-- FileProcessing.DocumentBuilder&#45;&gt;FileProcessing.Document -->
<g id="edge1" class="edge">
<title>FileProcessing.DocumentBuilder&#45;&gt;FileProcessing.Document</title>
<path fill="none" stroke="black" d="M494.81,-108.48C457.93,-118.38 411.66,-130.78 373.36,-141.06"/>
<polygon fill="black" stroke="black" points="363.81,-143.62 372.3,-136.68 368.64,-142.32 373.47,-141.03 373.47,-141.03 373.47,-141.03 368.64,-142.32 374.63,-145.37 363.81,-143.62 363.81,-143.62"/>
</g>
<!-- FileProcessing.Parsers -->
<g id="node5" class="node">
<title>FileProcessing.Parsers</title>
<polygon fill="none" stroke="black" points="631.5,-180 488.5,-180 488.5,-144 631.5,-144 631.5,-180"/>
<text text-anchor="middle" x="560" y="-158.3" font-family="Times New Roman,serif" font-size="14.00">FileProcessing.Parsers</text>
</g>
<!-- FileProcessing.DocumentBuilder&#45;&gt;FileProcessing.Parsers -->
<g id="edge2" class="edge">
<title>FileProcessing.DocumentBuilder&#45;&gt;FileProcessing.Parsers</title>
<path fill="none" stroke="black" d="M560,-108.3C560,-116.1 560,-125.49 560,-134.17"/>
<polygon fill="black" stroke="black" points="560,-143.9 555.5,-133.9 560,-138.9 560,-133.9 560,-133.9 560,-133.9 560,-138.9 564.5,-133.9 560,-143.9 560,-143.9"/>
</g>
<!-- FileProcessing.ParserInterfaces -->
<g id="node4" class="node">
<title>FileProcessing.ParserInterfaces</title>
<polygon fill="none" stroke="black" points="605,-36 413,-36 413,0 605,0 605,-36"/>
<text text-anchor="middle" x="509" y="-14.3" font-family="Times New Roman,serif" font-size="14.00">FileProcessing.ParserInterfaces</text>
</g>
<!-- FileProcessing.Parsers.CoNLLU -->
<g id="node6" class="node">
<title>FileProcessing.Parsers.CoNLLU</title>
<polygon fill="none" stroke="black" points="823,-36 623,-36 623,0 823,0 823,-36"/>
<text text-anchor="middle" x="723" y="-14.3" font-family="Times New Roman,serif" font-size="14.00">FileProcessing.Parsers.CoNLLU</text>
</g>
<!-- FileProcessing.Parsers.TXT -->
<g id="node7" class="node">
<title>FileProcessing.Parsers.TXT</title>
<polygon fill="none" stroke="black" points="1016.5,-36 841.5,-36 841.5,0 1016.5,0 1016.5,-36"/>
<text text-anchor="middle" x="929" y="-14.3" font-family="Times New Roman,serif" font-size="14.00">FileProcessing.Parsers.TXT</text>
</g>
<!-- FileProcessing.ProcessorInterfaces -->
<g id="node8" class="node">
<title>FileProcessing.ProcessorInterfaces</title>
<polygon fill="none" stroke="black" points="214,-108 0,-108 0,-72 214,-72 214,-108"/>
<text text-anchor="middle" x="107" y="-86.3" font-family="Times New Roman,serif" font-size="14.00">FileProcessing.ProcessorInterfaces</text>
</g>
<!-- FileProcessing.ProcessorInterfaces&#45;&gt;FileProcessing.Document -->
<g id="edge3" class="edge">
<title>FileProcessing.ProcessorInterfaces&#45;&gt;FileProcessing.Document</title>
<path fill="none" stroke="black" d="M154.95,-108.48C181.4,-118.12 214.4,-130.16 242.14,-140.27"/>
<polygon fill="black" stroke="black" points="251.32,-143.62 240.39,-144.42 246.63,-141.91 241.93,-140.19 241.93,-140.19 241.93,-140.19 246.63,-141.91 243.47,-135.97 251.32,-143.62 251.32,-143.62"/>
</g>
<!-- FileProcessing.Processors -->
<g id="node9" class="node">
<title>FileProcessing.Processors</title>
<polygon fill="none" stroke="black" points="1199.5,-36 1034.5,-36 1034.5,0 1199.5,0 1199.5,-36"/>
<text text-anchor="middle" x="1117" y="-14.3" font-family="Times New Roman,serif" font-size="14.00">FileProcessing.Processors</text>
</g>
<!-- FileProcessing.Processors.Hops -->
<g id="node10" class="node">
<title>FileProcessing.Processors.Hops</title>
<polygon fill="none" stroke="black" points="1418,-36 1218,-36 1218,0 1418,0 1418,-36"/>
<text text-anchor="middle" x="1318" y="-14.3" font-family="Times New Roman,serif" font-size="14.00">FileProcessing.Processors.Hops</text>
</g>
<!-- FileProcessing.Processors.NLTK -->
<g id="node11" class="node">
<title>FileProcessing.Processors.NLTK</title>
<polygon fill="none" stroke="black" points="1642,-36 1436,-36 1436,0 1642,0 1642,-36"/>
<text text-anchor="middle" x="1539" y="-14.3" font-family="Times New Roman,serif" font-size="14.00">FileProcessing.Processors.NLTK</text>
</g>
<!-- FileProcessing.Processors.Spacy -->
<g id="node12" class="node">
<title>FileProcessing.Processors.Spacy</title>
<polygon fill="none" stroke="black" points="1864,-36 1660,-36 1660,0 1864,0 1864,-36"/>
<text text-anchor="middle" x="1762" y="-14.3" font-family="Times New Roman,serif" font-size="14.00">FileProcessing.Processors.Spacy</text>
</g>
<!-- FileProcessing.Processors.TreeTagger -->
<g id="node13" class="node">
<title>FileProcessing.Processors.TreeTagger</title>
<polygon fill="none" stroke="black" points="2115.5,-36 1882.5,-36 1882.5,0 2115.5,0 2115.5,-36"/>
<text text-anchor="middle" x="1999" y="-14.3" font-family="Times New Roman,serif" font-size="14.00">FileProcessing.Processors.TreeTagger</text>
</g>
<!-- FileProcessing.UploadMachine -->
<g id="node14" class="node">
<title>FileProcessing.UploadMachine</title>
<polygon fill="none" stroke="black" points="394.5,-36 203.5,-36 203.5,0 394.5,0 394.5,-36"/>
<text text-anchor="middle" x="299" y="-14.3" font-family="Times New Roman,serif" font-size="14.00">FileProcessing.UploadMachine</text>
</g>
<!-- FileProcessing.UploadMachine&#45;&gt;FileProcessing.Document -->
<g id="edge4" class="edge">
<title>FileProcessing.UploadMachine&#45;&gt;FileProcessing.Document</title>
<path fill="none" stroke="black" d="M282.54,-36.08C274.35,-45.78 265.3,-58.63 261,-72 256.1,-87.23 256.1,-92.77 261,-108 264.22,-118.02 270.12,-127.76 276.32,-136.09"/>
<polygon fill="black" stroke="black" points="282.54,-143.92 272.79,-138.89 279.43,-140 276.32,-136.09 276.32,-136.09 276.32,-136.09 279.43,-140 279.84,-133.29 282.54,-143.92 282.54,-143.92"/>
</g>
<!-- FileProcessing.UploadTask -->
<g id="node15" class="node">
<title>FileProcessing.UploadTask</title>
<polygon fill="none" stroke="black" points="441.5,-108 270.5,-108 270.5,-72 441.5,-72 441.5,-108"/>
<text text-anchor="middle" x="356" y="-86.3" font-family="Times New Roman,serif" font-size="14.00">FileProcessing.UploadTask</text>
</g>
<!-- FileProcessing.UploadMachine&#45;&gt;FileProcessing.UploadTask -->
<g id="edge5" class="edge">
<title>FileProcessing.UploadMachine&#45;&gt;FileProcessing.UploadTask</title>
<path fill="none" stroke="black" d="M313.09,-36.3C319.99,-44.78 328.43,-55.14 335.98,-64.42"/>
<polygon fill="black" stroke="black" points="342.07,-71.9 332.27,-66.98 338.92,-68.02 335.76,-64.14 335.76,-64.14 335.76,-64.14 338.92,-68.02 339.25,-61.3 342.07,-71.9 342.07,-71.9"/>
</g>
<!-- FileProcessing.UploadTask&#45;&gt;FileProcessing.Document -->
<g id="edge6" class="edge">
<title>FileProcessing.UploadTask&#45;&gt;FileProcessing.Document</title>
<path fill="none" stroke="black" d="M341.91,-108.3C335.01,-116.78 326.57,-127.14 319.02,-136.42"/>
<polygon fill="black" stroke="black" points="312.93,-143.9 315.75,-133.3 316.08,-140.02 319.24,-136.14 319.24,-136.14 319.24,-136.14 316.08,-140.02 322.73,-138.98 312.93,-143.9 312.93,-143.9"/>
</g>
</g>
</svg>
