<?xml version="1.0" encoding="UTF-8" standalone="no"?>
<!DOCTYPE svg PUBLIC "-//W3C//DTD SVG 1.1//EN"
 "http://www.w3.org/Graphics/SVG/1.1/DTD/svg11.dtd">
<!-- Generated by graphviz version 7.1.0 (20230121.1956)
 -->
<!-- Title: packages_InputProcessing Pages: 1 -->
<svg width="1004pt" height="116pt"
 viewBox="0.00 0.00 1004.00 116.00" xmlns="http://www.w3.org/2000/svg" xmlns:xlink="http://www.w3.org/1999/xlink">
<g id="graph0" class="graph" transform="scale(1 1) rotate(0) translate(4 112)">
<title>packages_InputProcessing</title>
<polygon fill="white" stroke="none" points="-4,4 -4,-112 1000,-112 1000,4 -4,4"/>
<!-- InputProcessing -->
<g id="node1" class="node">
<title>InputProcessing</title>
<polygon fill="none" stroke="black" points="107,-36 0,-36 0,0 107,0 107,-36"/>
<text text-anchor="middle" x="53.5" y="-14.3" font-family="Times New Roman,serif" font-size="14.00">InputProcessing</text>
</g>
<!-- InputProcessing.Document -->
<g id="node2" class="node">
<title>InputProcessing.Document</title>
<polygon fill="none" stroke="black" points="320,-108 151,-108 151,-72 320,-72 320,-108"/>
<text text-anchor="middle" x="235.5" y="-86.3" font-family="Times New Roman,serif" font-size="14.00">InputProcessing.Document</text>
</g>
<!-- InputProcessing.ProcessorTemplate -->
<g id="node3" class="node">
<title>InputProcessing.ProcessorTemplate</title>
<polygon fill="none" stroke="black" points="345.5,-36 125.5,-36 125.5,0 345.5,0 345.5,-36"/>
<text text-anchor="middle" x="235.5" y="-14.3" font-family="Times New Roman,serif" font-size="14.00">InputProcessing.ProcessorTemplate</text>
</g>
<!-- InputProcessing.ProcessorTemplate&#45;&gt;InputProcessing.Document -->
<g id="edge1" class="edge">
<title>InputProcessing.ProcessorTemplate&#45;&gt;InputProcessing.Document</title>
<path fill="none" stroke="black" d="M235.5,-36.3C235.5,-44.1 235.5,-53.49 235.5,-62.17"/>
<polygon fill="black" stroke="black" points="235.5,-71.9 231,-61.9 235.5,-66.9 235.5,-61.9 235.5,-61.9 235.5,-61.9 235.5,-66.9 240,-61.9 235.5,-71.9 235.5,-71.9"/>
</g>
<!-- InputProcessing.Processors -->
<g id="node4" class="node">
<title>InputProcessing.Processors</title>
<polygon fill="none" stroke="black" points="537.5,-36 363.5,-36 363.5,0 537.5,0 537.5,-36"/>
<text text-anchor="middle" x="450.5" y="-14.3" font-family="Times New Roman,serif" font-size="14.00">InputProcessing.Processors</text>
</g>
<!-- InputProcessing.Processors.Hops -->
<g id="node5" class="node">
<title>InputProcessing.Processors.Hops</title>
<polygon fill="none" stroke="black" points="765,-36 556,-36 556,0 765,0 765,-36"/>
<text text-anchor="middle" x="660.5" y="-14.3" font-family="Times New Roman,serif" font-size="14.00">InputProcessing.Processors.Hops</text>
</g>
<!-- InputProcessing.Processors.Spacy -->
<g id="node6" class="node">
<title>InputProcessing.Processors.Spacy</title>
<polygon fill="none" stroke="black" points="996,-36 783,-36 783,0 996,0 996,-36"/>
<text text-anchor="middle" x="889.5" y="-14.3" font-family="Times New Roman,serif" font-size="14.00">InputProcessing.Processors.Spacy</text>
</g>
</g>
</svg>
