<?xml version="1.0" encoding="UTF-8" standalone="no"?>
<!DOCTYPE svg PUBLIC "-//W3C//DTD SVG 1.1//EN"
 "http://www.w3.org/Graphics/SVG/1.1/DTD/svg11.dtd">
<!-- Generated by graphviz version 7.1.0 (20230121.1956)
 -->
<!-- Title: packages_InputProcessing Pages: 1 -->
<svg width="2000pt" height="188pt"
 viewBox="0.00 0.00 1999.50 188.00" xmlns="http://www.w3.org/2000/svg" xmlns:xlink="http://www.w3.org/1999/xlink">
<g id="graph0" class="graph" transform="scale(1 1) rotate(0) translate(4 184)">
<title>packages_InputProcessing</title>
<polygon fill="white" stroke="none" points="-4,4 -4,-184 1995.5,-184 1995.5,4 -4,4"/>
<!-- InputProcessing -->
<g id="node1" class="node">
<title>InputProcessing</title>
<polygon fill="none" stroke="black" points="213,-36 106,-36 106,0 213,0 213,-36"/>
<text text-anchor="middle" x="159.5" y="-14.3" font-family="Times New Roman,serif" font-size="14.00">InputProcessing</text>
</g>
<!-- InputProcessing.Document -->
<g id="node2" class="node">
<title>InputProcessing.Document</title>
<polygon fill="none" stroke="black" points="416,-180 247,-180 247,-144 416,-144 416,-180"/>
<text text-anchor="middle" x="331.5" y="-158.3" font-family="Times New Roman,serif" font-size="14.00">InputProcessing.Document</text>
</g>
<!-- InputProcessing.DocumentBuilder -->
<g id="node3" class="node">
<title>InputProcessing.DocumentBuilder</title>
<polygon fill="none" stroke="black" points="649,-108 440,-108 440,-72 649,-72 649,-108"/>
<text text-anchor="middle" x="544.5" y="-86.3" font-family="Times New Roman,serif" font-size="14.00">InputProcessing.DocumentBuilder</text>
</g>
<!-- InputProcessing.DocumentBuilder&#45;&gt;InputProcessing.Document -->
<g id="edge1" class="edge">
<title>InputProcessing.DocumentBuilder&#45;&gt;InputProcessing.Document</title>
<path fill="none" stroke="black" d="M491.3,-108.48C461.71,-118.21 424.72,-130.36 393.78,-140.53"/>
<polygon fill="black" stroke="black" points="384.39,-143.62 392.49,-136.22 389.14,-142.06 393.89,-140.5 393.89,-140.5 393.89,-140.5 389.14,-142.06 395.3,-144.77 384.39,-143.62 384.39,-143.62"/>
</g>
<!-- InputProcessing.Parsers -->
<g id="node5" class="node">
<title>InputProcessing.Parsers</title>
<polygon fill="none" stroke="black" points="620.5,-180 468.5,-180 468.5,-144 620.5,-144 620.5,-180"/>
<text text-anchor="middle" x="544.5" y="-158.3" font-family="Times New Roman,serif" font-size="14.00">InputProcessing.Parsers</text>
</g>
<!-- InputProcessing.DocumentBuilder&#45;&gt;InputProcessing.Parsers -->
<g id="edge2" class="edge">
<title>InputProcessing.DocumentBuilder&#45;&gt;InputProcessing.Parsers</title>
<path fill="none" stroke="black" d="M544.5,-108.3C544.5,-116.1 544.5,-125.49 544.5,-134.17"/>
<polygon fill="black" stroke="black" points="544.5,-143.9 540,-133.9 544.5,-138.9 544.5,-133.9 544.5,-133.9 544.5,-133.9 544.5,-138.9 549,-133.9 544.5,-143.9 544.5,-143.9"/>
</g>
<!-- InputProcessing.ParserInterface -->
<g id="node4" class="node">
<title>InputProcessing.ParserInterface</title>
<polygon fill="none" stroke="black" points="645,-36 450,-36 450,0 645,0 645,-36"/>
<text text-anchor="middle" x="547.5" y="-14.3" font-family="Times New Roman,serif" font-size="14.00">InputProcessing.ParserInterface</text>
</g>
<!-- InputProcessing.Parsers.TXT -->
<g id="node6" class="node">
<title>InputProcessing.Parsers.TXT</title>
<polygon fill="none" stroke="black" points="847.5,-36 663.5,-36 663.5,0 847.5,0 847.5,-36"/>
<text text-anchor="middle" x="755.5" y="-14.3" font-family="Times New Roman,serif" font-size="14.00">InputProcessing.Parsers.TXT</text>
</g>
<!-- InputProcessing.ProcessorInterfaces -->
<g id="node7" class="node">
<title>InputProcessing.ProcessorInterfaces</title>
<polygon fill="none" stroke="black" points="223,-108 0,-108 0,-72 223,-72 223,-108"/>
<text text-anchor="middle" x="111.5" y="-86.3" font-family="Times New Roman,serif" font-size="14.00">InputProcessing.ProcessorInterfaces</text>
</g>
<!-- InputProcessing.ProcessorInterfaces&#45;&gt;InputProcessing.Document -->
<g id="edge3" class="edge">
<title>InputProcessing.ProcessorInterfaces&#45;&gt;InputProcessing.Document</title>
<path fill="none" stroke="black" d="M166.45,-108.48C197.14,-118.25 235.55,-130.47 267.58,-140.66"/>
<polygon fill="black" stroke="black" points="276.87,-143.62 265.98,-144.87 272.11,-142.1 267.34,-140.59 267.34,-140.59 267.34,-140.59 272.11,-142.1 268.71,-136.3 276.87,-143.62 276.87,-143.62"/>
</g>
<!-- InputProcessing.Processors -->
<g id="node8" class="node">
<title>InputProcessing.Processors</title>
<polygon fill="none" stroke="black" points="1039.5,-36 865.5,-36 865.5,0 1039.5,0 1039.5,-36"/>
<text text-anchor="middle" x="952.5" y="-14.3" font-family="Times New Roman,serif" font-size="14.00">InputProcessing.Processors</text>
</g>
<!-- InputProcessing.Processors.Hops -->
<g id="node9" class="node">
<title>InputProcessing.Processors.Hops</title>
<polygon fill="none" stroke="black" points="1267,-36 1058,-36 1058,0 1267,0 1267,-36"/>
<text text-anchor="middle" x="1162.5" y="-14.3" font-family="Times New Roman,serif" font-size="14.00">InputProcessing.Processors.Hops</text>
</g>
<!-- InputProcessing.Processors.NLTK -->
<g id="node10" class="node">
<title>InputProcessing.Processors.NLTK</title>
<polygon fill="none" stroke="black" points="1500,-36 1285,-36 1285,0 1500,0 1500,-36"/>
<text text-anchor="middle" x="1392.5" y="-14.3" font-family="Times New Roman,serif" font-size="14.00">InputProcessing.Processors.NLTK</text>
</g>
<!-- InputProcessing.Processors.Spacy -->
<g id="node11" class="node">
<title>InputProcessing.Processors.Spacy</title>
<polygon fill="none" stroke="black" points="1731,-36 1518,-36 1518,0 1731,0 1731,-36"/>
<text text-anchor="middle" x="1624.5" y="-14.3" font-family="Times New Roman,serif" font-size="14.00">InputProcessing.Processors.Spacy</text>
</g>
<!-- InputProcessing.Processors.TreeTagger -->
<g id="node12" class="node">
<title>InputProcessing.Processors.TreeTagger</title>
<polygon fill="none" stroke="black" points="1991.5,-36 1749.5,-36 1749.5,0 1991.5,0 1991.5,-36"/>
<text text-anchor="middle" x="1870.5" y="-14.3" font-family="Times New Roman,serif" font-size="14.00">InputProcessing.Processors.TreeTagger</text>
</g>
<!-- InputProcessing.UploadMachine -->
<g id="node13" class="node">
<title>InputProcessing.UploadMachine</title>
<polygon fill="none" stroke="black" points="431.5,-36 231.5,-36 231.5,0 431.5,0 431.5,-36"/>
<text text-anchor="middle" x="331.5" y="-14.3" font-family="Times New Roman,serif" font-size="14.00">InputProcessing.UploadMachine</text>
</g>
<!-- InputProcessing.UploadTask -->
<g id="node14" class="node">
<title>InputProcessing.UploadTask</title>
<polygon fill="none" stroke="black" points="421.5,-108 241.5,-108 241.5,-72 421.5,-72 421.5,-108"/>
<text text-anchor="middle" x="331.5" y="-86.3" font-family="Times New Roman,serif" font-size="14.00">InputProcessing.UploadTask</text>
</g>
<!-- InputProcessing.UploadMachine&#45;&gt;InputProcessing.UploadTask -->
<g id="edge4" class="edge">
<title>InputProcessing.UploadMachine&#45;&gt;InputProcessing.UploadTask</title>
<path fill="none" stroke="black" d="M331.5,-36.3C331.5,-44.1 331.5,-53.49 331.5,-62.17"/>
<polygon fill="black" stroke="black" points="331.5,-71.9 327,-61.9 331.5,-66.9 331.5,-61.9 331.5,-61.9 331.5,-61.9 331.5,-66.9 336,-61.9 331.5,-71.9 331.5,-71.9"/>
</g>
<!-- InputProcessing.UploadTask&#45;&gt;InputProcessing.Document -->
<g id="edge5" class="edge">
<title>InputProcessing.UploadTask&#45;&gt;InputProcessing.Document</title>
<path fill="none" stroke="black" d="M331.5,-108.3C331.5,-116.1 331.5,-125.49 331.5,-134.17"/>
<polygon fill="black" stroke="black" points="331.5,-143.9 327,-133.9 331.5,-138.9 331.5,-133.9 331.5,-133.9 331.5,-133.9 331.5,-138.9 336,-133.9 331.5,-143.9 331.5,-143.9"/>
</g>
</g>
</svg>
