<?xml version="1.0" encoding="UTF-8" standalone="no"?>
<!DOCTYPE svg PUBLIC "-//W3C//DTD SVG 1.1//EN"
 "http://www.w3.org/Graphics/SVG/1.1/DTD/svg11.dtd">
<!-- Generated by graphviz version 7.1.0 (20230121.1956)
 -->
<!-- Title: packages_InputProcessing Pages: 1 -->
<svg width="1979pt" height="188pt"
 viewBox="0.00 0.00 1978.50 188.00" xmlns="http://www.w3.org/2000/svg" xmlns:xlink="http://www.w3.org/1999/xlink">
<g id="graph0" class="graph" transform="scale(1 1) rotate(0) translate(4 184)">
<title>packages_InputProcessing</title>
<polygon fill="white" stroke="none" points="-4,4 -4,-184 1974.5,-184 1974.5,4 -4,4"/>
<!-- InputProcessing -->
<g id="node1" class="node">
<title>InputProcessing</title>
<polygon fill="none" stroke="black" points="192,-36 85,-36 85,0 192,0 192,-36"/>
<text text-anchor="middle" x="138.5" y="-14.3" font-family="Times New Roman,serif" font-size="14.00">InputProcessing</text>
</g>
<!-- InputProcessing.Document -->
<g id="node2" class="node">
<title>InputProcessing.Document</title>
<polygon fill="none" stroke="black" points="395,-180 226,-180 226,-144 395,-144 395,-180"/>
<text text-anchor="middle" x="310.5" y="-158.3" font-family="Times New Roman,serif" font-size="14.00">InputProcessing.Document</text>
</g>
<!-- InputProcessing.DocumentBuilder -->
<g id="node3" class="node">
<title>InputProcessing.DocumentBuilder</title>
<polygon fill="none" stroke="black" points="687,-108 478,-108 478,-72 687,-72 687,-108"/>
<text text-anchor="middle" x="582.5" y="-86.3" font-family="Times New Roman,serif" font-size="14.00">InputProcessing.DocumentBuilder</text>
</g>
<!-- InputProcessing.DocumentBuilder&#45;&gt;InputProcessing.Document -->
<g id="edge1" class="edge">
<title>InputProcessing.DocumentBuilder&#45;&gt;InputProcessing.Document</title>
<path fill="none" stroke="black" d="M514.56,-108.48C475.96,-118.42 427.5,-130.89 387.49,-141.19"/>
<polygon fill="black" stroke="black" points="378.04,-143.62 386.6,-136.77 382.88,-142.37 387.72,-141.13 387.72,-141.13 387.72,-141.13 382.88,-142.37 388.85,-145.48 378.04,-143.62 378.04,-143.62"/>
</g>
<!-- InputProcessing.Parsers -->
<g id="node5" class="node">
<title>InputProcessing.Parsers</title>
<polygon fill="none" stroke="black" points="658.5,-180 506.5,-180 506.5,-144 658.5,-144 658.5,-180"/>
<text text-anchor="middle" x="582.5" y="-158.3" font-family="Times New Roman,serif" font-size="14.00">InputProcessing.Parsers</text>
</g>
<!-- InputProcessing.DocumentBuilder&#45;&gt;InputProcessing.Parsers -->
<g id="edge2" class="edge">
<title>InputProcessing.DocumentBuilder&#45;&gt;InputProcessing.Parsers</title>
<path fill="none" stroke="black" d="M582.5,-108.3C582.5,-116.1 582.5,-125.49 582.5,-134.17"/>
<polygon fill="black" stroke="black" points="582.5,-143.9 578,-133.9 582.5,-138.9 582.5,-133.9 582.5,-133.9 582.5,-133.9 582.5,-138.9 587,-133.9 582.5,-143.9 582.5,-143.9"/>
</g>
<!-- InputProcessing.ParserInterface -->
<g id="node4" class="node">
<title>InputProcessing.ParserInterface</title>
<polygon fill="none" stroke="black" points="624,-36 429,-36 429,0 624,0 624,-36"/>
<text text-anchor="middle" x="526.5" y="-14.3" font-family="Times New Roman,serif" font-size="14.00">InputProcessing.ParserInterface</text>
</g>
<!-- InputProcessing.Parsers.TXT -->
<g id="node6" class="node">
<title>InputProcessing.Parsers.TXT</title>
<polygon fill="none" stroke="black" points="826.5,-36 642.5,-36 642.5,0 826.5,0 826.5,-36"/>
<text text-anchor="middle" x="734.5" y="-14.3" font-family="Times New Roman,serif" font-size="14.00">InputProcessing.Parsers.TXT</text>
</g>
<!-- InputProcessing.ProcessorInterfaces -->
<g id="node7" class="node">
<title>InputProcessing.ProcessorInterfaces</title>
<polygon fill="none" stroke="black" points="223,-108 0,-108 0,-72 223,-72 223,-108"/>
<text text-anchor="middle" x="111.5" y="-86.3" font-family="Times New Roman,serif" font-size="14.00">InputProcessing.ProcessorInterfaces</text>
</g>
<!-- InputProcessing.ProcessorInterfaces&#45;&gt;InputProcessing.Document -->
<g id="edge3" class="edge">
<title>InputProcessing.ProcessorInterfaces&#45;&gt;InputProcessing.Document</title>
<path fill="none" stroke="black" d="M161.2,-108.48C188.73,-118.17 223.11,-130.26 251.94,-140.4"/>
<polygon fill="black" stroke="black" points="261.09,-143.62 250.16,-144.54 256.37,-141.96 251.65,-140.3 251.65,-140.3 251.65,-140.3 256.37,-141.96 253.15,-136.05 261.09,-143.62 261.09,-143.62"/>
</g>
<!-- InputProcessing.Processors -->
<g id="node8" class="node">
<title>InputProcessing.Processors</title>
<polygon fill="none" stroke="black" points="1018.5,-36 844.5,-36 844.5,0 1018.5,0 1018.5,-36"/>
<text text-anchor="middle" x="931.5" y="-14.3" font-family="Times New Roman,serif" font-size="14.00">InputProcessing.Processors</text>
</g>
<!-- InputProcessing.Processors.Hops -->
<g id="node9" class="node">
<title>InputProcessing.Processors.Hops</title>
<polygon fill="none" stroke="black" points="1246,-36 1037,-36 1037,0 1246,0 1246,-36"/>
<text text-anchor="middle" x="1141.5" y="-14.3" font-family="Times New Roman,serif" font-size="14.00">InputProcessing.Processors.Hops</text>
</g>
<!-- InputProcessing.Processors.NLTK -->
<g id="node10" class="node">
<title>InputProcessing.Processors.NLTK</title>
<polygon fill="none" stroke="black" points="1479,-36 1264,-36 1264,0 1479,0 1479,-36"/>
<text text-anchor="middle" x="1371.5" y="-14.3" font-family="Times New Roman,serif" font-size="14.00">InputProcessing.Processors.NLTK</text>
</g>
<!-- InputProcessing.Processors.Spacy -->
<g id="node11" class="node">
<title>InputProcessing.Processors.Spacy</title>
<polygon fill="none" stroke="black" points="1710,-36 1497,-36 1497,0 1710,0 1710,-36"/>
<text text-anchor="middle" x="1603.5" y="-14.3" font-family="Times New Roman,serif" font-size="14.00">InputProcessing.Processors.Spacy</text>
</g>
<!-- InputProcessing.Processors.TreeTagger -->
<g id="node12" class="node">
<title>InputProcessing.Processors.TreeTagger</title>
<polygon fill="none" stroke="black" points="1970.5,-36 1728.5,-36 1728.5,0 1970.5,0 1970.5,-36"/>
<text text-anchor="middle" x="1849.5" y="-14.3" font-family="Times New Roman,serif" font-size="14.00">InputProcessing.Processors.TreeTagger</text>
</g>
<!-- InputProcessing.UploadMachine -->
<g id="node13" class="node">
<title>InputProcessing.UploadMachine</title>
<polygon fill="none" stroke="black" points="410.5,-36 210.5,-36 210.5,0 410.5,0 410.5,-36"/>
<text text-anchor="middle" x="310.5" y="-14.3" font-family="Times New Roman,serif" font-size="14.00">InputProcessing.UploadMachine</text>
</g>
<!-- InputProcessing.UploadMachine&#45;&gt;InputProcessing.Document -->
<g id="edge4" class="edge">
<title>InputProcessing.UploadMachine&#45;&gt;InputProcessing.Document</title>
<path fill="none" stroke="black" d="M292.77,-36.4C284.26,-46 274.97,-58.66 270.5,-72 265.42,-87.17 265.42,-92.83 270.5,-108 273.89,-118.11 280.04,-127.82 286.53,-136.12"/>
<polygon fill="black" stroke="black" points="292.77,-143.6 282.91,-138.8 289.56,-139.76 286.36,-135.92 286.36,-135.92 286.36,-135.92 289.56,-139.76 289.82,-133.04 292.77,-143.6 292.77,-143.6"/>
</g>
<!-- InputProcessing.UploadTask -->
<g id="node14" class="node">
<title>InputProcessing.UploadTask</title>
<polygon fill="none" stroke="black" points="459.5,-108 279.5,-108 279.5,-72 459.5,-72 459.5,-108"/>
<text text-anchor="middle" x="369.5" y="-86.3" font-family="Times New Roman,serif" font-size="14.00">InputProcessing.UploadTask</text>
</g>
<!-- InputProcessing.UploadMachine&#45;&gt;InputProcessing.UploadTask -->
<g id="edge5" class="edge">
<title>InputProcessing.UploadMachine&#45;&gt;InputProcessing.UploadTask</title>
<path fill="none" stroke="black" d="M325.08,-36.3C332.23,-44.78 340.96,-55.14 348.78,-64.42"/>
<polygon fill="black" stroke="black" points="355.08,-71.9 345.2,-67.15 351.86,-68.07 348.64,-64.25 348.64,-64.25 348.64,-64.25 351.86,-68.07 352.08,-61.35 355.08,-71.9 355.08,-71.9"/>
</g>
<!-- InputProcessing.UploadTask&#45;&gt;InputProcessing.Document -->
<g id="edge6" class="edge">
<title>InputProcessing.UploadTask&#45;&gt;InputProcessing.Document</title>
<path fill="none" stroke="black" d="M354.92,-108.3C347.77,-116.78 339.04,-127.14 331.22,-136.42"/>
<polygon fill="black" stroke="black" points="324.92,-143.9 327.92,-133.35 328.14,-140.07 331.36,-136.25 331.36,-136.25 331.36,-136.25 328.14,-140.07 334.8,-139.15 324.92,-143.9 324.92,-143.9"/>
</g>
</g>
</svg>
