<?xml version="1.0" encoding="UTF-8" standalone="no"?>
<!DOCTYPE svg PUBLIC "-//W3C//DTD SVG 1.1//EN"
 "http://www.w3.org/Graphics/SVG/1.1/DTD/svg11.dtd">
<!-- Generated by graphviz version 7.1.0 (20230121.1956)
 -->
<!-- Title: packages_InputProcessing Pages: 1 -->
<svg width="1592pt" height="116pt"
 viewBox="0.00 0.00 1592.00 116.00" xmlns="http://www.w3.org/2000/svg" xmlns:xlink="http://www.w3.org/1999/xlink">
<g id="graph0" class="graph" transform="scale(1 1) rotate(0) translate(4 112)">
<title>packages_InputProcessing</title>
<polygon fill="white" stroke="none" points="-4,4 -4,-112 1588,-112 1588,4 -4,4"/>
<!-- InputProcessing -->
<g id="node1" class="node">
<title>InputProcessing</title>
<polygon fill="none" stroke="black" points="107,-36 0,-36 0,0 107,0 107,-36"/>
<text text-anchor="middle" x="53.5" y="-14.3" font-family="Times New Roman,serif" font-size="14.00">InputProcessing</text>
</g>
<!-- InputProcessing.Document -->
<g id="node2" class="node">
<title>InputProcessing.Document</title>
<polygon fill="none" stroke="black" points="321,-108 152,-108 152,-72 321,-72 321,-108"/>
<text text-anchor="middle" x="236.5" y="-86.3" font-family="Times New Roman,serif" font-size="14.00">InputProcessing.Document</text>
</g>
<!-- InputProcessing.ParserInterface -->
<g id="node3" class="node">
<title>InputProcessing.ParserInterface</title>
<polygon fill="none" stroke="black" points="561,-36 366,-36 366,0 561,0 561,-36"/>
<text text-anchor="middle" x="463.5" y="-14.3" font-family="Times New Roman,serif" font-size="14.00">InputProcessing.ParserInterface</text>
</g>
<!-- InputProcessing.Parsers -->
<g id="node4" class="node">
<title>InputProcessing.Parsers</title>
<polygon fill="none" stroke="black" points="731.5,-36 579.5,-36 579.5,0 731.5,0 731.5,-36"/>
<text text-anchor="middle" x="655.5" y="-14.3" font-family="Times New Roman,serif" font-size="14.00">InputProcessing.Parsers</text>
</g>
<!-- InputProcessing.Parsers.TXT -->
<g id="node5" class="node">
<title>InputProcessing.Parsers.TXT</title>
<polygon fill="none" stroke="black" points="933.5,-36 749.5,-36 749.5,0 933.5,0 933.5,-36"/>
<text text-anchor="middle" x="841.5" y="-14.3" font-family="Times New Roman,serif" font-size="14.00">InputProcessing.Parsers.TXT</text>
</g>
<!-- InputProcessing.ProcessorInterfaces -->
<g id="node6" class="node">
<title>InputProcessing.ProcessorInterfaces</title>
<polygon fill="none" stroke="black" points="348,-36 125,-36 125,0 348,0 348,-36"/>
<text text-anchor="middle" x="236.5" y="-14.3" font-family="Times New Roman,serif" font-size="14.00">InputProcessing.ProcessorInterfaces</text>
</g>
<!-- InputProcessing.ProcessorInterfaces&#45;&gt;InputProcessing.Document -->
<g id="edge1" class="edge">
<title>InputProcessing.ProcessorInterfaces&#45;&gt;InputProcessing.Document</title>
<path fill="none" stroke="black" d="M236.5,-36.3C236.5,-44.1 236.5,-53.49 236.5,-62.17"/>
<polygon fill="black" stroke="black" points="236.5,-71.9 232,-61.9 236.5,-66.9 236.5,-61.9 236.5,-61.9 236.5,-61.9 236.5,-66.9 241,-61.9 236.5,-71.9 236.5,-71.9"/>
</g>
<!-- InputProcessing.Processors -->
<g id="node7" class="node">
<title>InputProcessing.Processors</title>
<polygon fill="none" stroke="black" points="1125.5,-36 951.5,-36 951.5,0 1125.5,0 1125.5,-36"/>
<text text-anchor="middle" x="1038.5" y="-14.3" font-family="Times New Roman,serif" font-size="14.00">InputProcessing.Processors</text>
</g>
<!-- InputProcessing.Processors.Hops -->
<g id="node8" class="node">
<title>InputProcessing.Processors.Hops</title>
<polygon fill="none" stroke="black" points="1353,-36 1144,-36 1144,0 1353,0 1353,-36"/>
<text text-anchor="middle" x="1248.5" y="-14.3" font-family="Times New Roman,serif" font-size="14.00">InputProcessing.Processors.Hops</text>
</g>
<!-- InputProcessing.Processors.Spacy -->
<g id="node9" class="node">
<title>InputProcessing.Processors.Spacy</title>
<polygon fill="none" stroke="black" points="1584,-36 1371,-36 1371,0 1584,0 1584,-36"/>
<text text-anchor="middle" x="1477.5" y="-14.3" font-family="Times New Roman,serif" font-size="14.00">InputProcessing.Processors.Spacy</text>
</g>
</g>
</svg>
